<svg xmlns="http://www.w3.org/2000/svg" viewBox="0 0 129.32 160"><defs><style>.cls-1{fill:#ee4d2d;}</style></defs><g id="Layer_2" data-name="Layer 2"><g id="Flatten"><g id="shield_password__privacy-check"><path class="cls-1" d="M74.07,46.14c-.22-.17-.46-.33-.7-.49a15.78,15.78,0,0,0-17-.24l-.58.39a14.17,14.17,0,0,0-6,11.67v5.86H79.74v-5.7A14.27,14.27,0,0,0,74.07,46.14Z"/><path class="cls-1" d="M64.66,77.53A5.62,5.62,0,0,0,61.85,88V94.8a2.81,2.81,0,0,0,5.62,0V88a5.62,5.62,0,0,0-2.81-10.49Z"/><path class="cls-1" d="M120.54,9.17C97.74,2.59,70.53,0,64.66,0,59,0,31,4.85,9.91,9.63A12.82,12.82,0,0,0,0,22.26v65a53.3,53.3,0,0,0,21.73,42.94l37,27.19c4.7,3.45,7.18,3.45,11.87,0l37-27.19a53.28,53.28,0,0,0,21.74-42.94v-66A12.44,12.44,0,0,0,120.54,9.17Zm-24,97.65a5,5,0,0,1-5,5H37.74a5,5,0,0,1-5-5V68.32a5,5,0,0,1,5-5h1.69V56.16a22.24,22.24,0,0,1,6.34-15.7,24.53,24.53,0,0,1,5.57-4.17,27.44,27.44,0,0,1,26.23-.42l.73.4a23.08,23.08,0,0,1,11.39,19.6l.13,7.46h1.76a5,5,0,0,1,5,5Z"/></g></g></g></svg>