<svg xmlns="http://www.w3.org/2000/svg" viewBox="0 0 144.65 146.33"><defs><style>.cls-1{fill:#ee4d2d;}</style></defs><g id="Layer_2" data-name="Layer 2"><g id="Flatten"><g id="fixing_spanar_tools__settings"><path class="cls-1" d="M53.79,81.47l-6-6.06L3.26,119.89a11.14,11.14,0,0,0,0,15.75l7.43,7.43a11.14,11.14,0,0,0,15.75,0L70.92,98.59,61.5,89.17Z"/><polygon class="cls-1" points="117.77 36.26 135.06 26.67 144.65 9.38 135.27 0 117.98 9.59 108.39 26.88 81.45 53.81 90.83 63.19 117.77 36.26"/><path class="cls-1" d="M.1,29.15l.06.7c0,.54.11,1.07.19,1.6,0,.07,0,.14,0,.21.09.57.2,1.14.33,1.7l0,.08a27.78,27.78,0,0,0,20.31,20.4l.31.07,1.11.22c.43.08,1.14.18,1.58.23l.54.07c.37,0,.74.06,1.12.09l.5,0c.36,0,.73,0,1.11,0h0c.5,0,1,0,1.51,0l.44,0a28,28,0,0,0,8-1.83l0,0L92,107.41s.05,0,.05,0A27.36,27.36,0,0,1,107.4,92.07s0,0,0,0L52.69,37.31l0-.05C61.22,15.23,39.53-6.54,17.45,2l0,.1L20.18,4.8,30,14.66l2.88,2.87a11.13,11.13,0,0,1,.4,15.52,10.88,10.88,0,0,1-15.49.12c-.42-.46-1.06-1-1.51-1.43L2,17.42a0,0,0,0,0-.05,0,27.42,27.42,0,0,0-1.9,10c0,.16,0,.32,0,.48C.06,28.35.08,28.75.1,29.15Z"/><path class="cls-1" d="M107.47,92.13l0,0A27.36,27.36,0,0,0,92,107.51l0,0a27.69,27.69,0,0,0-1.83,8c0,.15,0,.29,0,.44,0,.51,0,1,0,1.51v0q0,.57,0,1.11c0,.17,0,.34,0,.5,0,.38.05.75.09,1.12,0,.19,0,.38.07.58,0,.46.12.93.2,1.39s.16.84.25,1.26c0,.1.05.2.07.31A27.78,27.78,0,0,0,111.29,144l.08,0c.56.13,1.13.24,1.7.33l.21,0c.53.08,1.06.14,1.6.19l.7.06,1.2.05h.49a27.34,27.34,0,0,0,10.07-1.92L113,128.46a10.27,10.27,0,0,1-.7-.78l-.73-.73a10.86,10.86,0,0,1,15.36-15.36l3.15,3.15c2.86,2.8,7.08,7.06,9.86,9.85l2.78,2.79,0,0C151.32,105.3,129.52,83.54,107.47,92.13Z"/></g></g></g></svg>