<?xml version="1.0" encoding="UTF-8"?>
<svg id="Layer_2" data-name="Layer 2" xmlns="http://www.w3.org/2000/svg" viewBox="0 0 641.89 100">
  <defs>
    <style>
      .cls-1 {
        fill: #ee4d2d;
      }
    </style>
  </defs>
  <g id="Logo">
    <g>
      <g>
        <path class="cls-1" d="M131.7,90.02c-.21.77-.6,1.39-1.18,1.84-.58.46-1.25.68-2.03.68h-10.62c-.77,0-1.32-.23-1.66-.68-.34-.46-.4-1.07-.19-1.84l16.68-62.27c.21-.77.6-1.38,1.18-1.84.58-.46,1.25-.68,2.02-.68h41.76c.77,0,1.32.23,1.66.68.33.46.4,1.07.19,1.84l-2.68,9.99c-.21.77-.6,1.38-1.18,1.84-.58.46-1.25.68-2.02.68h-28.61l-3.49,13.04h27.87c.77,0,1.32.23,1.66.68.33.46.4,1.07.19,1.84l-2.65,9.89c-.21.77-.6,1.38-1.18,1.84-.58.46-1.25.68-2.02.68h-27.87l-5.83,21.77Z"/>
        <path class="cls-1" d="M171.49,92.54c-.77,0-1.32-.23-1.66-.68-.33-.46-.4-1.07-.19-1.84l16.68-62.27c.45-1.68,1.52-2.52,3.2-2.52h11.46c.77,0,1.32.23,1.66.68.33.46.4,1.07.19,1.84l-13.22,49.33h18.83c1.33,0,2.01.6,2.04,1.79l1.37,11.36c.16.7.03,1.26-.4,1.68s-1.03.63-1.8.63h-38.18Z"/>
        <path class="cls-1" d="M260.33,27.02c.81-1.19,1.85-1.79,3.11-1.79h6.94c1.26,0,1.98.6,2.15,1.79l10.06,63.74c.17,1.19-.38,1.79-1.64,1.79h-13.15c-1.26,0-1.98-.59-2.15-1.79l-1.15-7.89h-26.19l-5.37,7.89c-.81,1.19-1.85,1.79-3.11,1.79h-13.04c-1.26,0-1.49-.59-.68-1.79l44.21-63.74ZM263.08,68.56l-2.71-18.93-12.96,18.93h15.67Z"/>
        <path class="cls-1" d="M286.87,85.18c-.43-.49-.6-1.09-.52-1.79.08-.7.45-1.37,1.11-2l6.99-7.26c.59-.63,1.23-1,1.93-1.1.69-.1,1.3.05,1.82.47,1.57,1.19,3.34,2.17,5.31,2.94,2.63,1.19,5.54,1.82,8.75,1.89.98,0,2.02-.07,3.11-.21,1.09-.14,2.1-.38,3.04-.74.94-.35,1.78-.81,2.52-1.37.75-.56,1.27-1.26,1.56-2.1.35-1.05.25-2-.29-2.84-.55-.84-1.3-1.61-2.27-2.31-.97-.7-2.01-1.31-3.13-1.84-1.12-.53-2.09-.96-2.91-1.31-2.07-.91-4.22-1.98-6.45-3.21-2.23-1.23-4.14-2.75-5.71-4.58-1.58-1.82-2.66-4-3.25-6.52s-.29-5.57.87-9.15c.68-2.03,1.77-4.12,3.25-6.26,1.48-2.14,3.4-4.07,5.76-5.79,2.35-1.72,5.18-3.12,8.49-4.21,3.3-1.09,7.06-1.63,11.27-1.63,2.59,0,4.99.23,7.18.68s4.17,1.05,5.94,1.79c1.76.74,3.3,1.56,4.6,2.47.47.35.9.7,1.3,1.05.52.42.75.98.71,1.68-.05.7-.4,1.37-1.06,2l-7.34,7.36c-.59.63-1.24,1.02-1.94,1.16-.71.14-1.36.04-1.97-.32-1.09-.63-2.31-1.19-3.65-1.68-2.25-.77-4.61-1.26-7.07-1.47-2.89-.21-5.15.12-6.79,1-1.64.88-2.58,1.91-2.83,3.1-.19.98-.07,1.84.36,2.58.43.74,1.08,1.4,1.94,2,.86.6,1.85,1.14,2.98,1.63,1.13.49,2.25,1.02,3.36,1.58l1.2.63c2.34,1.19,4.57,2.49,6.69,3.89,2.11,1.4,3.86,3.02,5.22,4.84,1.37,1.82,2.29,3.89,2.76,6.21.47,2.31.25,5.01-.64,8.1-.69,2.31-1.8,4.63-3.33,6.94-1.53,2.31-3.51,4.4-5.94,6.26-2.43,1.86-5.32,3.37-8.68,4.52-3.36,1.16-7.21,1.74-11.56,1.74-6.08-.07-11-1.09-14.75-3.05-3.08-1.61-5.71-3.54-7.92-5.79Z"/>
        <path class="cls-1" d="M357.17,27.75c.21-.77.6-1.38,1.18-1.84.58-.46,1.25-.68,2.02-.68h10.62c.77,0,1.32.23,1.66.68.33.46.4,1.07.19,1.84l-6.26,23.35h27.03l6.26-23.35c.21-.77.6-1.38,1.18-1.84.58-.46,1.25-.68,2.02-.68h10.62c.77,0,1.32.23,1.66.68.33.46.4,1.07.19,1.84l-16.68,62.27c-.21.77-.6,1.39-1.18,1.84-.58.46-1.25.68-2.02.68h-10.62c-.77,0-1.33-.23-1.66-.68-.33-.46-.4-1.07-.19-1.84l6.26-23.35h-27.03l-6.26,23.35c-.21.77-.6,1.39-1.18,1.84-.58.46-1.25.68-2.02.68h-10.62c-.77,0-1.32-.23-1.66-.68-.33-.46-.4-1.07-.19-1.84l16.68-62.27Z"/>
      </g>
      <g>
        <path class="cls-1" d="M431.31,85.18c-.68-.63-.75-1.33-.2-2.1l3.76-5.47c.54-.7,1.18-.77,1.93-.21,2.71,2.17,5.32,3.79,7.82,4.84,2.91,1.19,6.06,1.75,9.45,1.68,1.9,0,3.69-.21,5.38-.63,1.69-.42,3.17-1.02,4.42-1.79,1.25-.77,2.25-1.74,3-2.89.74-1.16,1.12-2.51,1.12-4.05-.07-1.68-.66-3.19-1.78-4.52-1.12-1.33-2.49-2.51-4.11-3.52-1.62-1.02-3.32-1.88-5.08-2.58-1.76-.7-3.32-1.3-4.67-1.79-2.51-.91-4.95-1.91-7.31-3-2.37-1.09-4.49-2.38-6.35-3.89-1.86-1.51-3.35-3.31-4.47-5.42s-1.68-4.63-1.68-7.57c0-2.59.52-5,1.58-7.2,1.05-2.21,2.54-4.14,4.47-5.79,1.93-1.65,4.22-2.93,6.86-3.84,2.64-.91,5.52-1.37,8.63-1.37,2.44,0,4.72.23,6.86.68,2.13.46,4.06,1.04,5.79,1.74,1.73.7,3.27,1.44,4.62,2.21.81.56,1.56,1.09,2.24,1.58.81.49.91,1.16.3,2l-3.76,5.47c-.61.7-1.29.84-2.03.42-.47-.28-.98-.56-1.52-.84-1.08-.56-2.3-1.09-3.66-1.58-1.36-.49-2.78-.91-4.27-1.26-1.49-.35-3.01-.53-4.57-.53-3.45-.07-6.32.63-8.58,2.1-2.27,1.47-3.4,3.44-3.4,5.89,0,1.33.36,2.52,1.07,3.58s1.61,1.96,2.69,2.73c1.08.77,2.32,1.46,3.71,2.05,1.39.6,2.73,1.14,4.01,1.63l1.22.53c2.5.91,5.1,1.96,7.77,3.16,2.67,1.19,5.13,2.63,7.37,4.31,2.23,1.68,4.08,3.7,5.54,6.05,1.46,2.35,2.18,5.14,2.18,8.36,0,2.81-.51,5.4-1.52,7.78-1.02,2.38-2.49,4.44-4.42,6.15-1.93,1.72-4.33,3.07-7.21,4.05-2.88.98-6.18,1.47-9.91,1.47-5.15,0-9.65-.88-13.51-2.63-3.52-1.47-6.77-3.47-9.75-6Z"/>
        <path class="cls-1" d="M507.2,26.28c.2-.7.71-1.05,1.52-1.05h6.71c.81,0,1.32.35,1.52,1.05l26.82,65.21c.2.7-.04,1.05-.71,1.05h-8.23c-.81,0-1.32-.35-1.52-1.05l-5.18-12.94h-32l-5.18,12.94c-.2.7-.71,1.05-1.52,1.05h-8.33c-.68,0-.91-.35-.71-1.05l26.82-65.21ZM524.17,68.77l-12.09-29.87-11.99,29.87h24.08Z"/>
        <path class="cls-1" d="M552.47,92.54c-.95,0-1.42-.49-1.42-1.47V26.7c0-.98.47-1.47,1.42-1.47h6.6c.95,0,1.42.49,1.42,1.47v56.06h24.89c.61,0,1.02.28,1.22.84l2.84,7.57c.34.91.03,1.37-.91,1.37h-36.07Z"/>
        <path class="cls-1" d="M640.46,25.23c.95,0,1.42.49,1.42,1.47v6.84c0,.98-.47,1.47-1.42,1.47h-34.14v18.93h33.53c.95,0,1.42.49,1.42,1.47v6.94c0,.98-.47,1.47-1.42,1.47h-33.42v18.83h34.03c.95,0,1.42.49,1.42,1.47v6.94c0,.98-.47,1.47-1.42,1.47h-42.26c-.95,0-1.42-.49-1.42-1.47V26.7c0-.98.47-1.47,1.42-1.47h42.26Z"/>
      </g>
      <g>
        <path class="cls-1" d="M79.08,12.34h-26.4c-.96,0-1.59-.77-1.42-1.73l1.57-8.88c.17-.96,1.08-1.73,2.03-1.73h26.4c.96,0,1.59.77,1.42,1.73l-1.57,8.88c-.17.96-1.08,1.73-2.03,1.73Z"/>
        <path class="cls-1" d="M65.44,17.65c-16.88,0-33.17,10.17-42.09,24.71H5.02c-2.77,0-5.02,2.25-5.02,5.02s2.25,5.02,5.02,5.02l24.44-.04c2.77,0,5.02,2.25,5.02,5.02s-2.25,5.02-5.02,5.02l-18.52-.04c-2.77,0-5.02,2.25-5.02,5.02s2.25,5.02,5.02,5.02h.02c.12,0,27.14-.04,27.14-.04,2.77,0,5.02,2.25,5.02,5.02s-2.25,5.02-5.02,5.02h-17.74c5.57,10.61,16.62,17.58,30.56,17.58,22.74,0,44.42-18.43,48.43-41.17,4.01-22.74-11.17-41.17-33.91-41.17ZM83.46,37.77l-21.09,24.52s-.02.03-.04.04c-1.33,1.39-2.93,2.12-4.56,2.12-.57,0-1.14-.09-1.7-.27-2.26-.72-4.01-2.78-4.36-5.13-.34-2.27.7-4.42,2.83-5.89l27.64-16.9c.42-.26.96-.17,1.28.21.32.38.32.93,0,1.3Z"/>
      </g>
    </g>
  </g>
</svg>