<?xml version="1.0" encoding="utf-8"?>
<!-- Generator: Adobe Illustrator 25.4.1, SVG Export Plug-In . SVG Version: 6.00 Build 0)  -->
<svg version="1.1" id="Layer_1" xmlns="http://www.w3.org/2000/svg" xmlns:xlink="http://www.w3.org/1999/xlink" x="0px" y="0px"
	 viewBox="0 0 1275.6 850.4" style="enable-background:new 0 0 1275.6 850.4;" xml:space="preserve">
<style type="text/css">
	.st0{fill:#FFFFFF;}
	.st1{fill:#E94D30;}
	.st2{fill:#F49D8D;}
	.st3{fill:#EF7962;}
	.st4{fill:none;stroke:#EF7962;stroke-width:4;stroke-miterlimit:10;}
	.st5{fill:#F8C1B6;}
	.st6{fill:#491F18;}
	.st7{fill:#386DB4;}
	.st8{fill:none;stroke:#6292CD;stroke-width:2;stroke-miterlimit:10;}
	.st9{fill:#F6BFB3;}
	.st10{fill:none;stroke:#EB8F80;stroke-width:2.0131;stroke-linecap:round;stroke-miterlimit:10;}
	.st11{fill:none;stroke:#EC9081;stroke-width:2.0131;stroke-linecap:round;stroke-miterlimit:10;}
	.st12{fill:#25AB99;}
	.st13{fill:none;stroke:#218E7E;stroke-width:1.9362;stroke-miterlimit:10;}
	.st14{fill:none;stroke:#5FBEB2;stroke-width:2;stroke-linecap:round;stroke-miterlimit:10;}
	.st15{fill:#491F17;}
	.st16{fill:#EEADA3;}
	.st17{fill:#F8AC9F;}
	.st18{fill:none;stroke:#F3A400;stroke-width:2.2377;stroke-linecap:round;stroke-linejoin:bevel;stroke-miterlimit:10;}
	.st19{fill:#FFBFB0;}
	.st20{fill:#32100F;}
	.st21{fill:none;stroke:#F98F7C;stroke-width:1.5;stroke-linecap:round;stroke-miterlimit:10;}
	.st22{fill:none;stroke:#2E1112;stroke-width:2.4018;stroke-linecap:round;stroke-miterlimit:10;}
	.st23{fill:#EDABA2;}
	.st24{fill:#E29661;}
	.st25{fill:#15192F;}
	.st26{fill:#779DD3;}
	.st27{fill:none;stroke:#A06740;stroke-width:1.5;stroke-linecap:round;stroke-miterlimit:10;}
	.st28{fill:none;stroke:#A06740;stroke-width:1.2057;stroke-linecap:round;stroke-miterlimit:10;}
	.st29{fill:none;stroke:#EC9081;stroke-width:0.623;stroke-linecap:round;stroke-linejoin:round;stroke-miterlimit:10;}
	.st30{fill:none;stroke:#000000;stroke-width:0.6602;stroke-miterlimit:10;}
	.st31{fill:#E8EAEC;}
	.st32{fill:none;stroke:#C5CAD1;stroke-width:2;stroke-linecap:round;stroke-miterlimit:10;}
	.st33{fill:#E9EAEC;}
	.st34{fill:#D7DADF;}
	.st35{fill:none;stroke:#D7DADF;stroke-width:4;stroke-miterlimit:10;}
	.st36{fill:none;stroke:#EF7962;stroke-width:2;stroke-miterlimit:10;}
	.st37{fill:none;stroke:#D1966B;stroke-width:1.1056;stroke-linecap:round;stroke-miterlimit:10;}
	.st38{fill:#FFDA73;}
	.st39{fill:#FBBA0E;}
	.st40{fill:none;stroke:#FBBA0E;stroke-width:4;stroke-linecap:round;stroke-miterlimit:10;}
	.st41{fill:#F8C1B6;stroke:#EC9081;stroke-width:1.5;stroke-linecap:round;stroke-miterlimit:10;}
	.st42{fill:none;stroke:#EC9081;stroke-width:1.5;stroke-linecap:round;stroke-miterlimit:10;}
	.st43{fill:#2E1112;}
	.st44{fill:none;stroke:#2E1112;stroke-width:1.4957;stroke-linecap:round;stroke-miterlimit:10;}
</style>
<rect class="st0" width="1275.6" height="850.4"/>
<rect x="1295.6" class="st1" width="1275.6" height="850.4"/>
<g>
	<g>
		<rect x="1835.1" y="437.5" class="st2" width="213.2" height="213.2"/>
		<rect x="1621.9" y="527.8" class="st3" width="213.2" height="122.9"/>
		<rect x="2048.2" y="548" class="st3" width="213.2" height="102.7"/>
	</g>
	<g>
		<path class="st4" d="M1881.4,509.5c0,34.2,27.5,61.9,61.4,61.9"/>
		<path class="st3" d="M1887.7,534.8L1887.7,534.8L1887.7,534.8c-3-7.2,0.4-15.4,7.6-18.3l0,0l0,0
			C1898.2,523.6,1894.8,531.8,1887.7,534.8z"/>
		<path class="st3" d="M1868,527.7L1868,527.7L1868,527.7c7.2-3,15.4,0.4,18.3,7.6l0,0l0,0C1879.2,538.3,1871,534.9,1868,527.7z"/>
		<path class="st3" d="M1897.6,552.2L1897.6,552.2L1897.6,552.2c-3-7.2,0.4-15.4,7.6-18.3l0,0l0,0
			C1908.1,541,1904.7,549.2,1897.6,552.2z"/>
		<path class="st3" d="M1877.9,545.2L1877.9,545.2L1877.9,545.2c7.2-3,15.4,0.4,18.3,7.6l0,0l0,0
			C1889.1,555.7,1880.9,552.3,1877.9,545.2z"/>
		<path class="st3" d="M1917.1,565.3L1917.1,565.3L1917.1,565.3c-5.5-5.5-5.5-14.4,0-19.9v0v0
			C1922.6,550.9,1922.6,559.8,1917.1,565.3z"/>
		<path class="st3" d="M1896.3,566.3L1896.3,566.3L1896.3,566.3c5.5-5.5,14.4-5.5,19.9,0v0l0,0
			C1910.6,571.7,1901.7,571.8,1896.3,566.3z"/>
		<path class="st3" d="M1944.7,571.1L1944.7,571.1L1944.7,571.1c-7.6-1.6-12.4-9.1-10.8-16.7v0l0,0
			C1941.5,556.1,1946.4,563.6,1944.7,571.1z"/>
		<path class="st3" d="M1927.8,583.3L1927.8,583.3L1927.8,583.3c1.6-7.6,9.1-12.4,16.7-10.8l0,0v0
			C1942.8,580.1,1935.3,584.9,1927.8,583.3z"/>
		<path class="st3" d="M1878.7,494.4l2.2-2.3l2.3,2.2c6,5.5,6.4,14.8,0.9,20.8l-2.2,2.3l-2.3-2.2
			C1873.6,509.6,1873.2,500.3,1878.7,494.4z"/>
	</g>
	<g>
		<path class="st4" d="M2005.8,509.5c0,34.2-27.5,61.9-61.4,61.9"/>
		<path class="st3" d="M1999.6,534.8L1999.6,534.8L1999.6,534.8c3-7.2-0.4-15.4-7.6-18.3l0,0l0,0
			C1989,523.6,1992.4,531.8,1999.6,534.8z"/>
		<path class="st3" d="M2019.2,527.7L2019.2,527.7L2019.2,527.7c-7.2-3-15.4,0.4-18.3,7.6l0,0l0,0
			C2008,538.3,2016.3,534.9,2019.2,527.7z"/>
		<path class="st3" d="M1989.7,552.2L1989.7,552.2L1989.7,552.2c3-7.2-0.4-15.4-7.6-18.3l0,0l0,0
			C1979.1,541,1982.5,549.2,1989.7,552.2z"/>
		<path class="st3" d="M2009.3,545.2L2009.3,545.2L2009.3,545.2c-7.2-3-15.4,0.4-18.3,7.6l0,0l0,0
			C1998.1,555.7,2006.3,552.3,2009.3,545.2z"/>
		<path class="st3" d="M1970.1,565.3L1970.1,565.3L1970.1,565.3c5.5-5.5,5.5-14.4,0-19.9v0v0
			C1964.7,550.9,1964.7,559.8,1970.1,565.3z"/>
		<path class="st3" d="M1991,566.3L1991,566.3L1991,566.3c-5.5-5.5-14.4-5.5-19.9,0l0,0l0,0C1976.6,571.7,1985.5,571.8,1991,566.3z"
			/>
		<path class="st3" d="M1942.5,571.1L1942.5,571.1L1942.5,571.1c7.6-1.6,12.4-9.1,10.8-16.7v0l0,0
			C1945.7,556.1,1940.9,563.6,1942.5,571.1z"/>
		<path class="st3" d="M1959.5,583.3L1959.5,583.3L1959.5,583.3c-1.6-7.6-9.1-12.4-16.7-10.8l0,0v0
			C1944.4,580.1,1951.9,584.9,1959.5,583.3z"/>
		<path class="st3" d="M2008.5,494.4l-2.2-2.3l-2.3,2.2c-6,5.5-6.4,14.8-0.9,20.8l2.2,2.3l2.3-2.2
			C2013.6,509.6,2014,500.3,2008.5,494.4z"/>
	</g>
	<g>
		<path class="st3" d="M1949.3,518.6h-11v-43.5h-9.8l7.5-10.7h13.3V518.6z"/>
	</g>
</g>
<g>
	<g>
		<g>
			<path class="st5" d="M2080.7,618.4l12.7,153.2l25.3-0.5c0,0,21-99,1.6-150.2L2080.7,618.4z"/>
			
				<ellipse transform="matrix(0.2445 -0.9697 0.9697 0.2445 989.8064 2502.3574)" class="st5" cx="2100.7" cy="616" rx="21.2" ry="20.1"/>
			<polygon class="st5" points="2120.4,619.6 2080.7,613.3 2089.3,523.6 2143.7,531.7 			"/>
			<path class="st6" d="M2121.1,759.2l0.9,18c0.1,1.6-1.2,2.9-2.8,3l-8.7,0.3c-1.6,0.1-3-1.2-3-2.7l-0.1-4.3l-21.7,4.5l-17,3.5
				c-2.1,0.4-4.4-0.8-5-2.8l0,0c-0.5-1.5,0.2-3.6,1.4-4.6l23.2-23c1.2-1,2.9-0.8,3.7,0.6l1,14.7L2121.1,759.2z"/>
		</g>
		<g>
			<path class="st5" d="M2159,621.8l62.5,141.2l23.8-8.4c0,0-12.8-100.3-48-142.8L2159,621.8z"/>
			
				<ellipse transform="matrix(0.9689 -0.2476 0.2476 0.9689 -84.0675 558.0402)" class="st5" cx="2177.1" cy="613.3" rx="20.1" ry="21.2"/>
			<polygon class="st5" points="2197,610.6 2157.3,617 2135.8,529.3 2190,520.1 			"/>
			<path class="st6" d="M2243.7,742.6l6.8,16.7c0.6,1.5-0.2,3.1-1.7,3.7l-8.1,3c-1.5,0.6-3.2-0.2-3.8-1.7l-1.5-4l-19.1,11l-15,8.6
				c-1.9,1.1-4.4,0.6-5.6-1.1l0,0c-0.9-1.3-1-3.5-0.2-4.8l14.4-29c0.8-1.4,2.5-1.6,3.7-0.6l5.7,13.6L2243.7,742.6z"/>
		</g>
		<g>
			<path class="st7" d="M2208.3,555.7c0-77.1-15.2-123.4-19.6-132.3l-13.7-36.5h-68.6l-13.7,36.5c-4.4,9-7.2,34.4-7.2,34.4
				l-12.4,97.9C2073.2,555.7,2115,566,2208.3,555.7z"/>
			<path class="st8" d="M2089,436.1c0,0,28.5-3,28.5-35.2"/>
			<path class="st8" d="M2191.1,434.1c0,0-28.4-3.4-28.4-35.6"/>
			<line class="st8" x1="2139" y1="400.1" x2="2139" y2="445.5"/>
			<line class="st8" x1="2101" y1="401.4" x2="2179.7" y2="398.6"/>
		</g>
		<path class="st5" d="M2085.6,322c-70.3,31.1-129.9-41-129.9-41l17.7-18.2c58.7,52,99.7,18.8,99.7,18.8L2085.6,322z"/>
		<g>
			
				<ellipse transform="matrix(4.172258e-02 -0.9991 0.9991 4.172258e-02 1784.8722 2460.1013)" class="st9" cx="2174.9" cy="299.6" rx="21.2" ry="21.2"/>
			<path class="st9" d="M2297.3,338.7l-20.3-19.1c-19.2,18.4-43.3,16.9-53.1,13.3c-18.8-8.1-24.4-27.1-28.2-38.4l-39.9,14.3
				c9.7,33.2,34.6,52.8,59.5,60.8c0.8,0.2,1.7,0.4,2.5,0.6c0.3,0.1,0.6,0.1,0.8,0.2c0.6,0.1,1.1,0.2,1.7,0.3c0.3,0.1,0.7,0.1,1,0.2
				c0.5,0.1,1,0.2,1.6,0.2c0.4,0,0.7,0.1,1.1,0.1c0.5,0.1,1,0.1,1.5,0.2c0.4,0,0.7,0.1,1.1,0.1c0.5,0,1,0.1,1.5,0.1
				c0.4,0,0.7,0,1.1,0c0.5,0,1,0,1.5,0c0.4,0,0.7,0,1.1,0c0.5,0,1,0,1.5-0.1c0.4,0,0.7,0,1.1-0.1c0.1,0,0.2,0,0.3,0l0,0
				C2257.2,369.8,2281.4,358.1,2297.3,338.7z"/>
		</g>
		<g>
			<path class="st9" d="M2297.5,300.6l8.7-12.2c3.3-4.9,6.3-8.7,8.8-7.1c2.1,1.4,0.9,5.6-1.7,9.5c-1.8,2.8-9.7,14.4-9.7,14.4
				L2297.5,300.6z"/>
			<path class="st9" d="M2301.8,306.5l14-16c3.9-4.5,7.4-7.9,9.6-5.9c1.9,1.6,0.2,5.6-2.9,9.2c-2.1,2.5-15.2,17.3-15.2,17.3
				L2301.8,306.5z"/>
			<path class="st9" d="M2308,309.7l11.5-10.5c4.4-4,8.2-7,10.3-4.8c1.7,1.8-0.5,5.6-4,8.8c-2.4,2.3-12.9,11.7-12.9,11.7L2308,309.7
				z"/>
			<path class="st9" d="M2309.3,316.4l12.8-9c4.9-3.4,9.1-5.8,10.8-3.4c1.4,2-1.2,5.5-5.1,8.2c-2.6,1.9-14.3,9.9-14.3,9.9
				L2309.3,316.4z"/>
			<g>
				<path class="st9" d="M2314.3,321.7l-17.1,17l-20.3-19.1c0,0,3.9-5.6,4.5-9.1c0.4-2.7,0.7-5.5,1.1-8.2c0.4-2.6,1.3-5.2,1.5-7.9
					c0.1-1.2-0.1-3.7,0.8-4.6c1-1,2.9-0.7,3.9,0.2c2,1.8,2,5.6,2.1,8.2c0.1,5.6,2.8,6.6,6.7,2.4c0,0,10.5,4.2,14.6,10.6
					S2314.3,321.7,2314.3,321.7z"/>
			</g>
			<path class="st10" d="M2310.8,318.5c-0.2-3.7-5.9-13.4-11.8-15"/>
			<path class="st11" d="M2293,324.6c0,0,5.8-8.9,1.4-15.7"/>
		</g>
		<g>
			
				<ellipse transform="matrix(0.9205 -0.3908 0.3908 0.9205 47.1352 836.0692)" class="st9" cx="2077.9" cy="302.2" rx="21.2" ry="21.2"/>
		</g>
		<g>
			<g>
				<g>
					<path class="st12" d="M2098,269.9l-41.3,14.9c-3.3,1.2-5.3,5-4.2,8.4l9.4,31.9c1,3.4,4.6,5.4,8,4.4l27.6-8.1"/>
				</g>
				<g>
					<path class="st12" d="M2193.5,277l22.5,36.2c1.9,3,0.9,6.9-2.3,8.6l-24.3,13.2c-3.1,1.7-7.3,0.7-9.4-2.2l-16.1-23.1"/>
				</g>
				<path class="st12" d="M2086.5,293.5l7.8,102.6l97.3-3.5c0,0-2.1-91.5,0.2-102.9c2.4-11.4-4.1-21.7-14.4-22.9
					c-6.2-0.7-24.3-2.3-37.6-3.5l-22.3,0.7l-18.2,5.5C2089.1,271.5,2083.3,282.3,2086.5,293.5"/>
				<path class="st13" d="M2133,394.2"/>
				<line class="st14" x1="2088.1" y1="312.5" x2="2089.8" y2="336.9"/>
				<line class="st14" x1="2191.4" y1="308.1" x2="2190.8" y2="332.6"/>
			</g>
			<polygon class="st12" points="2086.5,293.5 2083.6,281.9 2090.2,274.8 			"/>
			<path class="st12" d="M2191.9,289.1l1.7-12.1c0,0-6.7-6.7-9.9-8.1L2191.9,289.1z"/>
		</g>
		<g>
			<path class="st15" d="M2098.4,213.6c-1.1,6.1-5.1,10.3-9.8,14.1c-2.1,1.7-4.5,3.1-6.4,5.1c-6,6-6.6,16.4-2.1,23.6
				s13.4,11.1,21.9,10.6c5.3-0.3,14.9-1.7,19.5-4.6c0.9-0.5,8.2-7.6,7.9-8.5c0,0-9.5-44.2-9.5-44.2S2098.4,213.6,2098.4,213.6z"/>
			<path class="st15" d="M2155.4,212.2c1.4,6.1,5.6,10,10.6,13.5c2.2,1.6,4.7,2.9,6.7,4.7c6.3,5.7,7.5,16,3.3,23.5
				c-4.2,7.4-12.8,11.8-21.4,11.7c-5.3,0-15-1-19.7-3.5c-0.9-0.5-8.5-7.2-8.4-8.1c0,0,7.2-44.6,7.2-44.6S2155.4,212.2,2155.4,212.2z
				"/>
			<polygon class="st16" points="2139.8,263.4 2117.5,264.1 2119.2,244.2 2136.8,243.7 			"/>
			<path class="st17" d="M2153.6,212.7c3.6-2.9,8.3-0.2,8.5,4.4c0.1,4.6-3.5,8.4-8.1,8.6"/>
			<path class="st17" d="M2100.8,215.9c-3.8-2.7-8.3,0.2-8.2,4.8c0.1,4.6,3.9,8.2,8.6,8.1"/>
			
				<ellipse transform="matrix(0.1723 -0.985 0.985 0.1723 1506.1849 2262.5176)" class="st18" cx="2099.5" cy="235" rx="7.9" ry="4.6"/>
			
				<ellipse transform="matrix(0.9338 -0.3579 0.3579 0.9338 60.0349 787.5859)" class="st18" cx="2157.8" cy="231.6" rx="4.6" ry="7.9"/>
			<g>
				<path class="st19" d="M2155.5,216.2c0.5,19.9-11.8,36.6-27.3,37c-15.5,0.4-28.7-15.6-29.2-35.5l-0.1-3.4
					c-0.5-19.9,11.8-36.6,27.3-37c15.5-0.4,28.7,15.6,29.2,35.5L2155.5,216.2z"/>
			</g>
			
				<ellipse transform="matrix(0.9997 -2.583642e-02 2.583642e-02 0.9997 -4.9704 54.7083)" class="st20" cx="2114.7" cy="219.7" rx="2.5" ry="4.1"/>
			
				<ellipse transform="matrix(0.9997 -2.583642e-02 2.583642e-02 0.9997 -4.9482 55.2809)" class="st20" cx="2136.8" cy="219.1" rx="2.5" ry="4.1"/>
			<g>
				<path class="st21" d="M2125.8,218.3l-2.2,5.4c-0.4,1,0.1,2,1.1,2.2c1,0.2,1.8,0.3,1.8,0.3"/>
			</g>
			<path class="st22" d="M2111,211.4c2-0.4,4.7-0.4,6.9,1.3"/>
			<path class="st22" d="M2134.2,212.2c1.7-1.2,4.2-2.2,6.9-1.5"/>
			<path class="st0" d="M2132.7,230.9c0.1,3.6-2.7,6.6-6.3,6.7c-3.6,0.1-6.6-2.7-6.7-6.3L2132.7,230.9z"/>
			<g>
				<path class="st15" d="M2124.1,194.3c12.9,22.6,31.3,19.3,31.3,19.3c3.8-32.6-23.3-40.6-33.2-40.1c0.8-0.5,1.2-0.7,1.5-1
					c4.3-3,6.5-7.2,5.7-12.5c-0.8-5.1-3.9-8.3-8.6-10c-1.1-0.4-2.3-0.6-3.5-0.9l-3.7,0.1c-0.3,0.6-0.9,0.4-1.3,0.5
					c-6.3,1.8-10.3,7.3-9.9,13.5c0.4,6.1,5.1,10.8,11.7,11.6c0.3,0,0.6,0,0.7,0.4c-0.4,0.2-0.9,0.4-1.4,0.6
					c-6.3,2.6-11.4,6.8-14.9,12.7c-5.7,9.5-6.1,19.4-2,29.7C2097,218.1,2114.8,219.3,2124.1,194.3 M2104,160.2 M2104.7,165.5
					c-0.1,0.1-0.1,0.3-0.2,0.4"/>
				<circle class="st15" cx="2116.1" cy="162.7" r="13.9"/>
			</g>
		</g>
	</g>
	<g>
		<polygon class="st23" points="2117.2,264.1 2139.4,263.3 2128.9,286.6 		"/>
	</g>
</g>
<g>
	<g>
		<path class="st24" d="M1770,715.7l-4.4,54.3l-25.4-0.5c0,0-4.8-23.5-7.7-53.8H1770z"/>
		<path class="st25" d="M1737.9,757.2l-0.9,18.6c-0.1,1.6,1.2,3,2.8,3.1l8.7,0.4c1.6,0.1,3-1.2,3-2.8l0.1-4.4l21.8,4.6l17.1,3.6
			c2.2,0.5,4.4-0.9,5-2.9l0,0c0.5-1.6-0.2-3.7-1.4-4.8l-23.3-23.8c-1.2-1.1-2.9-0.8-3.7,0.6l-1,15.2L1737.9,757.2z"/>
	</g>
	<g>
		<path class="st24" d="M1544.5,631.9l-52.5,14.4l-8.1-24.1c0,0,20.4-12.5,47.9-25.6L1544.5,631.9z"/>
		<path class="st25" d="M1494.6,615.8l-17.8,5.4c-1.6,0.5-2.4,2.1-1.9,3.7l2.6,8.3c0.5,1.6,2.2,2.4,3.7,1.9l4.2-1.4l3.1,22.1
			l2.4,17.3c0.3,2.2,2.3,3.8,4.4,3.7l0,0c1.6-0.1,3.4-1.4,4-3l14.4-30c0.6-1.5-0.2-3-1.9-3.3l-14.6,4.3L1494.6,615.8z"/>
	</g>
	<path class="st26" d="M1734.5,584.7c0,0-25.1,88.5-19.7,145.9h79.2V584.1"/>
	<path class="st26" d="M1794,579.7l-4.9-121.4c0.4-10-2.8-25.6-7.3-34.6l-17.3-35.2l-36,0.6l-3.4,83.1c0,0-4.3,51.8,9.4,112.6"/>
	<path class="st26" d="M1657.7,458.9c0.8-11.4,1.3-22,9-34.2c7.7-12.2,21.8-35.2,21.8-35.2l39.9-0.4l-3.4,83.1
		c-14.3,67.6-60.6,155.5-190.2,179.9l-28.7-75.1C1506.2,576.9,1655.1,538.8,1657.7,458.9z"/>
	<circle class="st26" cx="1764.1" cy="580.5" r="29.9"/>
	<line class="st8" x1="1728.8" y1="431" x2="1724.5" y2="475"/>
</g>
<g>
	<g>
		<polygon class="st24" points="1862.8,225.4 1840.7,221.1 1830.2,250.3 1855.8,258.7 		"/>
	</g>
	<g id="A_00000054233188370362508340000014663722756920191118_">
		<path class="st24" d="M1862.8,225.4c9.2-11,12.3-24.7,12.3-24.7l-7.7-4.9l-18.2-2.4l-11.2,14.9l2.6,13.3L1862.8,225.4z"/>
		<path class="st24" d="M1866.4,210.3L1866.4,210.3c1.8,0.8,3.9,0.2,4.6-1.3l3.8-7.8c1-2.1,0.1-5.4-2.2-6.4l0,0
			c-2.3-1-5,0.9-5.8,3.1l-2.8,8.2C1863.5,207.7,1864.6,209.5,1866.4,210.3z"/>
		<path class="st24" d="M1860.3,207.8L1860.3,207.8c1.9,0.5,3.9-0.3,4.3-1.8l3.4-10.7c0.7-2.3-0.5-5.2-3.1-5.9l0,0
			c-2.6-0.6-5.3,1.3-5.7,3.7l-1.9,11.1C1857.1,205.7,1858.4,207.3,1860.3,207.8z"/>
		<path class="st24" d="M1854.1,205.3L1854.1,205.3c2,0.1,3.7-1,3.9-2.6l1.4-11.2c0.3-2.3-1.4-4.9-4-5.1l0,0
			c-2.5-0.2-4.7,2.1-4.8,4.5l-0.2,11.3C1850.6,203.7,1852.2,205.1,1854.1,205.3z"/>
		<path class="st24" d="M1848.2,206.1L1848.2,206.1c2-0.3,3.4-1.9,3.2-3.6l-1.1-11.6c-0.2-2.3-2.4-4-4.8-3.6l0,0
			c-2.4,0.3-4,2.9-3.6,5.1l2.1,11.1C1844.4,205.3,1846.2,206.4,1848.2,206.1z"/>
		<path class="st27" d="M1866.8,198.6l-2.7,7.9c-0.4,1.4,0.4,3.4,1.8,4l0,0c1.5,0.6,3.6,0.1,4.3-1.2l2.1-3.8"/>
		<path class="st28" d="M1858.9,195l-1.5,9.6c-0.2,1.8,1,3.2,2.7,3.6l0,0c1.7,0.4,3.6-0.7,4.1-2l2.7-7.8"/>
		<path class="st29" d="M1865,189.3"/>
		<path class="st28" d="M1850.6,193.9l0.4,8.6c0,1.5,1.4,2.7,3.1,2.8l0,0c1.8,0.1,3.3-0.9,3.6-2.4l1.6-9.8"/>
		<path class="st27" d="M1842.6,194.1l2,9.9c0.3,1.4,1.9,2.4,3.5,2.1l0,0c1.6-0.2,2.9-1.6,2.8-3l-0.5-10.8"/>
		<path class="st24" d="M1840.6,221.5c0,0-8.2-8-6.3-18.1c1.9-6.4,8-11.4,8-11.4c1.7-1.3,3.7-0.8,4.9,0.7c1.2,1.5,0.9,3.7-0.4,5.1
			c-0.1,0.1-2.5,3-4.8,5.8c0,0,8.2,2.2,7.7,11.7"/>
		<path class="st27" d="M1842.2,192c1.7-1.3,3.7-0.8,4.9,0.7c1.2,1.5,0.9,3.7-0.4,5.1c-0.1,0.1-2.5,3-4.8,5.8c0,0,8.2,2.2,7.7,11.7"
			/>
	</g>
</g>
<g>
	<path class="st24" d="M1667.6,432.3c2.6,4,5.4,6.9,5.2,11.6c-0.5,4.6,4.8,8.2,4.4,10.2c-0.2,1-1.1,1.7-2.1,1.9
		c-1,0.2-2-0.2-2.9-0.7c-0.8-0.6-1.5-1.3-2.1-2.1c-0.6-0.8-1.2-1.5-1.7-2.3c-0.3-0.4-0.5-0.8-0.8-1.2c-0.1-0.2-0.2-0.4-0.3-0.5
		c-0.1-0.1-0.2-0.2-0.3-0.2c-0.3,0.1-0.2,0.6-0.2,0.6l-8.8,4.1l-2.4-18.9L1667.6,432.3z"/>
	<g>
		<path class="st24" d="M1657.3,434.3l5.5,41.9c-0.6,0.5-1.2,0.8-2,0.8c-2.5-0.1-5.4-3.3-6.8-4.8l-0.3-0.3c-1.1-1.5-2.4-3.1-3.3-4.7
			c-0.3-0.4-0.5-0.8-0.7-1.2c-4.7-8.7-5.7-23.2-5.3-26.8L1657.3,434.3z"/>
		<path class="st24" d="M1657,453.8c0,0,2.4,8.6,3.5,10.1c1,1.5,7,8.7,7,8.7c0.4,0.5,0.5,1.4,0.5,2c0,0.6-0.3,1.1-0.7,1.5
			c-2.5,2.3-6.8-2.7-8.2-4.4c-3.8-4.3-6-7.1-7.1-10.9c-1.3-4.7-1.1-3.9-1.1-3.9"/>
		<path class="st24" d="M1660.2,451.6c0,0,4.4,10.8,5.6,12.2c1.2,1.4,7.9,8,7.9,8c0.4,0.4,0.7,1.3,0.7,1.9c0,0.6-0.2,1.2-0.6,1.6
			c-2.3,2.6-7-2-8.6-3.5c-4.2-3.9-6.7-6.4-8.1-10.2c-1.7-4.5-1.6-6.9-1.6-6.9"/>
		<path class="st24" d="M1666,447.2c0,0,0.2,0.9,0.6,2.3c0.8,3.2,2.3,8.8,3,9.8c1,1.6,6.7,9,6.7,9c0.4,0.5,0.5,1.4,0.4,2
			c-0.1,0.6-0.3,1.1-0.8,1.5c-2.6,2.2-6.7-3-8.1-4.7c-3.6-4.4-5.7-7.3-6.7-11.2c-1.1-4.7-0.9-3.9-0.9-3.9"/>
		<path class="st30" d="M1661.1,451.5"/>
		<path class="st27" d="M1673.4,472.2c-2.2-0.8-4.6-3.8-5.5-5c-3.6-4.4-5.7-7.3-6.7-11.2c-0.1-0.6-0.2-1-0.3-1.4"/>
		<path class="st27" d="M1663,475.6c-1.7-1.2-3.2-3-4-3.9c-3.8-4.3-6-7.1-7.1-10.9c-0.2-0.6-0.3-1.2-0.4-1.6"/>
		<path class="st27" d="M1668.1,474.4c-0.3-0.3-0.7-0.5-1-0.8c0,0-5.4-5.2-7.3-7.8c-2-2.7-2.7-6.2-3.6-9.4"/>
	</g>
</g>
<g>
	<g>
		<path class="st31" d="M1788,281.2c-17.9,6.1-37.8-7.5-45.8-13.8l-18.2,26.7c25.6,24.8,58,34,88.9,23.6
			c33.1-11.2,54.2-43.8,57.6-82.4l-44.1-6.6C1822.9,253.6,1809.1,274,1788,281.2z"/>
		<circle class="st31" cx="1733.4" cy="280.9" r="16.2"/>
	</g>
	<g>
		<g>
			<path class="st31" d="M1670.7,404l-9.3-63.1c-0.6-4.4-1.7-11.5-2.3-15.9l-5-34.3c-0.6-4.4,2.2-9.4,6.2-11.1
				c0,0,28.4-12,44.8-14.4c16.4-2.4,32.8,0.4,32.8,0.4c4.4,0.7,9.1,4.8,10.4,9l11.7,35.6c1.4,4.2,3,11.2,3.7,15.6l9.3,63.1"/>
		</g>
	</g>
	<polygon class="st31" points="1641.3,370 1610.9,351.1 1652.9,287.4 1684.3,305.9 	"/>
	<polyline class="st31" points="1643,353.6 1675.9,430.8 1635.1,445.4 1608.9,368.4 	"/>
	<circle class="st31" cx="1626.5" cy="361.4" r="18.6"/>
	<circle class="st31" cx="1669.2" cy="295.7" r="18.3"/>
	<line class="st32" x1="1661.2" y1="340.3" x2="1658.6" y2="321.9"/>
	<line class="st32" x1="1762.5" y1="317.8" x2="1759.2" y2="301"/>
</g>
<g>
	<g>
		<rect x="540.5" y="437.5" class="st33" width="213.2" height="213.2"/>
		<rect x="327.3" y="527.8" class="st34" width="213.2" height="122.9"/>
		<rect x="753.6" y="548" class="st34" width="213.2" height="102.7"/>
	</g>
	<g>
		<path class="st35" d="M586.8,509.5c0,34.2,27.5,61.9,61.4,61.9"/>
		<path class="st34" d="M593.1,534.8L593.1,534.8L593.1,534.8c-3-7.2,0.4-15.4,7.6-18.3l0,0l0,0
			C603.6,523.6,600.2,531.8,593.1,534.8z"/>
		<path class="st34" d="M573.4,527.7L573.4,527.7L573.4,527.7c7.2-3,15.4,0.4,18.3,7.6h0h0C584.6,538.3,576.4,534.9,573.4,527.7z"/>
		<path class="st34" d="M603,552.2L603,552.2L603,552.2c-3-7.2,0.4-15.4,7.6-18.3l0,0l0,0C613.5,541,610.2,549.2,603,552.2z"/>
		<path class="st34" d="M583.3,545.2L583.3,545.2L583.3,545.2c7.2-3,15.4,0.4,18.3,7.6l0,0l0,0C594.5,555.7,586.3,552.3,583.3,545.2
			z"/>
		<path class="st34" d="M622.5,565.3L622.5,565.3L622.5,565.3c-5.5-5.5-5.5-14.4,0-19.9v0l0,0C628,550.9,628,559.8,622.5,565.3z"/>
		<path class="st34" d="M601.7,566.3L601.7,566.3L601.7,566.3c5.5-5.5,14.4-5.5,19.9,0v0l0,0C616,571.7,607.2,571.8,601.7,566.3z"/>
		<path class="st34" d="M650.1,571.1L650.1,571.1L650.1,571.1c-7.6-1.6-12.4-9.1-10.8-16.7v0h0C646.9,556.1,651.8,563.6,650.1,571.1
			z"/>
		<path class="st34" d="M633.2,583.3L633.2,583.3L633.2,583.3c1.6-7.6,9.1-12.4,16.7-10.8l0,0v0
			C648.2,580.1,640.8,584.9,633.2,583.3z"/>
		<path class="st34" d="M584.1,494.4l2.2-2.3l2.3,2.2c6,5.5,6.4,14.8,0.9,20.8l-2.2,2.3l-2.3-2.2C579,509.6,578.6,500.3,584.1,494.4
			z"/>
	</g>
	<g>
		<path class="st35" d="M711.3,509.5c0,34.2-27.5,61.9-61.4,61.9"/>
		<path class="st34" d="M705,534.8L705,534.8L705,534.8c3-7.2-0.4-15.4-7.6-18.3l0,0l0,0C694.4,523.6,697.8,531.8,705,534.8z"/>
		<path class="st34" d="M724.6,527.7L724.6,527.7L724.6,527.7c-7.2-3-15.4,0.4-18.3,7.6l0,0l0,0
			C713.4,538.3,721.7,534.9,724.6,527.7z"/>
		<path class="st34" d="M695.1,552.2L695.1,552.2L695.1,552.2c3-7.2-0.4-15.4-7.6-18.3l0,0l0,0C684.5,541,687.9,549.2,695.1,552.2z"
			/>
		<path class="st34" d="M714.7,545.2L714.7,545.2L714.7,545.2c-7.2-3-15.4,0.4-18.3,7.6l0,0l0,0
			C703.5,555.7,711.8,552.3,714.7,545.2z"/>
		<path class="st34" d="M675.5,565.3L675.5,565.3L675.5,565.3c5.5-5.5,5.5-14.4,0-19.9v0v0C670.1,550.9,670.1,559.8,675.5,565.3z"/>
		<path class="st34" d="M696.4,566.3L696.4,566.3L696.4,566.3c-5.5-5.5-14.4-5.5-19.9,0h0h0C682,571.7,690.9,571.8,696.4,566.3z"/>
		<path class="st34" d="M647.9,571.1L647.9,571.1L647.9,571.1c7.6-1.6,12.4-9.1,10.8-16.7v0l0,0
			C651.1,556.1,646.3,563.6,647.9,571.1z"/>
		<path class="st34" d="M664.9,583.3L664.9,583.3L664.9,583.3c-1.6-7.6-9.1-12.4-16.7-10.8h0v0C649.8,580.1,657.3,584.9,664.9,583.3
			z"/>
		<path class="st34" d="M713.9,494.4l-2.2-2.3l-2.3,2.2c-6,5.5-6.4,14.8-0.9,20.8l2.2,2.3l2.3-2.2
			C719,509.6,719.4,500.3,713.9,494.4z"/>
	</g>
	<g>
		<path class="st34" d="M654.7,518.6h-11v-43.5h-9.8l7.5-10.7h13.3V518.6z"/>
	</g>
</g>
<g>
	<g>
		<path class="st5" d="M786.2,618.4l12.7,153.2l25.3-0.5c0,0,21-99,1.6-150.2L786.2,618.4z"/>
		
			<ellipse transform="matrix(0.2445 -0.9697 0.9697 0.2445 11.6921 1247.0461)" class="st5" cx="806.1" cy="616" rx="21.2" ry="20.1"/>
		<polygon class="st5" points="825.8,619.6 786.2,613.3 794.7,523.6 849.1,531.7 		"/>
		<path class="st6" d="M826.5,759.2l0.9,18c0.1,1.6-1.2,2.9-2.8,3l-8.7,0.3c-1.6,0.1-3-1.2-3-2.7l-0.1-4.3l-21.7,4.5l-17,3.5
			c-2.1,0.4-4.4-0.8-5-2.8l0,0c-0.5-1.5,0.2-3.6,1.4-4.6l23.2-23c1.2-1,2.9-0.8,3.7,0.6l1,14.7L826.5,759.2z"/>
	</g>
	<g>
		<path class="st5" d="M864.4,621.8L927,762.9l23.8-8.4c0,0-12.8-100.3-48-142.8L864.4,621.8z"/>
		
			<ellipse transform="matrix(0.9689 -0.2476 0.2476 0.9689 -124.3628 237.5592)" class="st5" cx="882.5" cy="613.3" rx="20.1" ry="21.2"/>
		<polygon class="st5" points="902.4,610.6 862.8,617 841.2,529.3 895.4,520.1 		"/>
		<path class="st6" d="M949.1,742.6l6.8,16.7c0.6,1.5-0.2,3.1-1.7,3.7l-8.1,3c-1.5,0.6-3.2-0.2-3.8-1.7l-1.5-4l-19.1,11l-15,8.6
			c-1.9,1.1-4.4,0.6-5.6-1.1l0,0c-0.9-1.3-1-3.5-0.2-4.8l14.4-29c0.8-1.4,2.5-1.6,3.7-0.6l5.7,13.6L949.1,742.6z"/>
	</g>
	<g>
		<path class="st7" d="M913.7,555.7c0-77.1-15.2-123.4-19.6-132.3l-13.7-36.5h-68.6l-13.7,36.5c-4.4,9-7.2,34.4-7.2,34.4l-12.4,97.9
			C778.6,555.7,820.4,566,913.7,555.7z"/>
		<path class="st8" d="M794.4,436.1c0,0,28.5-3,28.5-35.2"/>
		<path class="st8" d="M896.5,434.1c0,0-28.4-3.4-28.4-35.6"/>
		<line class="st8" x1="844.4" y1="400.1" x2="844.4" y2="445.5"/>
		<line class="st8" x1="806.4" y1="401.4" x2="885.1" y2="398.6"/>
	</g>
	<path class="st5" d="M791,322c-70.3,31.1-129.9-41-129.9-41l17.7-18.2c58.7,52,99.7,18.8,99.7,18.8L791,322z"/>
	<g>
		
			<ellipse transform="matrix(4.172264e-02 -0.9991 0.9991 4.172264e-02 544.2958 1166.6385)" class="st9" cx="880.3" cy="299.6" rx="21.2" ry="21.2"/>
		<path class="st9" d="M1002.7,338.7l-20.3-19.1c-19.2,18.4-43.3,16.9-53.1,13.3c-18.8-8.1-24.4-27.1-28.2-38.4l-39.9,14.3
			c9.7,33.2,34.6,52.8,59.5,60.8c0.8,0.2,1.7,0.4,2.5,0.6c0.3,0.1,0.6,0.1,0.8,0.2c0.6,0.1,1.1,0.2,1.7,0.3c0.3,0.1,0.7,0.1,1,0.2
			c0.5,0.1,1,0.2,1.6,0.2c0.4,0,0.7,0.1,1.1,0.1c0.5,0.1,1,0.1,1.5,0.2c0.4,0,0.7,0.1,1.1,0.1c0.5,0,1,0.1,1.5,0.1
			c0.4,0,0.7,0,1.1,0c0.5,0,1,0,1.5,0c0.4,0,0.7,0,1.1,0c0.5,0,1,0,1.5-0.1c0.4,0,0.7,0,1.1-0.1c0.1,0,0.2,0,0.3,0l0,0
			C962.6,369.8,986.8,358.1,1002.7,338.7z"/>
	</g>
	<g>
		<path class="st9" d="M1002.9,300.6l8.7-12.2c3.3-4.9,6.3-8.7,8.8-7.1c2.1,1.4,0.9,5.6-1.7,9.5c-1.8,2.8-9.7,14.4-9.7,14.4
			L1002.9,300.6z"/>
		<path class="st9" d="M1007.2,306.5l14-16c3.9-4.5,7.4-7.9,9.6-5.9c1.9,1.6,0.2,5.6-2.9,9.2c-2.1,2.5-15.2,17.3-15.2,17.3
			L1007.2,306.5z"/>
		<path class="st9" d="M1013.4,309.7l11.5-10.5c4.4-4,8.2-7,10.3-4.8c1.7,1.8-0.5,5.6-4,8.8c-2.4,2.3-12.9,11.7-12.9,11.7
			L1013.4,309.7z"/>
		<path class="st9" d="M1014.7,316.4l12.8-9c4.9-3.4,9.1-5.8,10.8-3.4c1.4,2-1.2,5.5-5.1,8.2c-2.6,1.9-14.3,9.9-14.3,9.9
			L1014.7,316.4z"/>
		<g>
			<path class="st9" d="M1019.7,321.7l-17.1,17l-20.3-19.1c0,0,3.9-5.6,4.5-9.1c0.4-2.7,0.7-5.5,1.1-8.2c0.4-2.6,1.3-5.2,1.5-7.9
				c0.1-1.2-0.1-3.7,0.8-4.6c1-1,2.9-0.7,3.9,0.2c2,1.8,2,5.6,2.1,8.2c0.1,5.6,2.8,6.6,6.7,2.4c0,0,10.5,4.2,14.6,10.6
				C1021.7,317.5,1019.7,321.7,1019.7,321.7z"/>
		</g>
		<path class="st10" d="M1016.2,318.5c-0.2-3.7-5.9-13.4-11.8-15"/>
		<path class="st11" d="M998.4,324.6c0,0,5.8-8.9,1.4-15.7"/>
	</g>
	<g>
		
			<ellipse transform="matrix(0.9205 -0.3908 0.3908 0.9205 -55.8114 330.1549)" class="st9" cx="783.3" cy="302.2" rx="21.2" ry="21.2"/>
	</g>
	<g>
		<g>
			<g>
				<path class="st1" d="M803.4,269.9l-41.3,14.9c-3.3,1.2-5.3,5-4.2,8.4l9.4,31.9c1,3.4,4.6,5.4,8,4.4l27.6-8.1"/>
			</g>
			<g>
				<path class="st1" d="M899,277l22.5,36.2c1.9,3,0.9,6.9-2.3,8.6L894.9,335c-3.1,1.7-7.3,0.7-9.4-2.2l-16.1-23.1"/>
			</g>
			<path class="st1" d="M791.9,293.5l7.8,102.6l97.3-3.5c0,0-2.1-91.5,0.2-102.9c2.4-11.4-4.1-21.7-14.4-22.9
				c-6.2-0.7-24.3-2.3-37.6-3.5l-22.3,0.7l-18.2,5.5C794.5,271.5,788.7,282.3,791.9,293.5"/>
			<path class="st13" d="M838.4,394.2"/>
			<line class="st36" x1="793.5" y1="312.5" x2="795.2" y2="336.9"/>
			<line class="st36" x1="896.8" y1="308.1" x2="896.2" y2="332.6"/>
		</g>
		<polygon class="st1" points="791.9,293.5 789,281.9 795.6,274.8 		"/>
		<path class="st1" d="M897.3,289.1L899,277c0,0-6.7-6.7-9.9-8.1L897.3,289.1z"/>
	</g>
	<g>
		<path class="st15" d="M803.8,213.6c-1.1,6.1-5.1,10.3-9.8,14.1c-2.1,1.7-4.5,3.1-6.4,5.1c-6,6-6.6,16.4-2.1,23.6
			s13.4,11.1,21.9,10.6c5.3-0.3,14.9-1.7,19.5-4.6c0.9-0.5,8.2-7.6,7.9-8.5c0,0-9.5-44.2-9.5-44.2S803.8,213.6,803.8,213.6z"/>
		<path class="st15" d="M860.8,212.2c1.4,6.1,5.6,10,10.6,13.5c2.2,1.6,4.7,2.9,6.7,4.7c6.3,5.7,7.5,16,3.3,23.5
			c-4.2,7.4-12.8,11.8-21.4,11.7c-5.3,0-15-1-19.7-3.5c-0.9-0.5-8.5-7.2-8.4-8.1c0,0,7.2-44.6,7.2-44.6S860.8,212.2,860.8,212.2z"/>
		<polygon class="st16" points="845.2,263.4 822.9,264.1 824.6,244.2 842.2,243.7 		"/>
		<path class="st17" d="M859,212.7c3.6-2.9,8.3-0.2,8.5,4.4c0.1,4.6-3.5,8.4-8.1,8.6"/>
		<path class="st17" d="M806.2,215.9c-3.8-2.7-8.3,0.2-8.2,4.8c0.1,4.6,3.9,8.2,8.6,8.1"/>
		<ellipse transform="matrix(0.1723 -0.985 0.985 0.1723 434.7126 987.2992)" class="st18" cx="804.9" cy="235" rx="7.9" ry="4.6"/>
		
			<ellipse transform="matrix(0.9338 -0.3579 0.3579 0.9338 -25.7122 324.2695)" class="st18" cx="863.2" cy="231.6" rx="4.6" ry="7.9"/>
		<g>
			<path class="st19" d="M861,216.2c0.5,19.9-11.8,36.6-27.3,37c-15.5,0.4-28.7-15.6-29.2-35.5l-0.1-3.4
				c-0.5-19.9,11.8-36.6,27.3-37c15.5-0.4,28.7,15.6,29.2,35.5L861,216.2z"/>
		</g>
		
			<ellipse transform="matrix(0.9997 -2.583642e-02 2.583642e-02 0.9997 -5.4025 21.2608)" class="st20" cx="820.1" cy="219.7" rx="2.5" ry="4.1"/>
		
			<ellipse transform="matrix(0.9997 -2.583642e-02 2.583642e-02 0.9997 -5.3803 21.8333)" class="st20" cx="842.2" cy="219.1" rx="2.5" ry="4.1"/>
		<g>
			<path class="st21" d="M831.2,218.3l-2.2,5.4c-0.4,1,0.1,2,1.1,2.2c1,0.2,1.8,0.3,1.8,0.3"/>
		</g>
		<path class="st22" d="M816.4,211.4c2-0.4,4.7-0.4,6.9,1.3"/>
		<path class="st22" d="M839.6,212.2c1.7-1.2,4.2-2.2,6.9-1.5"/>
		<path class="st0" d="M838.2,230.9c0.1,3.6-2.7,6.6-6.3,6.7c-3.6,0.1-6.6-2.7-6.7-6.3L838.2,230.9z"/>
		<g>
			<path class="st15" d="M829.5,194.3c12.9,22.6,31.3,19.3,31.3,19.3c3.8-32.6-23.3-40.6-33.2-40.1c0.8-0.5,1.2-0.7,1.5-1
				c4.3-3,6.5-7.2,5.7-12.5c-0.8-5.1-3.9-8.3-8.6-10c-1.1-0.4-2.3-0.6-3.5-0.9l-3.7,0.1c-0.3,0.6-0.9,0.4-1.3,0.5
				c-6.3,1.8-10.3,7.3-9.9,13.5c0.4,6.1,5.1,10.8,11.7,11.6c0.3,0,0.6,0,0.7,0.4c-0.4,0.2-0.9,0.4-1.4,0.6
				c-6.3,2.6-11.4,6.8-14.9,12.7c-5.7,9.5-6.1,19.4-2,29.7C802.4,218.1,820.2,219.3,829.5,194.3 M809.4,160.2 M810.1,165.5
				c-0.1,0.1-0.1,0.3-0.2,0.4"/>
			<circle class="st15" cx="821.6" cy="162.7" r="13.9"/>
		</g>
	</g>
	<g>
		<polygon class="st23" points="822.9,264.1 845.2,263.3 834.6,286.6 		"/>
	</g>
</g>
<g>
	<g>
		<path class="st24" d="M475.8,715.7l-4.4,54.3l-25.4-0.5c0,0-4.8-23.5-7.7-53.8H475.8z"/>
		<path class="st25" d="M443.7,757.2l-0.9,18.6c-0.1,1.6,1.2,3,2.8,3.1l8.7,0.4c1.6,0.1,3-1.2,3-2.8l0.1-4.4l21.8,4.6l17.1,3.6
			c2.2,0.5,4.4-0.9,5-2.9l0,0c0.5-1.6-0.2-3.7-1.4-4.8l-23.3-23.8c-1.2-1.1-2.9-0.8-3.7,0.6l-1,15.2L443.7,757.2z"/>
	</g>
	<g>
		<path class="st24" d="M250.3,631.9l-52.5,14.4l-8.1-24.1c0,0,20.4-12.5,47.9-25.6L250.3,631.9z"/>
		<path class="st25" d="M200.3,615.8l-17.8,5.4c-1.6,0.5-2.4,2.1-1.9,3.7l2.6,8.3c0.5,1.6,2.2,2.4,3.7,1.9l4.2-1.4l3.1,22.1
			l2.4,17.3c0.3,2.2,2.3,3.8,4.4,3.7l0,0c1.6-0.1,3.4-1.4,4-3l14.4-30c0.6-1.5-0.2-3-1.9-3.3l-14.6,4.3L200.3,615.8z"/>
	</g>
	<path class="st26" d="M440.2,584.7c0,0-25.1,88.5-19.7,145.9h79.2V584.1"/>
	<path class="st26" d="M499.8,579.7l-4.9-121.4c0.4-10-2.8-25.6-7.3-34.6l-17.3-35.2l-36,0.6l-3.4,83.1c0,0-4.3,51.8,9.4,112.6"/>
	<path class="st26" d="M363.5,458.9c0.8-11.4,1.3-22,9-34.2c7.7-12.2,21.8-35.2,21.8-35.2l39.9-0.4l-3.4,83.1
		c-14.3,67.6-60.6,155.5-190.2,179.9L212,576.9C212,576.9,360.9,538.8,363.5,458.9z"/>
	<circle class="st26" cx="469.9" cy="580.5" r="29.9"/>
	<line class="st8" x1="434.5" y1="431" x2="430.2" y2="475"/>
</g>
<g>
	<path class="st24" d="M373.3,432.3c2.6,4,5.4,6.9,5.2,11.6c-0.5,4.6,4.8,8.2,4.4,10.2c-0.2,1-1.1,1.7-2.1,1.9c-1,0.2-2-0.2-2.9-0.7
		c-0.8-0.6-1.5-1.3-2.1-2.1c-0.6-0.8-1.2-1.5-1.7-2.3c-0.3-0.4-0.5-0.8-0.8-1.2c-0.1-0.2-0.2-0.4-0.3-0.5c-0.1-0.1-0.2-0.2-0.3-0.2
		c-0.3,0.1-0.2,0.6-0.2,0.6l-8.8,4.1l-2.4-18.9L373.3,432.3z"/>
	<g>
		<path class="st24" d="M363.1,434.3l5.5,41.9c-0.6,0.5-1.2,0.8-2,0.8c-2.5-0.1-5.4-3.3-6.8-4.8l-0.3-0.3c-1.1-1.5-2.4-3.1-3.3-4.7
			c-0.3-0.4-0.5-0.8-0.7-1.2c-4.7-8.7-5.7-23.2-5.3-26.8L363.1,434.3z"/>
		<path class="st24" d="M362.8,453.8c0,0,2.4,8.6,3.5,10.1c1,1.5,7,8.7,7,8.7c0.4,0.5,0.5,1.4,0.5,2c0,0.6-0.3,1.1-0.7,1.5
			c-2.5,2.3-6.8-2.7-8.3-4.4c-3.8-4.3-6-7.1-7.1-10.9c-1.3-4.7-1.1-3.9-1.1-3.9"/>
		<path class="st24" d="M365.9,451.6c0,0,4.4,10.8,5.6,12.2c1.2,1.4,7.9,8,7.9,8c0.4,0.4,0.7,1.3,0.7,1.9c0,0.6-0.2,1.2-0.6,1.6
			c-2.3,2.6-7-2-8.6-3.5c-4.2-3.9-6.7-6.4-8.1-10.2c-1.7-4.5-1.6-6.9-1.6-6.9"/>
		<path class="st24" d="M371.8,447.2c0,0,0.2,0.9,0.6,2.3c0.8,3.2,2.3,8.8,3,9.8c1,1.6,6.7,9,6.7,9c0.4,0.5,0.5,1.4,0.4,2
			c-0.1,0.6-0.3,1.1-0.8,1.5c-2.6,2.2-6.7-3-8.1-4.7c-3.6-4.4-5.7-7.3-6.7-11.2c-1.1-4.7-0.9-3.9-0.9-3.9"/>
		<path class="st30" d="M366.9,451.5"/>
		<path class="st27" d="M379.2,472.2c-2.2-0.8-4.6-3.8-5.5-5c-3.6-4.4-5.7-7.3-6.7-11.2c-0.1-0.6-0.2-1-0.3-1.4"/>
		<path class="st27" d="M368.8,475.6c-1.7-1.2-3.2-3-4-3.9c-3.8-4.3-6-7.1-7.1-10.9c-0.2-0.6-0.3-1.2-0.4-1.6"/>
		<path class="st27" d="M373.9,474.4c-0.3-0.3-0.7-0.5-1-0.8c0,0-5.4-5.2-7.3-7.8c-2-2.7-2.7-6.2-3.6-9.4"/>
	</g>
</g>
<g>
	<g>
		<polygon class="st24" points="568.5,225.4 546.5,221.1 536,250.3 561.5,258.7 		"/>
	</g>
	<g id="A_00000132790050790637335970000015674308138464355263_">
		<path class="st24" d="M568.5,225.4c9.2-11,12.3-24.7,12.3-24.7l-7.7-4.9l-18.2-2.4l-11.2,14.9l2.6,13.3L568.5,225.4z"/>
		<path class="st24" d="M572.2,210.3L572.2,210.3c1.8,0.8,3.9,0.2,4.6-1.3l3.8-7.8c1-2.1,0.1-5.4-2.2-6.4l0,0c-2.3-1-5,0.9-5.8,3.1
			l-2.8,8.2C569.3,207.7,570.3,209.5,572.2,210.3z"/>
		<path class="st24" d="M566.1,207.8L566.1,207.8c1.9,0.5,3.9-0.3,4.3-1.8l3.4-10.7c0.7-2.3-0.5-5.2-3.1-5.9h0
			c-2.6-0.6-5.3,1.3-5.7,3.7l-1.9,11.1C562.8,205.7,564.2,207.3,566.1,207.8z"/>
		<path class="st24" d="M559.9,205.3L559.9,205.3c2,0.1,3.7-1,3.9-2.6l1.4-11.2c0.3-2.3-1.4-4.9-4-5.1l0,0c-2.5-0.2-4.7,2.1-4.8,4.5
			l-0.2,11.3C556.3,203.7,557.9,205.1,559.9,205.3z"/>
		<path class="st24" d="M554,206.1L554,206.1c2-0.3,3.4-1.9,3.2-3.6l-1.1-11.6c-0.2-2.3-2.4-4-4.8-3.6l0,0c-2.4,0.3-4,2.9-3.6,5.1
			l2.1,11.1C550.2,205.3,552,206.4,554,206.1z"/>
		<path class="st27" d="M572.6,198.6l-2.7,7.9c-0.4,1.4,0.4,3.4,1.8,4l0,0c1.5,0.6,3.6,0.1,4.3-1.2l2.1-3.8"/>
		<path class="st28" d="M564.7,195l-1.5,9.6c-0.2,1.8,1,3.2,2.7,3.6l0,0c1.7,0.4,3.6-0.7,4.1-2l2.7-7.8"/>
		<path class="st29" d="M570.7,189.3"/>
		<path class="st28" d="M556.4,193.9l0.4,8.6c0,1.5,1.4,2.7,3.1,2.8l0,0c1.8,0.1,3.3-0.9,3.6-2.4l1.6-9.8"/>
		<path class="st27" d="M548.4,194.1l2,9.9c0.3,1.4,1.9,2.4,3.5,2.1l0,0c1.6-0.2,2.9-1.6,2.8-3l-0.5-10.8"/>
		<path class="st24" d="M546.3,221.5c0,0-8.2-8-6.3-18.1c1.9-6.4,8-11.4,8-11.4c1.7-1.3,3.7-0.8,4.9,0.7c1.2,1.5,0.9,3.7-0.4,5.1
			c-0.1,0.1-2.5,3-4.8,5.8c0,0,8.2,2.2,7.7,11.7"/>
		<path class="st27" d="M548,192c1.7-1.3,3.7-0.8,4.9,0.7c1.2,1.5,0.9,3.7-0.4,5.1c-0.1,0.1-2.5,3-4.8,5.8c0,0,8.2,2.2,7.7,11.7"/>
	</g>
</g>
<g>
	<g>
		<path class="st31" d="M493.8,281.2c-17.9,6.1-37.8-7.5-45.8-13.8l-18.2,26.7c25.6,24.8,58,34,88.9,23.6
			c33.1-11.2,54.2-43.8,57.6-82.4l-44.1-6.6C528.7,253.6,514.9,274,493.8,281.2z"/>
		<circle class="st31" cx="439.1" cy="280.9" r="16.2"/>
	</g>
	<g>
		<g>
			<path class="st31" d="M376.4,404l-9.3-63.1c-0.6-4.4-1.7-11.5-2.3-15.9l-5-34.3c-0.6-4.4,2.2-9.4,6.2-11.1c0,0,28.4-12,44.8-14.4
				s32.8,0.4,32.8,0.4c4.4,0.7,9.1,4.8,10.4,9l11.7,35.6c1.4,4.2,3,11.2,3.7,15.6l9.3,63.1"/>
		</g>
	</g>
	<polygon class="st31" points="347.1,370 316.7,351.1 358.6,287.4 390.1,305.9 	"/>
	<polyline class="st31" points="348.8,353.6 381.6,430.8 340.9,445.4 314.7,368.4 	"/>
	<circle class="st31" cx="332.2" cy="361.4" r="18.6"/>
	<circle class="st31" cx="375" cy="295.7" r="18.3"/>
	<line class="st32" x1="367" y1="340.3" x2="364.3" y2="321.9"/>
	<line class="st32" x1="468.2" y1="317.8" x2="465" y2="301"/>
</g>
<path class="st5" d="M680.1,258.7c0,0-0.5-8.5-10.6-10.3c-7.1-1.3-14.9-7.3-19.8-8.3L635,271.2c9.8,11,21.6,15.8,29.4,17.9
	C664.4,289.1,682,259.7,680.1,258.7z"/>
<path class="st37" d="M659.3,276.9"/>
<path class="st37" d="M649.3,258.9"/>
<g>
	<g>
		<path class="st38" d="M744.7,180.8l-94.1-33.9c-0.7-0.3-1.1-1.1-0.9-1.8l4.7-13c0.3-0.7,1.1-1.1,1.8-0.9l94.1,33.9
			c0.7,0.3,1.1,1.1,0.9,1.8l-4.7,13C746.3,180.7,745.4,181.1,744.7,180.8z"/>
		<path class="st39" d="M673.5,333.3l-65.3-23.6c-1.5-0.5-2.2-2.2-1.7-3.6l3.7-10.3c0.5-1.5,2.2-2.2,3.6-1.7l65.3,23.6
			c1.5,0.5,2.2,2.2,1.7,3.6l-3.7,10.3C676.6,333.1,674.9,333.9,673.5,333.3z"/>
		<path class="st39" d="M689.1,251.8L648.2,237c-13.1-4.7-19.8-19.1-15.1-32.2l20.5-56.9l88.2,31.8l-20.5,56.9
			C716.5,249.7,702.1,256.5,689.1,251.8z"/>
		
			<rect x="648.1" y="241" transform="matrix(0.9407 0.3391 -0.3391 0.9407 129.4978 -208.2662)" class="st39" width="25.2" height="50.8"/>
		<path class="st39" d="M759.6,201.8l-5.6,15.4c-5.9,16.5-24.1,25-40.6,19.1l0,0l4.5-12.6v0c8.9,3.2,18.8-1.4,22-10.3l3.2-8.9
			c0.5-1.4-0.2-2.9-1.6-3.4l-13.7-4.9l4.5-12.6l22.4,8.1C758.9,193.1,761.1,197.7,759.6,201.8z"/>
		<path class="st39" d="M625.8,153.6l-5.6,15.4c-5.9,16.5,2.6,34.6,19.1,40.6l0,0l4.5-12.6v0c-8.9-3.2-13.6-13.1-10.3-22l3.2-8.9
			c0.5-1.4,2-2.1,3.4-1.6l13.7,4.9l4.5-12.6l-22.4-8.1C631.8,147.3,627.3,149.4,625.8,153.6z"/>
	</g>
	<path class="st38" d="M671.6,315l-50.4-18.2c-0.7-0.3-1.1-1.1-0.9-1.8l4.7-13c0.3-0.7,1.1-1.1,1.8-0.9l50.4,18.2
		c0.7,0.3,1.1,1.1,0.9,1.8l-4.7,13C673.2,314.9,672.4,315.3,671.6,315z"/>
	<path class="st0" d="M696.4,194l7.8,4.5c2.3,1.3,2.2,4.6-0.1,5.8l-8,4.2c-0.9,0.5-1.5,1.3-1.7,2.3l-1.9,8.8
		c-0.6,2.6-3.7,3.5-5.6,1.7l-6.4-6.3c-0.7-0.7-1.7-1-2.7-0.9l-9,0.9c-2.6,0.3-4.5-2.5-3.3-4.8l4-8.1c0.4-0.9,0.5-1.9,0.1-2.8
		l-3.6-8.2c-1.1-2.4,1-5,3.6-4.6l8.9,1.3c1,0.1,2-0.1,2.7-0.8l6.7-6c2-1.7,5.1-0.6,5.5,1.9l1.5,8.9
		C694.9,192.7,695.5,193.5,696.4,194z"/>
</g>
<g>
	<line class="st40" x1="660.4" y1="87.2" x2="675.6" y2="120.7"/>
	<line class="st40" x1="697.9" y1="79.9" x2="698.6" y2="116.6"/>
	<line class="st40" x1="754.9" y1="103.3" x2="732.2" y2="132.1"/>
	<line class="st40" x1="778.6" y1="133.2" x2="746.4" y2="150.7"/>
	<circle class="st39" cx="768.2" cy="160.2" r="4.6"/>
	<circle class="st39" cx="768.2" cy="120.7" r="4.6"/>
	<circle class="st39" cx="633.9" cy="111.1" r="9.1"/>
	<circle class="st39" cx="680.4" cy="74.6" r="6.4"/>
	<circle class="st39" cx="724.6" cy="104.7" r="6.4"/>
</g>
<g>
	<path class="st5" d="M684.2,272.2c0.6-9.8-7-18.9-7.4-21.5c-0.5-3.4-1.5-6.7-1.7-10.3c-0.1-1.6,0.3-4.8-0.9-6
		c-1.3-1.3-3.8-1-5.1,0.1c-2.7,2.3-2.8,7.3-2.9,10.5c-0.1,2.7-0.7,4.5-1.4,5.5c0,0-11.8,7.9-6.5,21.1l8.3,15.2"/>
	<g>
		<path class="st41" d="M664.1,251.5c0,0-11,9.6-3.8,22.3"/>
	</g>
</g>
<g>
	<circle class="st5" cx="649" cy="245.3" r="5.5"/>
	<circle class="st5" cx="643" cy="251.7" r="5.5"/>
	<circle class="st5" cx="640.9" cy="259.8" r="5.5"/>
	<circle class="st5" cx="640" cy="269.3" r="5.4"/>
	<g>
		<path class="st41" d="M639.7,264.8l7.9,5.5c2,1.5,2.2,4,1.2,5.4c-1,1.5-2.8,2.4-5,0.8l-3.8-2.4"/>
	</g>
	<g>
		<path class="st41" d="M646,249.2l8.1,5.9c1,0.6,2.1,1,3.4,0.8c1.6-0.2,2.9-1.2,3.2-2.6c0.4-1.6-0.3-3.3-1.7-4.3l-5.5-4.6"/>
	</g>
	<g>
		<path class="st41" d="M642.3,256.4l11.7,8.1c0.6,0.3,2.3,0.9,3.1,0.7c1.6-0.3,2.9-1.2,3.2-2.6c0.4-1.6-0.3-3.3-1.7-4.3l-12.6-9.2"
			/>
	</g>
	<path class="st5" d="M639.9,264.8l5-6.6l9.4,6.6c0,0,0,0,0.1,0.1c2.7,2.4,0.9,7.1-2.8,7c-0.9,0-1.9-0.3-2.9-0.9L639.9,264.8z"/>
	<g>
		<path class="st42" d="M639.4,264.4l9.3,6.5c1.2,0.7,2.6,1.4,4.2,1.1c1.2-0.2,2.4-1,3-2.4c0.6-1.6,0.1-3.6-1.6-4.8l-12-8.4"/>
	</g>
</g>
<g>
	<g>
		<path class="st7" d="M441.4,377.3c-9.1-12.4-10.3-27.4-10.4-37.5c0-3.7,0.1-7.3,0.2-10.8c0.2-6.9,0.4-13.4-0.5-19.5
			c-1.8-12.4-8.4-24-18.1-31.9l15.5-19.1c14.5,11.7,24.3,29,26.9,47.5c1.2,8.2,1,16.1,0.8,23.7c-0.1,3.4-0.2,6.7-0.2,9.9
			c0.1,10.6,2,18.2,5.7,23.3L441.4,377.3z"/>
	</g>
	
		<ellipse transform="matrix(0.9892 -0.1464 0.1464 0.9892 -34.2199 62.6722)" class="st7" cx="408.6" cy="263.8" rx="26.6" ry="27"/>
	<path class="st26" d="M377.3,245.5c2.7,18.4,17.6,31.6,33,29.3s25.8-19.2,23.1-37.6l-0.5-3.7c-2.7-18.4-17.6-31.6-33-29.3
		c-15.4,2.3-25.8,19.2-23.1,37.6L377.3,245.5z"/>
	<path class="st7" d="M369.6,234.6c3.3,22.3,21.3,38.2,39.9,35.5c18.7-2.8,31.2-23.2,27.9-45.5l-0.7-4.4
		c-3.3-22.3-21.3-38.2-39.9-35.5c-18.7,2.8-31.2,23.2-27.9,45.5L369.6,234.6z"/>
	<g>
		<g>
			<path class="st24" d="M382.5,236.5c2.3,15.3,15.4,26.2,29.3,24.1c13.8-2,23.3-16.2,21-31.6l-1.8-12
				c-2.3-15.3-15.4-26.2-29.3-24.1c-13.8,2-23.3,16.2-21,31.6L382.5,236.5z"/>
		</g>
		
			<ellipse transform="matrix(0.9892 -0.1464 0.1464 0.9892 -28.8282 63.9325)" class="st43" cx="419.8" cy="227.8" rx="2.1" ry="3.2"/>
		<ellipse transform="matrix(0.9892 -0.1464 0.1464 0.9892 -29.5456 60.731)" class="st43" cx="397.7" cy="231" rx="2.1" ry="3.2"/>
		<g>
			<path class="st28" d="M408.5,229.3l2.9,4.6c0.5,0.8,0.2,1.6-0.7,1.9l-1.6,0.6"/>
		</g>
		<path class="st44" d="M421.5,218.7c-1.9,0-4.2,0.4-5.9,2.2"/>
		<path class="st44" d="M400.1,223.1c-1.7-0.8-4-1.3-6.3-0.3"/>
		<path class="st0" d="M404.3,241.5c0.5,3.2,3.4,5.4,6.6,4.9s5.4-3.4,4.9-6.6L404.3,241.5z"/>
		<path class="st7" d="M433.8,221.8l-30.1-21.4l-24.3,29.4c0,0-7.8-39.5,21.3-43.7C400.7,186.1,427.8,180.9,433.8,221.8z"/>
	</g>
</g>
<path class="st5" d="M1974.4,258.7c0,0-0.5-8.5-10.6-10.3c-7.1-1.3-14.9-7.3-19.8-8.3l-14.8,31.1c9.8,11,21.6,15.8,29.4,17.9
	C1958.7,289.1,1976.2,259.7,1974.4,258.7z"/>
<path class="st5" d="M1974.7,258.7c0,0-0.5-8.5-10.6-10.3c-7.1-1.3-14.9-7.3-19.8-8.3l-14.8,31.1c9.8,11,21.6,15.8,29.4,17.9
	C1959,289.1,1976.6,259.7,1974.7,258.7z"/>
<path class="st37" d="M1953.9,276.9"/>
<path class="st37" d="M1943.9,258.9"/>
<g>
	<g>
		<path class="st38" d="M2039.3,180.8l-94.1-33.9c-0.7-0.3-1.1-1.1-0.9-1.8l4.7-13c0.3-0.7,1.1-1.1,1.8-0.9l94.1,33.9
			c0.7,0.3,1.1,1.1,0.9,1.8l-4.7,13C2040.8,180.7,2040,181.1,2039.3,180.8z"/>
		<path class="st39" d="M1968.1,333.3l-65.3-23.6c-1.5-0.5-2.2-2.2-1.7-3.6l3.7-10.3c0.5-1.5,2.2-2.2,3.6-1.7l65.3,23.6
			c1.5,0.5,2.2,2.2,1.7,3.6l-3.7,10.3C1971.2,333.1,1969.5,333.9,1968.1,333.3z"/>
		<path class="st39" d="M1983.6,251.8l-40.9-14.7c-13.1-4.7-19.8-19.1-15.1-32.2l20.5-56.9l88.2,31.8l-20.5,56.9
			C2011.1,249.7,1996.7,256.5,1983.6,251.8z"/>
		
			<rect x="1942.7" y="241" transform="matrix(0.9407 0.3391 -0.3391 0.9407 206.2132 -647.2932)" class="st39" width="25.2" height="50.8"/>
		<path class="st39" d="M2054.2,201.8l-5.6,15.4c-5.9,16.5-24.1,25-40.6,19.1v0l4.5-12.6v0c8.9,3.2,18.8-1.4,22-10.3l3.2-8.9
			c0.5-1.4-0.2-2.9-1.6-3.4l-13.7-4.9l4.5-12.6l22.4,8.1C2053.5,193.1,2055.6,197.7,2054.2,201.8z"/>
		<path class="st39" d="M1920.4,153.6l-5.6,15.4c-5.9,16.5,2.6,34.6,19.1,40.6v0l4.5-12.6v0c-8.9-3.2-13.6-13.1-10.3-22l3.2-8.9
			c0.5-1.4,2-2.1,3.4-1.6l13.7,4.9l4.5-12.6l-22.4-8.1C1926.4,147.3,1921.8,149.4,1920.4,153.6z"/>
	</g>
	<path class="st38" d="M1966.2,315l-50.4-18.2c-0.7-0.3-1.1-1.1-0.9-1.8l4.7-13c0.3-0.7,1.1-1.1,1.8-0.9l50.4,18.2
		c0.7,0.3,1.1,1.1,0.9,1.8l-4.7,13C1967.8,314.9,1967,315.3,1966.2,315z"/>
	<path class="st0" d="M1991,194l7.8,4.5c2.3,1.3,2.2,4.6-0.1,5.8l-8,4.2c-0.9,0.5-1.5,1.3-1.7,2.3l-1.9,8.8
		c-0.6,2.6-3.7,3.5-5.6,1.7l-6.4-6.3c-0.7-0.7-1.7-1-2.7-0.9l-9,0.9c-2.6,0.3-4.5-2.5-3.3-4.8l4-8.1c0.4-0.9,0.5-1.9,0.1-2.8
		l-3.6-8.2c-1.1-2.4,1-5,3.6-4.6l8.9,1.3c1,0.1,2-0.1,2.7-0.8l6.7-6c2-1.7,5.1-0.6,5.5,1.9l1.5,8.9
		C1989.5,192.7,1990.1,193.5,1991,194z"/>
</g>
<g>
	<line class="st40" x1="1955" y1="87.2" x2="1970.2" y2="120.7"/>
	<line class="st40" x1="1992.5" y1="79.9" x2="1993.2" y2="116.6"/>
	<line class="st40" x1="2049.5" y1="103.3" x2="2026.8" y2="132.1"/>
	<line class="st40" x1="2073.2" y1="133.2" x2="2040.9" y2="150.7"/>
	<circle class="st39" cx="2062.8" cy="160.2" r="4.6"/>
	<circle class="st39" cx="2062.8" cy="120.7" r="4.6"/>
	<circle class="st39" cx="1928.5" cy="111.1" r="9.1"/>
	<circle class="st39" cx="1974.9" cy="74.6" r="6.4"/>
	<circle class="st39" cx="2019.2" cy="104.7" r="6.4"/>
</g>
<g>
	<path class="st5" d="M1978.8,272.2c0.6-9.8-7-18.9-7.4-21.5c-0.5-3.4-1.5-6.7-1.7-10.3c-0.1-1.6,0.3-4.8-0.9-6
		c-1.3-1.3-3.8-1-5.1,0.1c-2.7,2.3-2.8,7.3-2.9,10.5c-0.1,2.7-0.7,4.5-1.4,5.5c0,0-11.8,7.9-6.5,21.1l8.3,15.2"/>
	<g>
		<path class="st41" d="M1958.7,251.5c0,0-11,9.6-3.8,22.3"/>
	</g>
</g>
<g>
	<circle class="st5" cx="1943.5" cy="245.3" r="5.5"/>
	<circle class="st5" cx="1937.6" cy="251.7" r="5.5"/>
	<circle class="st5" cx="1935.5" cy="259.8" r="5.5"/>
	<circle class="st5" cx="1934.6" cy="269.3" r="5.4"/>
	<g>
		<path class="st41" d="M1934.3,264.8l7.9,5.5c2,1.5,2.2,4,1.2,5.4c-1,1.5-2.8,2.4-5,0.8l-3.8-2.4"/>
	</g>
	<g>
		<path class="st41" d="M1940.6,249.2l8.1,5.9c1,0.6,2.1,1,3.4,0.8c1.6-0.2,2.9-1.2,3.2-2.6c0.4-1.6-0.3-3.3-1.7-4.3l-5.5-4.6"/>
	</g>
	<g>
		<path class="st41" d="M1936.9,256.4l11.7,8.1c0.6,0.3,2.3,0.9,3.1,0.7c1.6-0.3,2.9-1.2,3.2-2.6c0.4-1.6-0.3-3.3-1.7-4.3l-12.6-9.2
			"/>
	</g>
	<path class="st5" d="M1934.5,264.8l5-6.6l9.4,6.6c0,0,0,0,0.1,0.1c2.7,2.4,0.9,7.1-2.8,7c-0.9,0-1.9-0.3-2.9-0.9L1934.5,264.8z"/>
	<g>
		<path class="st42" d="M1934,264.4l9.3,6.5c1.2,0.7,2.6,1.4,4.2,1.1c1.2-0.2,2.4-1,3-2.4c0.6-1.6,0.1-3.6-1.6-4.8l-12-8.4"/>
	</g>
</g>
<path class="st37" d="M1953.6,276.9"/>
<path class="st37" d="M1943.6,258.9"/>
<g>
	<path class="st5" d="M1978.4,272.2c0.6-9.8-7-18.9-7.4-21.5c-0.5-3.4-1.5-6.7-1.7-10.3c-0.1-1.6,0.3-4.8-0.9-6
		c-1.3-1.3-3.8-1-5.1,0.1c-2.7,2.3-2.8,7.3-2.9,10.5c-0.1,2.7-0.7,4.5-1.4,5.5c0,0-11.8,7.9-6.5,21.1l8.3,15.2"/>
	<g>
		<path class="st41" d="M1958.3,251.5c0,0-11,9.6-3.8,22.3"/>
	</g>
</g>
<g>
	<circle class="st5" cx="1943.2" cy="245.3" r="5.5"/>
	<circle class="st5" cx="1937.3" cy="251.7" r="5.5"/>
	<circle class="st5" cx="1935.2" cy="259.8" r="5.5"/>
	<circle class="st5" cx="1934.2" cy="269.3" r="5.4"/>
	<g>
		<path class="st41" d="M1933.9,264.8l7.9,5.5c2,1.5,2.2,4,1.2,5.4c-1,1.5-2.8,2.4-5,0.8l-3.8-2.4"/>
	</g>
	<g>
		<path class="st41" d="M1940.3,249.2l8.1,5.9c1,0.6,2.1,1,3.4,0.8c1.6-0.2,2.9-1.2,3.2-2.6c0.4-1.6-0.3-3.3-1.7-4.3l-5.5-4.6"/>
	</g>
	<g>
		<path class="st41" d="M1936.5,256.4l11.7,8.1c0.6,0.3,2.3,0.9,3.1,0.7c1.6-0.3,2.9-1.2,3.2-2.6c0.4-1.6-0.3-3.3-1.7-4.3l-12.6-9.2
			"/>
	</g>
	<path class="st5" d="M1934.1,264.8l5-6.6l9.4,6.6c0,0,0,0,0.1,0.1c2.7,2.4,0.9,7.1-2.8,7c-0.9,0-1.9-0.3-2.9-0.9L1934.1,264.8z"/>
	<g>
		<path class="st42" d="M1933.6,264.4l9.3,6.5c1.2,0.7,2.6,1.4,4.2,1.1c1.2-0.2,2.4-1,3-2.4c0.6-1.6,0.1-3.6-1.6-4.8l-12-8.4"/>
	</g>
</g>
<g>
	<g>
		<path class="st7" d="M1735.7,377.3c-9.1-12.4-10.3-27.4-10.4-37.5c0-3.7,0.1-7.3,0.2-10.8c0.2-6.9,0.4-13.4-0.5-19.5
			c-1.8-12.4-8.4-24-18.1-31.9l15.5-19.1c14.5,11.7,24.3,29,26.9,47.5c1.2,8.2,1,16.1,0.8,23.7c-0.1,3.4-0.2,6.7-0.2,9.9
			c0.1,10.6,2,18.2,5.7,23.3L1735.7,377.3z"/>
	</g>
	
		<ellipse transform="matrix(0.9892 -0.1464 0.1464 0.9892 -20.269 252.1902)" class="st7" cx="1702.8" cy="263.8" rx="26.6" ry="27"/>
	<path class="st26" d="M1671.5,245.5c2.7,18.4,17.6,31.6,33,29.3s25.8-19.2,23.1-37.6l-0.5-3.7c-2.7-18.4-17.6-31.6-33-29.3
		c-15.4,2.3-25.8,19.2-23.1,37.6L1671.5,245.5z"/>
	<path class="st7" d="M1663.9,234.6c3.3,22.3,21.3,38.2,39.9,35.5c18.7-2.8,31.2-23.2,27.9-45.5l-0.7-4.4
		c-3.3-22.3-21.3-38.2-39.9-35.5s-31.2,23.2-27.9,45.5L1663.9,234.6z"/>
	<g>
		<g>
			<path class="st24" d="M1676.7,236.5c2.3,15.3,15.4,26.2,29.3,24.1s23.3-16.2,21-31.6l-1.8-12c-2.3-15.3-15.4-26.2-29.3-24.1
				c-13.8,2-23.3,16.2-21,31.6L1676.7,236.5z"/>
		</g>
		
			<ellipse transform="matrix(0.9892 -0.1464 0.1464 0.9892 -14.8772 253.4513)" class="st43" cx="1714.1" cy="227.8" rx="2.1" ry="3.2"/>
		
			<ellipse transform="matrix(0.9892 -0.1464 0.1464 0.9892 -15.5946 250.2498)" class="st43" cx="1692" cy="231" rx="2.1" ry="3.2"/>
		<g>
			<path class="st28" d="M1702.7,229.3l2.9,4.6c0.5,0.8,0.2,1.6-0.7,1.9l-1.6,0.6"/>
		</g>
		<path class="st44" d="M1715.7,218.7c-1.9,0-4.2,0.4-5.9,2.2"/>
		<path class="st44" d="M1694.4,223.1c-1.7-0.8-4-1.3-6.3-0.3"/>
		<path class="st0" d="M1698.5,241.5c0.5,3.2,3.4,5.4,6.6,4.9s5.4-3.4,4.9-6.6L1698.5,241.5z"/>
		<path class="st7" d="M1728.1,221.8l-30.1-21.4l-24.3,29.4c0,0-7.8-39.5,21.3-43.7C1694.9,186.1,1722,180.9,1728.1,221.8z"/>
	</g>
</g>
</svg>
