<svg xmlns="http://www.w3.org/2000/svg" viewBox="0 0 145.59 144.87"><defs><style>.cls-1{fill:#ee4d2d;}</style></defs><g id="Layer_2" data-name="Layer 2"><g id="icons"><path class="cls-1" d="M131.37,8.5a8.51,8.51,0,0,0-8.5-8.5H8.5A8.51,8.51,0,0,0,0,8.5v24H131.37ZM19,25.5a8,8,0,1,1,8-8A8,8,0,0,1,19,25.5Zm24,0a8,8,0,1,1,8-8A8,8,0,0,1,43,25.5Zm24,0a8,8,0,1,1,8-8A8,8,0,0,1,67,25.5Z"/><path class="cls-1" d="M112.39,121.44l-5.09,5.09A11.49,11.49,0,0,1,88.65,123l-.1-.21-.08-.22-18.63-50a11.48,11.48,0,0,1,15-15L131.37,75V40.52H0v95.85a8.5,8.5,0,0,0,8.5,8.5H122.87a8.49,8.49,0,0,0,7.89-5.36,12.67,12.67,0,0,1-1.76-1.45Z"/><path class="cls-1" d="M144.56,122.5l-13.19-13.19-9.08-9.08,9.08-9.08h0L133,89.49A3.5,3.5,0,0,0,132,83.81L81.9,65a3.58,3.58,0,0,0-1.43-.31,3.51,3.51,0,0,0-3.19,4.92L96,119.81a3.48,3.48,0,0,0,3.21,2.09,3.43,3.43,0,0,0,2.46-1l10.75-10.74,22.27,22.27a3.49,3.49,0,0,0,5,0l4.95-5A3.49,3.49,0,0,0,144.56,122.5Z"/></g></g></svg>