<?xml version="1.0" encoding="utf-8"?>
<!-- Generator: Adobe Illustrator 25.4.1, SVG Export Plug-In . SVG Version: 6.00 Build 0)  -->
<svg version="1.1" id="Layer_1" xmlns="http://www.w3.org/2000/svg" xmlns:xlink="http://www.w3.org/1999/xlink" x="0px" y="0px"
	 viewBox="0 0 1275.6 850.4" style="enable-background:new 0 0 1275.6 850.4;" xml:space="preserve">
<style type="text/css">
	.st0{fill:#FFFFFF;}
	.st1{fill:none;stroke:#25AB99;stroke-width:11;stroke-miterlimit:10;}
	.st2{fill:none;stroke:#25AB99;stroke-width:11;stroke-linecap:round;stroke-miterlimit:10;}
	.st3{fill:#D7DADF;}
	.st4{fill:#1E3663;}
	.st5{fill:#FFDA73;}
	.st6{fill:#FBBA0E;}
	.st7{fill:none;stroke:#FFDA73;stroke-width:4;stroke-miterlimit:10;}
	.st8{fill:#E30D13;}
	.st9{fill:#2E57A4;}
	.st10{fill:#E9EAEC;}
	.st11{fill:#25AB99;}
	.st12{fill:#F3C08E;}
	.st13{fill:#D0131F;}
	.st14{fill:#F4C18F;}
	.st15{fill:#491F18;}
	.st16{fill:#F2AC74;}
	.st17{fill:#9D3C17;}
	.st18{fill:none;stroke:#DA9364;stroke-width:1.5;stroke-linecap:round;stroke-miterlimit:10;}
	.st19{fill:#320F11;}
	.st20{fill:none;stroke:#320F11;stroke-width:1.5;stroke-linecap:round;stroke-miterlimit:10;}
	.st21{fill:none;stroke:#D1966B;stroke-width:1.5;stroke-linecap:round;stroke-miterlimit:10;}
	.st22{fill:none;}
	.st23{fill:#E7AD7D;}
	.st24{fill:none;stroke:#000000;stroke-width:1.3054;stroke-linecap:round;stroke-miterlimit:10;}
	.st25{fill:none;stroke:#DD3F54;stroke-width:2;stroke-linecap:round;stroke-linejoin:round;stroke-miterlimit:10;}
	.st26{fill:none;stroke:#E5A303;stroke-width:1.9581;stroke-linecap:round;stroke-miterlimit:10;}
	.st27{fill:#F8C1B6;}
	.st28{fill:#EEACA3;}
	.st29{fill:#F8A89F;}
	.st30{fill:none;stroke:#F39D00;stroke-width:1.9921;stroke-linecap:round;stroke-linejoin:bevel;stroke-miterlimit:10;}
	.st31{fill:#FFBCB0;}
	.st32{fill:none;stroke:#F98A7C;stroke-width:1.3354;stroke-linecap:round;stroke-miterlimit:10;}
	.st33{fill:none;stroke:#320F11;stroke-width:1.3354;stroke-linecap:round;stroke-miterlimit:10;}
	.st34{fill:#F8C1B6;stroke:#F69D8C;stroke-width:1.5;stroke-linecap:round;stroke-miterlimit:10;}
	.st35{fill:#2368B1;}
	.st36{fill:#386DB4;}
	.st37{fill:#F6BFB3;}
	.st38{fill:none;stroke:#E5A303;stroke-width:1.3354;stroke-linecap:round;stroke-miterlimit:10;}
	.st39{fill:none;stroke:#E5A303;stroke-width:2;stroke-linecap:round;stroke-miterlimit:10;}
	.st40{fill:none;stroke:#D1966B;stroke-width:1.1056;stroke-linecap:round;stroke-miterlimit:10;}
	.st41{fill:#F8C1B6;stroke:#F69D8C;stroke-width:1.5;stroke-linecap:round;stroke-linejoin:round;stroke-miterlimit:10;}
	.st42{fill:none;stroke:#000000;stroke-width:0.1541;stroke-linecap:round;stroke-miterlimit:10;}
	.st43{fill:#F2977E;}
	.st44{fill:#E8EAEC;}
	.st45{fill:none;stroke:#F2815C;stroke-width:1.5;stroke-linecap:round;stroke-miterlimit:10;}
	.st46{fill:none;stroke:#4A76BA;stroke-width:2;stroke-miterlimit:10;}
	.st47{fill:#AB4829;}
	.st48{fill:#FEA689;}
	.st49{fill:none;stroke:#802D15;stroke-width:1.5;stroke-linecap:round;stroke-miterlimit:10;}
	.st50{fill:none;stroke:#802D15;stroke-width:2;stroke-linecap:round;stroke-miterlimit:10;}
	.st51{fill:none;stroke:#1E3663;stroke-width:2;stroke-miterlimit:10;}
	.st52{fill:none;stroke:#C5CAD1;stroke-width:2;stroke-linecap:round;stroke-miterlimit:10;}
	.st53{fill:#E29661;}
	.st54{fill:none;stroke:#A06740;stroke-width:1.5;stroke-linecap:round;stroke-miterlimit:10;}
	.st55{fill:none;stroke:#A06740;stroke-width:1.2057;stroke-linecap:round;stroke-miterlimit:10;}
	.st56{fill:none;stroke:#EC9081;stroke-width:0.623;stroke-linecap:round;stroke-linejoin:round;stroke-miterlimit:10;}
	.st57{fill:#15192F;}
	.st58{fill:#E94D30;}
	.st59{fill:none;stroke:#D4412A;stroke-width:1.5;stroke-linecap:round;stroke-miterlimit:10;}
	.st60{fill:#779DD3;}
	.st61{fill:#2E1112;}
	.st62{fill:none;stroke:#2E1112;stroke-width:1.4957;stroke-linecap:round;stroke-miterlimit:10;}
	.st63{fill:none;stroke:#000000;stroke-width:0.6602;stroke-miterlimit:10;}
	.st64{fill:#F49D8D;}
	.st65{fill:none;stroke:#218E7E;stroke-width:1.5;stroke-miterlimit:10;}
</style>
<rect class="st0" width="1275.6" height="850.4"/>
<g>
	<line class="st1" x1="900.3" y1="565" x2="1009.8" y2="565"/>
	<line class="st2" x1="1093.1" y1="760" x2="993.3" y2="515"/>
	<line class="st2" x1="980.6" y1="760" x2="880.8" y2="515"/>
	<line class="st1" x1="943.8" y1="662.5" x2="1053.3" y2="662.5"/>
	<line class="st1" x1="959.2" y1="711.7" x2="1068.7" y2="711.7"/>
	<line class="st1" x1="921.9" y1="615.9" x2="1031.5" y2="615.9"/>
</g>
<path class="st3" d="M1136.6,776.4H176c-6.5,0-11.7-5.3-11.7-11.7l0,0c0-6.5,5.3-11.7,11.7-11.7h960.6c6.5,0,11.7,5.3,11.7,11.7l0,0
	C1148.3,771.2,1143.1,776.4,1136.6,776.4z"/>
<g>
	<rect x="371.5" y="581.4" class="st4" width="507" height="171.5"/>
	<g>
		<g>
			<path class="st5" d="M757.4,134.6l-262.9-0.1c-3.1,0-5.7-2.5-5.7-5.7l0-17.2c0-3.1,2.5-5.7,5.7-5.7l262.9,0.1
				c3.1,0,5.7,2.5,5.7,5.7l0,17.2C763.1,132.1,760.5,134.6,757.4,134.6z"/>
			<path class="st6" d="M723,581.5l-194.6-0.1c-1.6,0-2.8-1.3-2.8-2.8l0-38.6c0-1.6,1.3-2.8,2.8-2.8l194.6,0.1
				c1.6,0,2.8,1.3,2.8,2.8l0,38.6C725.9,580.2,724.6,581.5,723,581.5z"/>
			<path class="st6" d="M625.9,362.8L625.9,362.8c-69,0-124.9-56-124.9-125l0.1-103.3l249.9,0.1l-0.1,103.3
				C750.9,306.9,694.9,362.9,625.9,362.8z"/>
			<rect x="592.2" y="357.5" class="st6" width="67.3" height="135.4"/>
			<path class="st6" d="M815.5,173.8l0,43.8c0,46.7-37.9,84.5-84.5,84.4h0l0-35.7h0c25.3,0,45.8-20.5,45.8-45.8l0-25.2
				c0-3.9-3.1-7-7-7l-38.8,0l0-35.7l63.4,0C806.1,152.7,815.5,162.2,815.5,173.8z"/>
			<path class="st6" d="M436.4,173.7l0,43.8c0,46.7,37.8,84.5,84.4,84.5h0l0-35.7h0c-25.3,0-45.8-20.5-45.8-45.8l0-25.2
				c0-3.9,3.2-7,7-7l38.8,0l0-35.7l-63.4,0C445.8,152.5,436.4,162,436.4,173.7z"/>
		</g>
		<path class="st5" d="M699.6,537.2L552,537.1c-0.8,0-1.4-0.6-1.4-1.4l0-37.2c0-3.1,2.5-5.7,5.7-5.7l139.1,0.1
			c3.1,0,5.7,2.5,5.7,5.7l0,37.2C701,536.6,700.4,537.2,699.6,537.2z"/>
		<path class="st5" d="M639.6,193.7l14.8,2.7c4.3,0.8,6.1,6,3.1,9.3l-10.2,11.1c-1.1,1.2-1.7,2.9-1.4,4.5l2,14.9
			c0.6,4.4-3.9,7.6-7.9,5.8l-13.7-6.3c-1.5-0.7-3.2-0.7-4.7,0l-13.6,6.5c-4,1.9-8.5-1.3-7.9-5.7l1.8-14.9c0.2-1.6-0.4-3.3-1.5-4.5
			l-10.4-10.9c-3-3.2-1.4-8.5,3-9.3l14.8-2.9c1.6-0.3,3-1.4,3.8-2.8l7.2-13.2c2.1-3.9,7.6-3.9,9.8-0.1l7.4,13.1
			C636.6,192.4,638,193.4,639.6,193.7z"/>
	</g>
	<g>
		<path class="st7" d="M549.1,248c0,34.2,34.2,61.9,76.5,61.9"/>
		<path class="st5" d="M556.9,273.3L556.9,273.3L556.9,273.3c-3.7-7.2,0.5-15.4,9.4-18.3l0,0l0,0C570,262.1,565.8,270.3,556.9,273.3
			z"/>
		<path class="st5" d="M532.5,266.3L532.5,266.3L532.5,266.3c8.9-3,19.1,0.4,22.8,7.6l0,0h0C546.4,276.8,536.2,273.4,532.5,266.3z"
			/>
		<path class="st5" d="M569.2,290.7L569.2,290.7L569.2,290.7c-3.7-7.2,0.5-15.4,9.4-18.3l0,0l0,0
			C582.4,279.5,578.2,287.8,569.2,290.7z"/>
		<path class="st5" d="M544.8,283.7L544.8,283.7L544.8,283.7c8.9-3,19.1,0.4,22.8,7.6l0,0l0,0C558.7,294.2,548.5,290.8,544.8,283.7z
			"/>
		<path class="st5" d="M593.5,303.8L593.5,303.8L593.5,303.8c-6.8-5.5-6.8-14.4,0-19.9l0,0l0,0C600.3,289.4,600.4,298.3,593.5,303.8
			z"/>
		<path class="st5" d="M567.6,304.8L567.6,304.8L567.6,304.8c6.8-5.5,17.9-5.5,24.7,0v0l0,0C585.5,310.3,574.4,310.3,567.6,304.8z"
			/>
		<path class="st5" d="M627.9,309.7L627.9,309.7L627.9,309.7c-9.4-1.6-15.4-9.1-13.4-16.7v0l0,0
			C623.9,294.6,629.9,302.1,627.9,309.7z"/>
		<path class="st5" d="M606.8,321.8L606.8,321.8L606.8,321.8c2-7.6,11.3-12.4,20.7-10.8h0v0C625.5,318.6,616.2,323.5,606.8,321.8z"
			/>
		<path class="st5" d="M545.8,232.9l2.7-2.3l2.9,2.2c7.4,5.5,7.9,14.8,1.1,20.8l-2.7,2.3l-2.9-2.2
			C539.4,248.2,538.9,238.9,545.8,232.9z"/>
	</g>
	<g>
		<path class="st7" d="M701.5,248c0,34.2-34.2,61.9-76.5,61.9"/>
		<path class="st5" d="M693.7,273.3L693.7,273.3L693.7,273.3c3.7-7.2-0.5-15.4-9.4-18.3l0,0v0C680.5,262.1,684.8,270.3,693.7,273.3z
			"/>
		<path class="st5" d="M718.1,266.3L718.1,266.3L718.1,266.3c-8.9-3-19.1,0.4-22.8,7.6l0,0l0,0C704.2,276.8,714.4,273.4,718.1,266.3
			z"/>
		<path class="st5" d="M681.3,290.7L681.3,290.7L681.3,290.7c3.7-7.2-0.5-15.4-9.4-18.3l0,0h0C668.2,279.5,672.4,287.8,681.3,290.7z
			"/>
		<path class="st5" d="M705.8,283.7L705.8,283.7L705.8,283.7c-8.9-3-19.1,0.4-22.8,7.6h0h0C691.9,294.2,702.1,290.8,705.8,283.7z"/>
		<path class="st5" d="M657,303.8L657,303.8L657,303.8c6.8-5.5,6.8-14.4,0-19.9h0l0,0C650.2,289.4,650.2,298.3,657,303.8z"/>
		<path class="st5" d="M683,304.8L683,304.8L683,304.8c-6.8-5.5-17.9-5.5-24.7,0l0,0h0C665.1,310.3,676.2,310.3,683,304.8z"/>
		<path class="st5" d="M622.7,309.7L622.7,309.7L622.7,309.7c9.4-1.6,15.4-9.1,13.4-16.7v0h0C626.7,294.6,620.6,302.1,622.7,309.7z"
			/>
		<path class="st5" d="M643.8,321.8L643.8,321.8L643.8,321.8c-2-7.6-11.3-12.4-20.7-10.8l0,0v0C625.1,318.6,634.3,323.5,643.8,321.8
			z"/>
		<path class="st5" d="M704.8,232.9l-2.7-2.3l-2.9,2.2c-7.4,5.5-7.9,14.8-1.1,20.8l2.7,2.3l2.9-2.2
			C711.2,248.2,711.7,238.9,704.8,232.9z"/>
	</g>
	<g>
		<g>
			<polygon class="st8" points="681.7,725.7 658.9,723.5 649.4,744.3 617.4,688.8 649.6,670.2 			"/>
			<polygon class="st8" points="573.4,725.7 596.2,723.5 605.6,744.3 637.7,688.8 605.5,670.2 			"/>
			<path class="st6" d="M635.1,610.6L635.1,610.6c2.4,4.3,7.8,6.1,12.3,4l0,0c6.8-3.1,14.3,2.4,13.5,9.8l0,0
				c-0.6,4.9,2.7,9.5,7.6,10.5l0,0c7.3,1.5,10.2,10.4,5.2,15.9l0,0c-3.4,3.7-3.4,9.3,0,13l0,0c5,5.5,2.2,14.4-5.2,15.9h0
				c-4.9,1-8.2,5.5-7.6,10.5v0c0.9,7.4-6.7,12.9-13.5,9.8h0c-4.5-2.1-9.9-0.3-12.3,4l0,0c-3.7,6.5-13,6.5-16.7,0v0
				c-2.4-4.3-7.8-6.1-12.3-4l0,0c-6.8,3.1-14.3-2.4-13.5-9.8v0c0.6-4.9-2.7-9.5-7.6-10.5h0c-7.3-1.5-10.2-10.4-5.2-15.9l0,0
				c3.4-3.7,3.4-9.3,0-13l0,0c-5-5.5-2.2-14.4,5.2-15.9l0,0c4.9-1,8.2-5.5,7.6-10.5l0,0c-0.9-7.4,6.7-12.9,13.5-9.8v0
				c4.5,2.1,9.9,0.3,12.3-4l0,0C622,604.1,631.4,604.1,635.1,610.6z"/>
			<circle class="st5" cx="626.7" cy="657.2" r="35.5"/>
		</g>
		<g>
			<path class="st0" d="M630.3,675h-6.8v-27h-6.1l4.7-6.6h8.2V675z"/>
		</g>
	</g>
</g>
<g>
	<path class="st9" d="M400.9,623.2c0,7.1-3.3,13.6-8.6,18.3c-5.3,4.7-12.7,7.6-20.8,7.6h-156v-8.8h10v-34.1h-10v-8.8h156
		C387.7,597.3,400.9,608.9,400.9,623.2z"/>
	<g>
		<path class="st0" d="M227,638.8v-31.1h145.2c8.6,0,15.6,7,15.6,15.6c0,8.6-7,15.6-15.6,15.6H227z"/>
		<path class="st10" d="M372.2,609.2c7.8,0,14.1,6.3,14.1,14.1s-6.3,14.1-14.1,14.1H228.5v-28.1H372.2 M372.2,606.2H225.5v34.1
			h146.7c9.4,0,17.1-7.6,17.1-17.1v0C389.3,613.8,381.6,606.2,372.2,606.2L372.2,606.2z"/>
	</g>
	<path class="st9" d="M400.9,726.8c0,7.1-3.3,13.6-8.6,18.3c-5.3,4.7-12.7,7.6-20.8,7.6h-156v-8.8h10v-34.1h-10v-8.8h156
		C387.7,700.9,400.9,712.5,400.9,726.8z"/>
	<g>
		<path class="st0" d="M227,742.3v-31.1h145.2c8.6,0,15.6,7,15.6,15.6c0,8.6-7,15.6-15.6,15.6H227z"/>
		<path class="st10" d="M372.2,712.7c7.8,0,14.1,6.3,14.1,14.1c0,7.8-6.3,14.1-14.1,14.1H228.5v-28.1H372.2 M372.2,709.7H225.5v34.1
			h146.7c9.4,0,17.1-7.6,17.1-17.1v0C389.3,717.3,381.6,709.7,372.2,709.7L372.2,709.7z"/>
	</g>
	<path class="st11" d="M241.6,675c0-7.1,3.3-13.6,8.6-18.3c5.3-4.7,12.7-7.6,20.8-7.6h156v8.8h-10v34.1h10v8.8H271
		C254.8,700.9,241.6,689.3,241.6,675z"/>
	<g>
		<path class="st0" d="M270.3,690.6c-8.6,0-15.6-7-15.6-15.6c0-8.6,7-15.6,15.6-15.6h145.2v31.1H270.3z"/>
		<path class="st10" d="M414,660.9v28.1H270.3c-7.8,0-14.1-6.3-14.1-14.1s6.3-14.1,14.1-14.1H414 M417,657.9H270.3
			c-9.4,0-17.1,7.6-17.1,17.1c0,9.4,7.6,17.1,17.1,17.1H417V657.9L417,657.9z"/>
	</g>
</g>
<g>
	<g>
		<path class="st12" d="M886.4,130.7l21.3,1.7l-2.5,39.9l32.9-9.5l10.5,38l-51.2-0.9c0,0-17.7-0.6-18.8-19.1L886.4,130.7z"/>
		<g>
			<path class="st13" d="M960.3,152l-34.2,11.9c-3.4,1.2-5.9,5.1-5.6,8.6l2.3,26.9c0.3,3.6,3.5,6.3,7.1,6.1l19.5-1.1"/>
		</g>
		<g>
			<polygon class="st14" points="949.2,550.7 927.5,548 926.7,515 953.2,518.2 			"/>
			<path class="st15" d="M927.3,540.8l-17.8,9.8c-1.2,0.4-2.2,1.7-2.4,2.9l-0.1,0.7c-0.1,1.2,0.7,2.3,1.9,2.5l10,1.2l22.3,2.7
				c3.6,0.4,6.8-1.8,7.2-4.9c0.4-3.2,1.5-12.1,1.5-12.1S928.5,540.5,927.3,540.8z"/>
		</g>
		<path class="st6" d="M918.5,526.9H958l36.9-259.6h-54.4C928.4,312.8,915.5,411.5,918.5,526.9z"/>
		<g>
			<polygon class="st14" points="1159.5,456.1 1149.4,474.9 1118.9,463.8 1131.3,440.9 			"/>
			<path class="st15" d="M1142.8,472.5l2.7,19.7c-0.1,1.2,0.7,2.6,1.8,3.2l0.6,0.3c1,0.6,2.4,0.2,2.9-0.9l4.7-8.7l10.4-19.4
				c1.7-3.1,0.8-6.9-1.9-8.3c-2.7-1.5-10.6-5.7-10.6-5.7S1142.9,471.3,1142.8,472.5z"/>
		</g>
		<path class="st6" d="M1006.9,424.4c32.8,15.9,74.9,32.4,115.2,47.8l14.7-35.7l-98.5-58.1"/>
		<path class="st6" d="M1044.2,393.6l-17.1-141.4l-53.5,14.3c0,28.5,6.1,78.7,18,136.6"/>
		
			<ellipse transform="matrix(0.7071 -0.7071 0.7071 0.7071 16.8026 838.0144)" class="st6" cx="1020" cy="398.7" rx="28.8" ry="28.8"/>
		<g>
			<polyline class="st16" points="1040.7,164.9 1082.3,221.8 1061.3,239.1 1011.5,185.6 			"/>
		</g>
		<path class="st16" d="M1081.7,221.1l43.1,58.7l-19.4,10.5c0,0-33.9-31.2-47.7-55.1L1081.7,221.1z"/>
		<g>
			<polygon class="st16" points="1009.3,151.6 992,147.4 997.6,130.9 1013.1,134.5 			"/>
			<path class="st16" d="M988.6,105.9c-3.3-3.2-8.3-1-8.9,3.6c-0.6,4.6,2.7,8.8,7.2,9.3"/>
			<path class="st14" d="M1022.3,120.6c-1.5,7.8-8.8,16.3-16.3,18.9c-7.5,2.6-16.7,0.5-20.5-4.7c-3.8-5.2-5.2-15.7-3.2-23.4
				l3.4-12.8c2.1-7.7,10.1-12.5,17.8-10.7l9.9,2.3c7.7,1.8,12.8,9.6,11.3,17.4L1022.3,120.6z"/>
			<path class="st17" d="M1014.3,96c-3.3-2-8.2-3.3-12-2.1c-3.4,1.1-6.4,3-9.4,5c-3,2-4.6,4.1-8.5,2.5c-2.9-1.2-4.4-4.1-4.5-7.1
				c-0.1-3.6,2.2-7,4.9-9c5.1-3.7,8.8-4.2,15-3.8c-0.9-0.1-2.4-1.1-1.7-2.7c1.1-2.4,5.8-1.8,7.1-1.4c7.9,2.3,14.4,7.3,18.2,14.6"/>
			<path class="st17" d="M1011.7,92.4c-0.2,2.5,0.1,5.1,1.2,7.4c1.1,2.3,4.3,5,6.9,5.6c-0.9,4.2-1.8,6.1,0.3,9.4
				c0.4,0.1-4,11.5-4,11.5l0.7,5.2c0,0,6.9-2.9,10.6-10.4c8.1-14.9,1.6-25.9-4.1-29.2"/>
			<g>
				<path class="st18" d="M997.6,114l-1.8,2.4c-0.9,1.2-0.9,2.1,0.1,2s1.6-0.1,1.6-0.1"/>
			</g>
			<g>
				<path class="st19" d="M992.5,112.8c-0.4,1.7-1.6,2.9-2.7,2.7s-1.6-1.9-1.2-3.6c0.4-1.7,1.6-2.9,2.7-2.7S992.9,111,992.5,112.8z"
					/>
				<path class="st19" d="M1008.9,116.7c-0.4,1.7-1.6,2.9-2.7,2.7c-1.1-0.3-1.6-1.9-1.2-3.6c0.4-1.7,1.6-2.9,2.7-2.7
					C1008.7,113.3,1009.3,114.9,1008.9,116.7z"/>
				<path class="st20" d="M989.2,105.3c0,0,3.4-2,5.8,1.6"/>
				<path class="st20" d="M1005.5,109.2c0,0,3.4-2,5.8,1.6"/>
			</g>
			<path class="st21" d="M990.6,123.2c0,0,5.9,4.4,11.8,0.5"/>
			<path class="st14" d="M1019,113.6c4.4-1.4,7.9,2.8,6.3,7.2c-1.5,4.3-6.3,6.6-10.7,5.1"/>
			<path class="st22" d="M1017.5,123c1.3,0.6,3.8-0.9,4.6-2.8c0.9-2.3-0.8-4.5-3.2-3.9"/>
		</g>
		<path class="st23" d="M1017.7,149.2c-1,8.4-8.5,12.9-17,11.9c-8.4-1-14.7-7.1-13.6-15.6l15.5,0.3L1017.7,149.2z"/>
		<path class="st13" d="M1037.9,159c-5.3-4.1-16.8-8.8-20.4-10.2c-0.7-0.3-1.2,0.3-1.3,0.7c-1.5,7.1-8.2,10.8-15.7,9.9
			c-7.5-0.9-13.1-6.1-12.9-13.3c0-0.4-0.5-1.1-1.2-1c-3.8,0.5-16,2.4-22.1,5.1c-3.4,1.5-6.7,3.5-9.5,5.5l-22.4,127.5
			c0,0,47.6,13.2,104.2,12.6c2.1-12.1,9.4-129.1,9.4-129.1C1043.5,163.9,1040.8,161.2,1037.9,159z"/>
		<path class="st24" d="M1003.4,234.6"/>
		<line class="st25" x1="948.6" y1="191.3" x2="946.2" y2="205.3"/>
		<path class="st25" d="M982,147.2c0,0-0.8,15.9,16.9,18.1c0,0,17.2,3,22.4-12.4"/>
		<g>
			<path class="st13" d="M1045.8,166.6l24.1,29.5c2.3,2.8,1.9,6.9-0.9,9.2l-20.9,17.1c-2.8,2.3-7,1.9-9.3-0.8l-12.8-14.7"/>
		</g>
		<path class="st25" d="M1045.8,224c-1.5,1.3-3.9,1.1-5.2-0.4l-14.7-16.9"/>
		<g>
			<g>
				<g>
					<path class="st16" d="M1136,290.3c0,0-7.3-8.4-15.1-14.4l-15.5,14.4c3,3.9,2.6,10.8,2.8,13.1c0.2,2.3,0.7,4.4,0.7,6.7
						c0,1-0.4,3.1,0.3,3.9c0.8,0.9,2.4,0.8,3.3,0.1c1.8-1.4,2.1-4.6,2.3-6.7c0.5-4.7,2.7-4.6,4.1-4.2c0.8,0.2,2.3,1.1,4.6,4.2
						C1133.9,300.5,1136,290.3,1136,290.3z"/>
				</g>
				<g>
					<path class="st16" d="M1135.3,316.6c-0.8-1.2-2.4-1.6-3.6-0.9s-1.6,2.4-0.9,3.6c0.8,1.2,2.4,1.6,3.6,0.9
						C1135.7,319.4,1136.1,317.8,1135.3,316.6z"/>
					
						<rect x="1125.3" y="299.6" transform="matrix(0.8529 -0.5221 0.5221 0.8529 4.3603 634.4288)" class="st16" width="5.3" height="19.9"/>
				</g>
				<g>
					
						<ellipse transform="matrix(3.699819e-02 -0.9993 0.9993 3.699819e-02 791.9249 1441.5271)" class="st16" cx="1143.9" cy="309.9" rx="2.6" ry="2.6"/>
					
						<rect x="1134.5" y="292.7" transform="matrix(0.7327 -0.6806 0.6806 0.7327 98.0304 854.7802)" class="st16" width="5.3" height="19.9"/>
				</g>
				<g>
					<path class="st16" d="M1148.1,300.9c-1.1-1-2.8-0.9-3.7,0.2c-1,1.1-0.9,2.8,0.2,3.7s2.8,0.9,3.7-0.2
						C1149.3,303.5,1149.2,301.9,1148.1,300.9z"/>
					
						<rect x="1136.2" y="286.4" transform="matrix(0.662 -0.7495 0.7495 0.662 162.8316 953.6971)" class="st16" width="5.3" height="19.9"/>
				</g>
				<g>
					<path class="st16" d="M1141.9,314.5c-0.9-1.2-2.5-1.4-3.7-0.5c-1.2,0.9-1.4,2.5-0.5,3.7c0.9,1.2,2.5,1.4,3.7,0.5
						C1142.6,317.3,1142.8,315.6,1141.9,314.5z"/>
					
						<rect x="1131.3" y="298.2" transform="matrix(0.8013 -0.5983 0.5983 0.8013 40.9786 739.5793)" class="st16" width="5.3" height="19.9"/>
				</g>
			</g>
		</g>
		<path class="st26" d="M977.1,314.8c1.3,11.5,3.1,24.1,5.2,37.5"/>
	</g>
	<g id="E_00000137833788691311940260000004855204258539250348_">
		<path class="st12" d="M886.4,130.7c-2.1-3.3-3.7-19.8-2.5-24.3s24.1,1,24.1,1l3.7,8.2l-4.1,16.8
			C907.6,132.4,888.5,134,886.4,130.7z"/>
		<path id="Spare_Finger_00000150784146757741748850000001010793538794485410_" class="st12" d="M884.4,116.1L884.4,116.1
			c0.6,1.9,2.6,3,4.5,2.4c1.9-0.6,3-2.6,2.4-4.5l-0.7-8.3c-0.6-1.9-2.6-3-4.5-2.5c-1.9,0.5-2.6,2.5-2.6,4.5L884.4,116.1z"/>
		<path id="Spare_Finger_00000117661220845235970040000016191980364801625768_" class="st12" d="M897.8,110.1
			c0.5,1.9-0.8,3.9-2.7,4.3c-1.9,0.5-3.9-0.8-4.3-2.7l0,0l-0.7-8.2l0,0c-0.3-1.9,0.9-3.7,2.7-4.2c2-0.5,3.9,0.8,4.4,2.7L897.8,110.1
			z"/>
		<path id="Spare_Finger_00000141432261247707581090000002827180204302906810_" class="st12" d="M905,109.8c0.3,2-1.1,3.8-3,4.1
			c-2,0.3-3.8-1.1-4.1-3l0,0l-0.1-8.2l0,0c-0.2-1.9,1.1-3.6,3.1-3.9c2-0.3,3.8,1.1,4.1,3L905,109.8z"/>
		<path id="Spare_Finger_00000097499621600743154260000009507842395373151394_" class="st12" d="M911.8,113.3
			c-1.1,5.5-1.7,3.6-3.7,3.5c-2-0.1-3.6-1.7-3.5-3.7l0,0l1.4-8.1l0,0c0.2-1.9,1.8-3.4,3.7-3.3c2,0.1,3.6,1.7,3.5,3.7L911.8,113.3z"
			/>
		<path id="Spare_Finger_00000142168931859212759250000006060741723015043209_" class="st21" d="M890.6,109.9l0.4,5
			c0.2,1.8-1,3.5-2.9,3.7c-1.8,0.2-3.5-1-3.7-2.8"/>
		<path id="Spare_Finger_00000176038947652786488420000008429166484924245152_" class="st21" d="M897.9,110.9
			c-0.1,1.6-1.1,3.1-2.7,3.5c-1.9,0.5-3.9-0.8-4.3-2.7l0,0l-0.5-6.2"/>
		<path id="Spare_Finger_00000068653385112159609330000004889706198863496368_" class="st21" d="M897.5,103.3l0.3,7.7l0,0
			c0.3,2,2.1,3.3,4.1,3c2-0.3,2.8-2.1,3-4.1"/>
		<path id="Spare_Finger_00000071538723763728244810000012054475247051481747_" class="st21" d="M908.1,116.8
			c-2-0.1-3.6-1.7-3.5-3.7l0,0l0.7-6"/>
		<path id="Spare_Finger_00000082356843191141384190000003643277893949870237_" class="st12" d="M910.7,114.1c2,0,3.6,1.7,3.5,3.7
			c0,2-0.9,3-2,4.7l-6.5,9.9l-9.3-6.4l6.7-4.1l-4.9,0.4l0,0c-1.9-0.1-3.4-1.7-3.4-3.7c0-2,1.7-3.6,3.7-3.6L910.7,114.1z"/>
		<path id="Spare_Finger_00000112619299422017360350000016856889752818255235_" class="st21" d="M911.3,114.2l-14.5,0.8
			c-2,0-3.7,1.5-3.7,3.5c-0.1,1.9,1.4,3.8,3.3,3.7l4.9-0.3c0,0-3.8,2.2-5.1,7.8"/>
	</g>
</g>
<g>
	<g>
		<g>
			<polyline class="st27" points="510.6,412.7 467.8,437.7 468.3,453.9 520.4,432.8 			"/>
		</g>
		<circle class="st27" cx="515.1" cy="423" r="11.2"/>
		<path class="st15" d="M465.5,383.4c-2.4,5.7-7.2,8.9-12.7,11.5c-2.5,1.2-5.1,2.1-7.4,3.5c-7.2,4.5-10.1,14.5-7.3,22.5
			c2.8,8,10.6,13.8,19,15.3c5.3,0.9,14.9,1.7,20-0.1c1-0.3,9.6-5.6,9.7-6.5c0,0,0.6-45.1,0.6-45.1S465.5,383.4,465.5,383.4z"/>
		<path class="st15" d="M508.2,370.1c1.5,4.5,3.7,7.4,8.3,9.2c3,1.2,6.3,2,8.6,4.2c3.8,3.6,3.9,9.7,6.2,14.4
			c3.3,6.9,11.4,8.5,15.5,14.6c9.2,14,2.8,29.2,1.4,32.1c-3,6.5-8.7,11.6-15.5,13.9c-17.6,5.8-41.2-13.4-56.3-21.5l12.4-32.1
			l2.2-35.3C491.1,369.6,508.2,370.1,508.2,370.1z"/>
		<polygon class="st28" points="494.7,417.6 476.5,415.7 480.2,400.6 496.3,402.2 		"/>
		<path class="st29" d="M465.6,376.3c-2.7-2.5-6.6-0.6-6.9,3c-0.4,3.6,2.3,6.8,5.9,7.2"/>
		
			<ellipse transform="matrix(0.2938 -0.9559 0.9559 0.2938 -47.0906 718.5024)" class="st30" cx="462.7" cy="391.1" rx="6.2" ry="3.7"/>
		<g>
			
				<ellipse transform="matrix(0.1565 -0.9877 0.9877 0.1565 35.9333 798.7294)" class="st31" cx="485.6" cy="378.3" rx="30" ry="22.3"/>
		</g>
		
			<ellipse transform="matrix(9.896368e-02 -0.9951 0.9951 9.896368e-02 46.6278 811.9354)" class="st19" cx="471.7" cy="380.2" rx="3.3" ry="2"/>
		
			<ellipse transform="matrix(9.896368e-02 -0.9951 0.9951 9.896368e-02 60.5973 830.8275)" class="st19" cx="489.1" cy="382" rx="3.3" ry="2"/>
		<g>
			<path class="st32" d="M479,380l-2.1,3.8c-0.5,0.9-0.2,1.8,0.5,2s1.4,0.4,1.4,0.4"/>
		</g>
		<path class="st33" d="M469.6,373.4c1.6-0.1,3.7,0.1,5.3,1.7"/>
		<path class="st33" d="M487.7,376.3c1.5-0.7,3.5-1.3,5.5-0.5"/>
		<path class="st0" d="M484.7,390.7c-0.3,2.8-2.8,4.9-5.6,4.6s-4.9-2.8-4.6-5.6L484.7,390.7z"/>
		<g>
			<path class="st15" d="M479.4,361c7.9,18.9,29.3,18.9,29.3,18.9c6.2-25.1-11.5-34.1-22.1-34.7c0,0-26.8-0.5-24.5,32.5
				C462.4,377.7,470.9,377.8,479.4,361"/>
			<circle class="st15" cx="510.4" cy="347.5" r="11"/>
			<path class="st15" d="M499,374.8c0,0,8.5,6.5-3.3,22.6c-1.5,2-5.5,8-3.8,13.3c2.6,8.1,8.9,9.2,13.5,10.1s8.5-25.5,8.5-25.5
				l-5.3-15.3L499,374.8z"/>
		</g>
		<path class="st31" d="M501.5,378.9c3.1-1.9,6.6,0.7,6.2,4.3s-3.6,6.3-7.2,5.9"/>
		<path class="st27" d="M501.4,386.5c1.9,0.2,3.8-1.2,4-3.1c0.2-1.9-1.8-3.3-3.5-2.3l-0.8,0.4"/>
		
			<ellipse transform="matrix(0.9711 -0.2387 0.2387 0.9711 -79.3756 131.4379)" class="st30" cx="503" cy="393.4" rx="3.7" ry="6.2"/>
		<g>
			<g>
				<polygon class="st27" points="407.1,339.2 403.6,353 426.6,360.5 427.7,344 				"/>
				<g>
					<g>
						<path class="st27" d="M410.7,318.6c0,0-2.9,10.7-3.6,20.6l20.6,4.8c1.6-4.6,7.5-8.2,9.3-9.7c1.8-1.4,3.3-3.1,5.2-4.3
							c0.8-0.6,2.8-1.4,3.1-2.5c0.3-1.2-0.7-2.5-1.7-2.8c-2.2-0.7-5,0.8-6.9,1.8c-4.2,2.2-5.4,0.4-5.8-1c-0.2-0.8-0.4-2.5,0.9-6.2
							C420.3,314.6,410.7,318.6,410.7,318.6z"/>
					</g>
					<g>
						<circle class="st27" cx="435.3" cy="305.6" r="2.6"/>
						
							<rect x="428.5" y="304.6" transform="matrix(-0.9089 -0.417 0.417 -0.9089 691.8578 780.3547)" class="st27" width="5.3" height="19.9"/>
					</g>
					<g>
						<circle class="st27" cx="422.5" cy="301" r="2.6"/>
						
							<rect x="417.6" y="300.8" transform="matrix(-0.9734 -0.2289 0.2289 -0.9734 758.2236 709.4431)" class="st27" width="5.3" height="19.9"/>
					</g>
					<g>
						<circle class="st27" cx="415.4" cy="302.9" r="2.6"/>
						
							<rect x="411.4" y="302.9" transform="matrix(-0.9913 -0.1319 0.1319 -0.9913 783.22 677.4985)" class="st27" width="5.3" height="19.9"/>
					</g>
					<g>
						<circle class="st27" cx="430" cy="301" r="2.6"/>
						
							<rect x="424" y="300.4" transform="matrix(-0.9434 -0.3318 0.3318 -0.9434 726.1918 744.7371)" class="st27" width="5.3" height="19.9"/>
					</g>
				</g>
			</g>
			<path class="st34" d="M429.2,321.4c0,0-7.6-5-16-2.3"/>
			<path class="st34" d="M429.5,327.7c0,0-5.6-0.9-8.9,5.4"/>
		</g>
		<g>
			<polyline class="st6" points="388.7,409.7 398.1,344.1 434.5,352.1 419.4,411.4 			"/>
			<circle class="st6" cx="404.1" cy="411" r="15.4"/>
		</g>
		<g>
			<polygon class="st6" points="399.8,425.9 416.8,401.7 473,427.3 461.7,456.7 			"/>
			<circle class="st6" cx="465.9" cy="441.4" r="15.9"/>
		</g>
		<polygon class="st27" points="503,522.2 455,522.2 458.1,486.1 504.5,486.1 		"/>
		<path class="st35" d="M476.1,570.5c11.8-7.3,22.9-17.7,38.3-28.8l-51.2-36.5c0,0-6.6,3.5-31,18.3"/>
		<path class="st36" d="M503.4,511.5c0,0,19,32,13,54l-60.2-17.3l11.8-40.9L503.4,511.5z"/>
		<g>
			<g>
				<polygon class="st37" points="335.3,675.7 317.7,668.9 324.7,639.2 346.2,647.5 				"/>
				<path class="st15" d="M317.7,668.9l-20.9,4c-1.1,0.1-2.4,1-2.8,2.1l-0.2,0.6c-0.4,1.1,0.1,2.3,1.2,2.7l8.8,3.4l19.7,7.6
					c3.2,1.2,6.6-0.1,7.7-2.8c1.1-2.8,4.1-10.7,4.1-10.7L317.7,668.9z"/>
			</g>
			<path class="st36" d="M359.2,519.9c-15.7,38.5-27.2,71.4-39.7,122.2l30.1,11.6L403,538.1"/>
		</g>
		<g>
			<g>
				<polygon class="st37" points="388.2,726.9 369.3,726.9 365.2,696.6 388.2,696.6 				"/>
				<path class="st15" d="M369.3,726.9l-18.1,11.2c-1,0.5-1.9,1.8-1.9,2.9v0.7c0,1.1,0.9,2.1,2.1,2.1h9.4H382c3.4,0,6.2-2.4,6.2-5.4
					c0-3,0-11.5,0-11.5H369.3z"/>
			</g>
			<path class="st35" d="M378.3,571.5c-8.2,40.7-13.9,78.8-16.7,131l31.8,5.8l31.3-127"/>
		</g>
		<path class="st35" d="M432.1,523.5c-17,10.3-34.7,22.8-46.1,35.7l36.3,40.4c16.7-8.3,33.2-16.4,53.7-29"/>
		<circle class="st35" cx="404.7" cy="578.7" r="27.2"/>
		<circle class="st36" cx="486.4" cy="556.8" r="31.3"/>
		<path class="st36" d="M377.8,558.7c27.6,10,54.7,19.9,105.6,29.3c2.7-35.7,6.9-58,6.9-58s-66.6-27-108.3-25.5"/>
		<circle class="st36" cx="383.8" cy="531.8" r="27.2"/>
		<polygon class="st36" points="458.2,507.8 464.2,520.7 468,507.3 459.7,502.6 		"/>
		<g>
			<path class="st6" d="M470.8,421.4c-0.1,1.5,1,2.7,2.5,2.8l20.6,1.2c1.5,0.1,2.7-1,2.8-2.5l0.3-5.7c0.1-1.5-1-2.7-2.5-2.8
				l-20.6-1.2c-1.5-0.1-2.7,1-2.8,2.5L470.8,421.4z"/>
		</g>
		<path class="st6" d="M448.6,448c2.5-8.8,5.9-17.2,7.9-22c1.5-4,4.8-4.2,4.8-4.2l9.6-0.6l25.9-0.1l10.4,2.1
			c8.4,1.1,13.6,9.6,11.5,19c-2.1,9.3-12.8,58.1-12.8,58.1l-50.7,0.1l1.1-27.8C452.7,468.4,445.7,458.2,448.6,448z"/>
		<path class="st38" d="M456.3,472.7c-3.6-4.4-10.6-14.6-7.7-24.7c1.9-6.6,4.2-12.9,6.2-17.7"/>
		<g>
			<g>
				<g>
					<path class="st27" d="M439.3,512c-18.7-7.4-31.7-22.3-33-23.4l12-14.6l-0.1-0.1c0.1,0.1,27.6,13,27.6,13L439.3,512z"/>
				</g>
			</g>
		</g>
		<g>
			<g>
				<path class="st6" d="M477.6,480.1c9.6-5.6,13.2-26.4,11.2-35.1l31.4-2.9c3.3,27.9-6.4,52.5-27.7,66.9
					c-22.8,15.4-53.3,13.2-79.1-3.1l16.9-30.8C449.2,484.7,462.4,488.9,477.6,480.1z"/>
				<circle class="st6" cx="504.3" cy="441.9" r="15.9"/>
			</g>
		</g>
		<path class="st39" d="M471.7,482.9c0,0,20.5-6.8,17.1-37.9"/>
	</g>
	<g>
		<g>
			<g>
				<g>
					<path class="st27" d="M415.9,467.8c0,0-0.5-5.7-7.3-6.8c-4.8-0.7-10.2-4.7-13.5-5.3l-9.8,21.9c6.8,7.3,15.2,9.7,20.5,10.9
						C405.8,488.6,417.2,468.5,415.9,467.8z"/>
					<g>
						<path class="st27" d="M418.9,476.9c0.2-6.6-5.1-12.7-5.4-14.4c-0.4-2.3-1.1-4.5-1.3-6.9c-0.1-1.1,0.1-3.2-0.7-4
							c-0.9-0.9-2.6-0.6-3.4,0.2c-1.8,1.6-1.7,5-1.8,7.2c0,1.9-0.4,3-0.9,3.8c0,0-7.9,5.5-4,14.4l-2.2,9.4l9.6,3.2"/>
					</g>
					<circle class="st27" cx="393.9" cy="459.3" r="3.7"/>
					<circle class="st27" cx="390" cy="463.7" r="3.7"/>
					<circle class="st27" cx="388.7" cy="469.3" r="3.7"/>
					<circle class="st27" cx="388.3" cy="475.7" r="3.6"/>
					<path class="st40" d="M404.7,475.5"/>
					<path class="st40" d="M401.3,462.4"/>
				</g>
			</g>
		</g>
		<path class="st41" d="M387.9,466.4c0,0,8.9,5.9,10.9,5.7"/>
		<path class="st41" d="M387,472.8c0,0,8.9,5.9,10.9,5.7"/>
		<path class="st41" d="M391.1,460.2c0,0,8.9,5.9,10.9,5.7"/>
	</g>
</g>
<path class="st42" d="M776.9,485.5"/>
<g>
	<g>
		<path class="st43" d="M774.1,383.1c0,8.5,6.9,22.7,15.5,22.7s15.5-14.2,15.5-22.7l-15.5-1.6L774.1,383.1z"/>
		<g>
			<g>
				<g>
					<g>
						<polygon class="st43" points="921.1,726.5 940.8,721.1 937,690.3 913,696.9 						"/>
						<path class="st15" d="M940,714.4l17.8,6.7c1.1,0.2,2.3,1.2,2.6,2.3l0.2,0.6c0.3,1.1-0.3,2.2-1.4,2.5l-9.1,2.5l-20.3,5.6
							c-3.3,0.9-6.6-0.7-7.4-3.6c-0.8-2.9-3-11.1-3-11.1S938.9,714.2,940,714.4z"/>
					</g>
					<path class="st44" d="M926.8,569.8c0,0,14.1,86.1,19.9,127l-38.3,9.3l-35.9-115.4"/>
					<path class="st44" d="M892.1,602.2l-115.4-39.4l23.2-47.6c26.7,5.2,59.2,13.9,111.4,35.7"/>
					
						<ellipse transform="matrix(0.9106 -0.4133 0.4133 0.9106 -157.594 423.4243)" class="st44" cx="900" cy="576" rx="27.6" ry="27.6"/>
				</g>
				<g>
					<g>
						<polygon class="st43" points="758.9,704.9 774.1,718.5 797.9,698.6 779.2,682 						"/>
						<path class="st15" d="M779.3,714.2l4.1,18.6c0.5,1,0.2,2.6-0.5,3.4l-0.4,0.5c-0.8,0.9-2.1,0.9-2.9,0.2l-7-6.3l-15.7-14
							c-2.5-2.3-3-5.9-1-8.1c2-2.2,7.6-8.6,7.6-8.6S778.8,713.1,779.3,714.2z"/>
					</g>
					<path class="st44" d="M902.1,612.5c-24.3,25-73.2,70.6-104.4,97.7L769,683.1l77.4-92.9"/>
					<path class="st44" d="M868.5,615.1l-103.1-32.8l24.7-54.2c26.6,9.8,50.3,19.3,102.4,41.1"/>
					<path class="st44" d="M903.2,577.6c9.3,12.1,7,29.4-5.1,38.6c-12.1,9.3-29.4,7-38.6-5.1c-9.3-12.1-7-29.4,5.1-38.6
						C876.7,563.2,894,565.5,903.2,577.6z"/>
				</g>
				<g>
					<circle class="st44" cx="779.3" cy="555.8" r="29.8"/>
					<rect x="749.5" y="514.8" class="st44" width="59.2" height="42.3"/>
				</g>
			</g>
		</g>
		<g>
			<g>
				<path class="st43" d="M898.3,439.8c-17.7,1.4-26.8-10.2-33.7-17.3l-24.8,24.8c19.1,21.4,40,27.1,61.5,24.3
					c31.6-7.7,47.4-34.2,51.1-59.9l-16.4-8.5C927.5,424.3,913.6,437.2,898.3,439.8z"/>
			</g>
			<path class="st43" d="M850.9,451.2c9.7,0,17.6-7.8,17.6-17.6c0-9.7-7.8-17.6-17.6-17.6c-9.7,0-17.6,7.8-17.6,17.6
				C833.3,443.3,841.1,451.2,850.9,451.2z"/>
		</g>
		<g>
			<g>
				<g>
					<g>
						<path class="st43" d="M961.8,397.2c0,0-4.4,9-9.9,16.1l-16.6-8.7c1.2-4.5-0.5-10.4-0.8-12.5c-0.4-2-0.4-4-0.9-6
							c-0.2-0.9-1-2.6-0.6-3.5c0.5-1,1.9-1.3,2.8-0.9c1.9,0.8,2.9,3.5,3.6,5.3c1.5,4,3.4,3.5,4.5,2.7c0.6-0.4,1.7-1.5,3.1-4.8
							C957.7,388.8,961.8,397.2,961.8,397.2z"/>
					</g>
					<g>
						<path class="st43" d="M955.2,374.3c-0.4,1.3-1.7,2-3,1.6c-1.3-0.4-2-1.7-1.6-3c0.4-1.3,1.7-2,3-1.6
							C954.8,371.7,955.5,373.1,955.2,374.3z"/>
						
							<rect x="947.9" y="373.3" transform="matrix(0.9578 0.2874 -0.2874 0.9578 149.9426 -256.9677)" class="st43" width="4.8" height="18"/>
					</g>
					<g>
						<path class="st43" d="M966.3,379.4c-0.6,1.2-2.1,1.6-3.2,1c-1.2-0.6-1.6-2.1-1-3.2c0.6-1.2,2.1-1.6,3.2-1
							C966.5,376.7,967,378.2,966.3,379.4z"/>
						
							<rect x="957.6" y="377.2" transform="matrix(0.882 0.4712 -0.4712 0.882 295.2062 -406.7848)" class="st43" width="4.8" height="18"/>
					</g>
					<g>
						<path class="st43" d="M970,385.1c-0.7,1.1-2.2,1.4-3.3,0.7c-1.1-0.7-1.4-2.2-0.7-3.3c0.7-1.1,2.2-1.4,3.3-0.7
							C970.4,382.5,970.7,384,970,385.1z"/>
						
							<rect x="960.6" y="382.3" transform="matrix(0.8313 0.5558 -0.5558 0.8313 379.9618 -469.2505)" class="st43" width="4.8" height="18"/>
					</g>
					<g>
						<path class="st43" d="M961.4,374.6c-0.5,1.2-1.9,1.8-3.1,1.3c-1.2-0.5-1.8-1.9-1.3-3.1c0.5-1.2,1.9-1.8,3.1-1.3
							C961.3,372,961.9,373.4,961.4,374.6z"/>
						
							<rect x="953.5" y="373.1" transform="matrix(0.9274 0.3742 -0.3742 0.9274 212.4007 -329.8984)" class="st43" width="4.8" height="18"/>
					</g>
				</g>
			</g>
			<path class="st45" d="M947.6,388c0,0,8.1,1.2,12.2,8"/>
			<path class="st45" d="M943.6,392.2c0,0,4.4,2.7,2.8,9"/>
		</g>
		<path class="st36" d="M830.6,391.4c-6.2-3.1-18.7-5.7-22.6-6.4c-0.8-0.1-1.2,0.6-1.2,1c-0.2,7.5-10,12.9-17.8,13.4
			c-7.8,0.5-19.3-6.9-20.5-14.3c-0.1-0.4-0.7-1.1-1.4-0.8c-3.7,1.3-15.7,5.5-21.4,9.5c-3.2,2.1-6.1,4.8-8.6,7.4l6.6,119.7l94.2-0.5
			l2.2-122.8C837.3,395.3,834.1,393.1,830.6,391.4z"/>
		<g>
			<path class="st36" d="M840.1,397.6l34.6,29c0.3,0.3,0.4,0.8,0.1,1.1l-25.5,30.5c-0.3,0.3-0.8,0.4-1.1,0.1l-20.5-16.1"/>
		</g>
		<line class="st46" x1="837" y1="431.2" x2="839.4" y2="451.2"/>
		<polygon class="st43" points="725.3,420.9 757.2,440.3 717.8,501.2 691.4,488.5 		"/>
		<path class="st43" d="M700.8,478.3c-7.6,2.7-11.6,11.1-8.8,18.8c2.7,7.6,11.1,11.6,18.8,8.8c7.6-2.7,11.6-11.1,8.8-18.8
			C716.8,479.5,708.4,475.5,700.8,478.3z"/>
		<g>
			<path class="st36" d="M737.2,401l-25.1,37.5c-0.2,0.4-0.1,0.8,0.2,1.1l33,22.1c0.4,0.2,0.8,0.1,1.1-0.2l15.1-21.2"/>
		</g>
		<path class="st46" d="M737.2,455.2l5.9,4c1.1,0.7,2.6,0.5,3.4-0.6l14.2-19.9"/>
		<polyline class="st43" points="775.3,484.4 706,478.1 703.2,506.1 776.4,505.9 		"/>
		<polygon class="st43" points="780.1,384.2 799.1,384.2 796.8,366.7 782.3,366.7 		"/>
		<g>
			<g>
				<circle class="st47" cx="788.9" cy="312.9" r="8.8"/>
				<path class="st47" d="M767.6,351.5c0,0-4.8-15.8,1-24.9s13.7-9.3,13.7-9.3l-6.8,36.2L767.6,351.5z"/>
				<path class="st47" d="M810.4,351.5c0,0,4.8-15.8-1-24.9s-13.7-9.3-13.7-9.3l6.8,36.2L810.4,351.5z"/>
				<path class="st43" d="M772.9,345c-3.9-2.3-8.1,0.9-7.6,5.4c0.5,4.5,4.5,7.7,9,7.2"/>
				<path class="st43" d="M804.5,345c3.9-2.3,8.1,0.9,7.6,5.4c-0.5,4.5-4.5,7.7-9,7.2"/>
				<g>
					<g>
						<path class="st48" d="M772.8,359.3c0.3,9.2,7.6,16.7,16.2,16.7c8.6,0,15.9-7.5,16.2-16.7l0.1-3.3c0.3-9.2-7-16.7-16.2-16.7
							h-0.3c-9.2,0-16.5,7.5-16.2,16.7L772.8,359.3z"/>
					</g>
					<ellipse class="st48" cx="788.9" cy="340.7" rx="18.4" ry="21.3"/>
					<path class="st48" d="M781,346l2.1,11.4c0,0-10.3,3.8-10.5-0.4c-0.1-4.2-1.4-10.3-1.4-10.3L781,346z"/>
					<path class="st48" d="M796.8,346l-2.1,11.4c0,0,10.3,3.8,10.5-0.4c0.1-4.2,1.4-10.2,1.4-10.2L796.8,346z"/>
				</g>
				<path class="st47" d="M803.6,327.8c0,0-11.3,3.6-29.4,0c-2.1-8.4,5.2-16.2,14.7-13.2C788.8,314.6,807,310.3,803.6,327.8z"/>
				<path class="st47" d="M772.6,355.6c0,0,0.8,6.1,2.9,9.5c2.1,3.4,4.9,4.7,7.5,4.7s4.4-2.1,3.9-6.7c0,0,0.5,0.6,1.9,0.6
					c1.4,0,1.9-0.6,1.9-0.6c-0.5,4.6,1.3,6.7,3.9,6.7c2.6,0,5.4-1.3,7.5-4.7c2.1-3.4,2.9-9.5,2.9-9.5l0,0.1l-0.3,8.7
					c-0.2,6.4-5.6,11.7-12.1,11.7H785c-6.4,0-11.9-5.3-12.1-11.7L772.6,355.6L772.6,355.6z"/>
				<path class="st49" d="M780.3,314.8c2.4-1,5.3-1.2,8.5-0.3c0,0,4.5-1.1,8.6,0.1"/>
			</g>
			<path class="st49" d="M791.9,328.3c0.9-1.6,1.5-3.5,0.9-5.2c-0.2-0.4-0.4-0.8-0.5-1.3c-0.2-0.9,0.2-1.8,0.4-2.8
				c0.2-0.9-0.4-2.5-1.4-3.2"/>
			<path class="st49" d="M780.7,328c-0.7-0.4-1.3-1.1-1.3-2c0-1,0.7-1.9,0.4-2.8c-0.1-0.5-0.6-0.9-0.9-1.4c-0.7-0.9-1-2.1-0.9-3.2"
				/>
			<path class="st49" d="M802.3,327.4c0.6-0.8,0.9-1.7,0.9-2.7c0-0.7-0.2-1.4-0.2-2.1c0-0.8,0.3-1.6,0.1-2.4"/>
			<g>
				<path class="st45" d="M789.5,350.8l0.6,2.7c0.3,1.2-0.2,2.1-1.1,2.1s-1.6-0.1-1.6-0.1"/>
			</g>
			<ellipse cx="797.7" cy="348.6" rx="1.7" ry="2.9"/>
			<path class="st50" d="M782,343.6c0,0-2.6-2.8-5.3,0"/>
			<path class="st50" d="M800.6,343.6c0,0-2.6-2.8-5.3,0"/>
			<ellipse cx="780.1" cy="348.6" rx="1.7" ry="2.9"/>
			<g>
				<path class="st0" d="M784.2,359.7c3.4,0.1,6.1,0,9.5-0.1c0,0,0.5,4.4-3.7,5.6C784.1,366.3,784.2,359.7,784.2,359.7z"/>
			</g>
		</g>
		<g>
			<g>
				<path class="st51" d="M802.8,400.2c2.9,17.9-2.5,36.6,1.3,54.3"/>
				<circle class="st4" cx="804" cy="452.8" r="3.1"/>
			</g>
			<g>
				<path class="st51" d="M775.5,400.2c-2.9,17.9,2.5,36.6-1.3,54.3"/>
				<circle class="st4" cx="774.4" cy="452.8" r="3.1"/>
			</g>
			<path class="st9" d="M789.6,405.5l-15.6-22.6c0,0-2.2-1.6-6.9-1.2c-5.9,0.5-7.2,5.2-10.7,6.3c-3.5,1.1-3,0.7-7.5,3.9
				C770.2,403.6,789.6,405.5,789.6,405.5z"/>
			<path class="st9" d="M789.6,405.5l15.6-22.6c0,0,2.2-1.6,6.9-1.2c5.9,0.5,7.2,5.2,10.7,6.3c3.5,1.1,3.5,0.3,8,3.5
				C809.5,403.2,789.6,405.5,789.6,405.5z"/>
		</g>
		<polygon class="st0" points="797.5,394 781.8,394 789.6,405.5 		"/>
		<g>
			<g>
				<g>
					<g>
						<path class="st43" d="M779.8,482.5c0,0,3.8-4.3,9.9-1c4.3,2.3,11,2.4,14,3.9l-5.4,23.4c-9.8,1.7-18-1.4-23-3.6
							C775.3,505.2,778.3,482.3,779.8,482.5z"/>
						<g>
							<path class="st43" d="M771.9,488c3.8-5.4,11.7-7.1,13-8.3c1.7-1.6,3.6-2.9,5.2-4.7c0.7-0.8,1.9-2.6,3-2.8
								c1.2-0.2,2.4,1.1,2.6,2.2c0.4,2.4-1.6,5-2.9,6.8c-1.1,1.5-1.5,2.6-1.6,3.5c0,0,3,9.2-5.5,13.9l-3.9,8.9l-9.6-3.2"/>
						</g>
						<circle class="st43" cx="802.4" cy="488.9" r="3.7"/>
						<circle class="st43" cx="802.8" cy="494.8" r="3.7"/>
						<circle class="st43" cx="800.6" cy="500" r="3.7"/>
						<circle class="st43" cx="797.1" cy="505.4" r="3.6"/>
						<path class="st40" d="M784,495.4"/>
						<path class="st40" d="M794.7,487"/>
					</g>
				</g>
			</g>
			<path class="st45" d="M803,498.3c0,0-10.6-0.6-12.1-2"/>
			<path class="st45" d="M799.8,503.9c0,0-10.6-0.6-12.1-2"/>
			<path class="st45" d="M804.2,491.4c0,0-10.6-0.6-12.1-2"/>
		</g>
	</g>
	<polyline class="st52" points="817.7,560.1 878.5,581.4 884.7,629.9 	"/>
</g>
<g>
	<g>
		<g>
			<polygon class="st53" points="367.9,164.1 350.6,160.8 342.4,183.6 362.4,190.1 			"/>
		</g>
		<g id="A_00000103977341694074943300000013690678242128529323_">
			<path class="st53" d="M367.9,164.1c7.2-8.6,9.6-19.4,9.6-19.4l-6-3.8l-14.2-1.9l-8.8,11.7l2,10.4L367.9,164.1z"/>
			<path class="st53" d="M370.7,152.3L370.7,152.3c1.4,0.6,3,0.2,3.6-1l3-6.1c0.8-1.6,0.1-4.2-1.7-5v0c-1.8-0.8-3.9,0.7-4.5,2.4
				l-2.2,6.4C368.4,150.3,369.3,151.7,370.7,152.3z"/>
			<path class="st53" d="M366,150.3L366,150.3c1.5,0.4,3-0.2,3.4-1.4l2.7-8.4c0.6-1.8-0.4-4.1-2.5-4.6h0c-2-0.5-4.1,1-4.5,2.9
				l-1.5,8.7C363.4,148.7,364.5,149.9,366,150.3z"/>
			<path class="st53" d="M361.1,148.4L361.1,148.4c1.5,0.1,2.9-0.8,3.1-2.1l1.1-8.8c0.2-1.8-1.1-3.8-3.1-4l0,0
				c-2-0.1-3.7,1.6-3.7,3.5l-0.1,8.8C358.3,147.2,359.6,148.2,361.1,148.4z"/>
			<path class="st53" d="M356.5,149L356.5,149c1.5-0.2,2.7-1.5,2.5-2.8l-0.8-9c-0.2-1.8-1.9-3.1-3.7-2.8h0c-1.9,0.3-3.1,2.3-2.8,4
				l1.6,8.7C353.5,148.4,354.9,149.2,356.5,149z"/>
			<path class="st54" d="M371,143.1l-2.1,6.2c-0.3,1.1,0.3,2.6,1.4,3.1h0c1.1,0.5,2.8,0,3.4-0.9l1.6-3"/>
			<path class="st55" d="M364.9,140.3l-1.2,7.5c-0.1,1.4,0.8,2.5,2.1,2.8l0,0c1.3,0.3,2.8-0.5,3.2-1.6l2.1-6.1"/>
			<path class="st56" d="M369.6,135.9"/>
			<path class="st55" d="M358.4,139.4l0.3,6.7c0,1.2,1.1,2.1,2.4,2.2l0,0c1.4,0.1,2.6-0.7,2.8-1.9l1.2-7.7"/>
			<path class="st54" d="M352.1,139.6l1.6,7.7c0.3,1.1,1.5,1.8,2.7,1.7v0c1.3-0.2,2.2-1.2,2.2-2.4l-0.4-8.5"/>
			<path class="st53" d="M350.5,161.1c0,0-6.4-6.2-4.9-14.2c1.5-5,6.2-8.9,6.2-8.9c1.4-1,2.9-0.6,3.9,0.6c1,1.2,0.7,2.9-0.3,4
				c-0.1,0.1-1.9,2.3-3.7,4.5c0,0,6.4,1.7,6,9.2"/>
			<path class="st54" d="M351.8,138c1.4-1,2.9-0.6,3.9,0.6c1,1.2,0.7,2.9-0.3,4c-0.1,0.1-1.9,2.3-3.7,4.5c0,0,6.4,1.7,6,9.2"/>
		</g>
	</g>
	<g>
		<path class="st44" d="M309.4,207.7c-14,4.7-29.6-5.8-35.8-10.8l-14.3,20.9c20.1,19.4,45.4,26.6,69.5,18.4
			c25.9-8.8,42.4-34.2,45-64.4l-34.5-5.1C336.7,186.2,325.9,202.1,309.4,207.7z"/>
		<circle class="st44" cx="266.6" cy="207.5" r="12.6"/>
	</g>
	<g>
		<g>
			<path class="st53" d="M295.3,547.6l-3.4,42.5l-19.9-0.4c0,0-3.8-18.4-6-42H295.3z"/>
			<path class="st57" d="M270.2,580l-0.7,14.5c-0.1,1.3,0.9,2.4,2.2,2.4l6.8,0.3c1.3,0.1,2.3-0.9,2.4-2.2l0.1-3.5l17.1,3.6l13.4,2.8
				c1.7,0.4,3.4-0.7,3.9-2.3l0,0c0.4-1.2-0.1-2.9-1.1-3.7l-18.2-18.6c-1-0.8-2.3-0.6-2.9,0.5l-0.7,11.9L270.2,580z"/>
		</g>
		<g>
			<path class="st53" d="M118.9,482l-41.1,11.2l-6.4-18.8c0,0,16-9.8,37.5-20L118.9,482z"/>
			<path class="st57" d="M79.9,469.4l-13.9,4.3c-1.2,0.4-1.9,1.7-1.5,2.9l2.1,6.5c0.4,1.2,1.7,1.9,2.9,1.5l3.3-1.1l2.4,17.3
				l1.9,13.5c0.2,1.7,1.8,3,3.5,2.9l0,0c1.3-0.1,2.7-1.1,3.1-2.3l11.3-23.5c0.5-1.2-0.2-2.3-1.4-2.6L82,492.2L79.9,469.4z"/>
		</g>
		<path class="st58" d="M267.5,445.1c0,0-19.6,69.2-15.4,114.1h61.9V444.7"/>
		<path class="st58" d="M314.1,441.2l-3.8-95c0.3-7.8-2.2-20-5.7-27.1L291,291.6l-28.2,0.5l-2.7,65c0,0-3.3,40.5,7.3,88"/>
		<path class="st58" d="M207.5,346.7c0.6-8.9,1-17.2,7.1-26.7c6.1-9.5,17.1-27.5,17.1-27.5l31.2-0.3l-2.7,65
			C249,410,212.8,478.7,111.4,497.8L89,439.1C89,439.1,205.5,409.2,207.5,346.7z"/>
		<circle class="st58" cx="290.7" cy="441.9" r="23.4"/>
		<line class="st59" x1="263.1" y1="324.9" x2="259.7" y2="359.3"/>
	</g>
	<polygon class="st37" points="231.4,297.4 278,290.5 275.3,257.7 225.2,265.2 	"/>
	<g>
		<g>
			<path class="st44" d="M217.6,303.8l-7-47.6c-0.6-4.4-1.7-11.5-2.3-15.9l-3.4-23.3c-0.6-4.4,2.2-9.4,6.2-11.1
				c0,0,20.6-8.7,33.4-10.6c12.8-1.9,23.9,0,23.9,0c4.4,0.7,9.1,4.8,10.4,9l8.1,24.5c1.4,4.2,3,11.2,3.7,15.6l7,47.6"/>
		</g>
	</g>
	<g>
		<path class="st36" d="M268.5,282.9c-7.1-9.7-8-21.4-8.1-29.4c0-2.9,0-5.7,0.1-8.5c0.2-5.4,0.3-10.5-0.4-15.2
			c-1.4-9.7-6.6-18.8-14.2-25L258,190c11.3,9.2,19,22.7,21.1,37.1c0.9,6.4,0.8,12.6,0.6,18.5c-0.1,2.7-0.1,5.2-0.1,7.7
			c0.1,8.3,1.5,14.3,4.4,18.2L268.5,282.9z"/>
	</g>
	<g>
		
			<ellipse transform="matrix(0.9892 -0.1464 0.1464 0.9892 -25.8089 37.6408)" class="st36" cx="242.8" cy="194.1" rx="20.8" ry="21.1"/>
		<path class="st60" d="M218.3,179.8c2.1,14.4,13.7,24.7,25.8,22.9c12.1-1.8,20.2-15,18-29.4l-0.4-2.9
			c-2.1-14.4-13.7-24.7-25.8-22.9s-20.2,15-18,29.4L218.3,179.8z"/>
		<path class="st36" d="M212.3,171.3c2.6,17.4,16.6,29.9,31.2,27.7c14.6-2.2,24.4-18.2,21.8-35.6l-0.5-3.5
			c-2.6-17.4-16.6-29.9-31.2-27.7c-14.6,2.2-24.4,18.2-21.8,35.6L212.3,171.3z"/>
		<g>
			<g>
				
					<ellipse transform="matrix(0.9892 -0.1464 0.1464 0.9892 -21.5932 37.1194)" class="st53" cx="241.3" cy="165.2" rx="19.9" ry="26.7"/>
			</g>
			
				<ellipse transform="matrix(0.9892 -0.1464 0.1464 0.9892 -21.5918 38.6264)" class="st61" cx="251.6" cy="166" rx="1.6" ry="2.5"/>
			
				<ellipse transform="matrix(0.9892 -0.1464 0.1464 0.9892 -22.1529 36.1224)" class="st61" cx="234.3" cy="168.5" rx="1.6" ry="2.5"/>
			<g>
				<path class="st55" d="M242.7,167.2l2,3.3c0.5,0.8,0.3,1.6-0.4,1.8c-0.7,0.2-1.2,0.4-1.2,0.4"/>
			</g>
			<path class="st62" d="M252.8,158.8c-1.5,0-3.3,0.3-4.6,1.7"/>
			<path class="st62" d="M236.1,162.3c-1.3-0.6-3.1-1-4.9-0.2"/>
			<path class="st0" d="M239.4,176.7c0.4,2.5,2.7,4.2,5.2,3.8c2.5-0.4,4.2-2.7,3.8-5.2L239.4,176.7z"/>
			<path class="st36" d="M262.5,161.3L239,144.6l-19,23c0,0-6.1-30.9,16.7-34.2C236.6,133.4,257.8,129.3,262.5,161.3z"/>
		</g>
	</g>
	<polygon class="st44" points="194.6,277.2 170.9,262.4 203.7,212.6 228.3,227.1 	"/>
	<g>
		<path class="st53" d="M215.2,326c2,3.2,4.2,5.4,4,9.1c-0.4,3.6,3.7,6.4,3.4,8c-0.2,0.8-0.9,1.4-1.7,1.5c-0.8,0.1-1.6-0.1-2.2-0.6
			c-0.7-0.4-1.2-1-1.7-1.7c-0.5-0.6-0.9-1.2-1.3-1.8c-0.2-0.3-0.4-0.6-0.6-0.9c-0.1-0.1-0.2-0.3-0.2-0.4c-0.1-0.1-0.1-0.2-0.3-0.1
			c-0.3,0.1-0.2,0.5-0.2,0.5l-6.9,3.2l-1.9-14.8L215.2,326z"/>
		<g>
			<path class="st53" d="M207.2,327.5l4.3,32.8c-0.4,0.4-1,0.6-1.6,0.6c-2-0.1-4.2-2.6-5.3-3.8l-0.2-0.2c-0.9-1.2-1.9-2.5-2.6-3.7
				c-0.2-0.3-0.4-0.6-0.6-0.9c-3.7-6.8-4.5-18.1-4.2-21L207.2,327.5z"/>
			<path class="st53" d="M206.9,342.7c0,0,1.9,6.7,2.7,7.9c0.8,1.2,5.5,6.8,5.5,6.8c0.3,0.4,0.4,1.1,0.4,1.6c0,0.5-0.2,0.9-0.6,1.2
				c-2,1.8-5.3-2.1-6.5-3.4c-3-3.3-4.7-5.5-5.5-8.6c-1-3.7-0.8-3-0.8-3"/>
			<path class="st53" d="M209.4,341c0,0,3.4,8.4,4.4,9.5c0.9,1.1,6.1,6.2,6.2,6.2c0.3,0.3,0.5,1.1,0.5,1.5c0,0.5-0.1,0.9-0.5,1.3
				c-1.8,2-5.5-1.6-6.8-2.8c-3.3-3-5.2-5-6.4-8c-1.4-3.5-1.2-5.4-1.2-5.4"/>
			<path class="st53" d="M214,337.6c0,0,0.2,0.7,0.5,1.8c0.6,2.5,1.8,6.9,2.3,7.7c0.8,1.2,5.2,7,5.2,7c0.3,0.4,0.4,1.1,0.3,1.6
				c-0.1,0.5-0.3,0.9-0.6,1.2c-2,1.8-5.2-2.3-6.3-3.7c-2.8-3.4-4.5-5.7-5.2-8.8c-0.9-3.7-0.7-3.1-0.7-3.1"/>
			<path class="st63" d="M210.1,341"/>
			<path class="st54" d="M219.8,357.2c-1.7-0.6-3.6-3-4.3-3.9c-2.8-3.4-4.5-5.7-5.2-8.8c-0.1-0.4-0.2-0.8-0.3-1.1"/>
			<path class="st54" d="M211.6,359.8c-1.3-0.9-2.5-2.4-3.1-3c-3-3.3-4.7-5.5-5.5-8.6c-0.1-0.5-0.3-0.9-0.3-1.3"/>
			<path class="st54" d="M215.6,358.9c-0.3-0.2-0.5-0.4-0.8-0.6c0,0-4.2-4-5.7-6.1c-1.6-2.1-2.1-4.8-2.8-7.4"/>
		</g>
	</g>
	<polyline class="st44" points="196,264.4 221.7,324.7 189.8,336.2 169.3,275.9 	"/>
	<circle class="st44" cx="183" cy="270.5" r="14.5"/>
	<circle class="st44" cx="216.5" cy="219.1" r="14.3"/>
	<line class="st52" x1="210.2" y1="254" x2="208.1" y2="239.6"/>
	<line class="st52" x1="289.4" y1="236.4" x2="286.9" y2="223.2"/>
</g>
<rect x="1295.6" class="st58" width="1275.6" height="850.4"/>
<g>
	<line class="st1" x1="2195.9" y1="565" x2="2305.4" y2="565"/>
	<line class="st2" x1="2388.7" y1="760" x2="2288.9" y2="515"/>
	<line class="st2" x1="2276.1" y1="760" x2="2176.4" y2="515"/>
	<line class="st1" x1="2239.4" y1="662.5" x2="2348.9" y2="662.5"/>
	<line class="st1" x1="2254.8" y1="711.7" x2="2364.3" y2="711.7"/>
	<line class="st1" x1="2217.5" y1="615.9" x2="2327.1" y2="615.9"/>
</g>
<path class="st64" d="M2432.2,776.4h-960.6c-6.5,0-11.7-5.3-11.7-11.7l0,0c0-6.5,5.3-11.7,11.7-11.7h960.6c6.5,0,11.7,5.3,11.7,11.7
	l0,0C2443.9,771.2,2438.7,776.4,2432.2,776.4z"/>
<g>
	<rect x="1667.1" y="581.4" class="st4" width="507" height="171.5"/>
	<g>
		<g>
			<path class="st5" d="M2053,134.6l-262.9-0.1c-3.1,0-5.7-2.5-5.7-5.7l0-17.2c0-3.1,2.5-5.7,5.7-5.7l262.9,0.1
				c3.1,0,5.7,2.5,5.7,5.7l0,17.2C2058.7,132.1,2056.1,134.6,2053,134.6z"/>
			<path class="st6" d="M2018.6,581.5l-194.6-0.1c-1.6,0-2.8-1.3-2.8-2.8l0-38.6c0-1.6,1.3-2.8,2.8-2.8l194.6,0.1
				c1.6,0,2.8,1.3,2.8,2.8l0,38.6C2021.5,580.2,2020.2,581.5,2018.6,581.5z"/>
			<path class="st6" d="M1921.5,362.8L1921.5,362.8c-69,0-124.9-56-124.9-125l0.1-103.3l249.9,0.1l-0.1,103.3
				C2046.5,306.9,1990.5,362.9,1921.5,362.8z"/>
			<rect x="1887.8" y="357.5" class="st6" width="67.3" height="135.4"/>
			<path class="st6" d="M2111.1,173.8l0,43.8c0,46.7-37.9,84.5-84.5,84.4h0l0-35.7l0,0c25.3,0,45.8-20.5,45.8-45.8l0-25.2
				c0-3.9-3.1-7-7-7l-38.8,0l0-35.7l63.4,0C2101.7,152.7,2111.1,162.2,2111.1,173.8z"/>
			<path class="st6" d="M1732,173.7l0,43.8c0,46.7,37.8,84.5,84.4,84.5h0l0-35.7l0,0c-25.3,0-45.8-20.5-45.8-45.8l0-25.2
				c0-3.9,3.2-7,7-7l38.8,0l0-35.7l-63.4,0C1741.4,152.5,1732,162,1732,173.7z"/>
		</g>
		<path class="st5" d="M1995.2,537.2l-147.6-0.1c-0.8,0-1.4-0.6-1.4-1.4l0-37.2c0-3.1,2.5-5.7,5.7-5.7l139.1,0.1
			c3.1,0,5.7,2.5,5.7,5.7l0,37.2C1996.6,536.6,1996,537.2,1995.2,537.2z"/>
		<path class="st5" d="M1935.2,193.7l14.8,2.7c4.3,0.8,6.1,6,3.1,9.3l-10.2,11.1c-1.1,1.2-1.7,2.9-1.4,4.5l2,14.9
			c0.6,4.4-3.9,7.6-7.9,5.8l-13.7-6.3c-1.5-0.7-3.2-0.7-4.7,0l-13.6,6.5c-4,1.9-8.5-1.3-7.9-5.7l1.8-14.9c0.2-1.6-0.4-3.3-1.5-4.5
			l-10.4-10.9c-3-3.2-1.4-8.5,3-9.3l14.8-2.9c1.6-0.3,3-1.4,3.8-2.8l7.2-13.2c2.1-3.9,7.6-3.9,9.8-0.1l7.4,13.1
			C1932.2,192.4,1933.6,193.4,1935.2,193.7z"/>
	</g>
	<g>
		<path class="st7" d="M1844.7,248c0,34.2,34.2,61.9,76.5,61.9"/>
		<path class="st5" d="M1852.5,273.3L1852.5,273.3L1852.5,273.3c-3.7-7.2,0.5-15.4,9.4-18.3h0v0
			C1865.6,262.1,1861.4,270.3,1852.5,273.3z"/>
		<path class="st5" d="M1828,266.3L1828,266.3L1828,266.3c8.9-3,19.1,0.4,22.8,7.6l0,0l0,0C1842,276.8,1831.7,273.4,1828,266.3z"/>
		<path class="st5" d="M1864.8,290.7L1864.8,290.7L1864.8,290.7c-3.7-7.2,0.5-15.4,9.4-18.3l0,0l0,0
			C1878,279.5,1873.7,287.8,1864.8,290.7z"/>
		<path class="st5" d="M1840.4,283.7L1840.4,283.7L1840.4,283.7c8.9-3,19.1,0.4,22.8,7.6l0,0l0,0
			C1854.3,294.2,1844.1,290.8,1840.4,283.7z"/>
		<path class="st5" d="M1889.1,303.8L1889.1,303.8L1889.1,303.8c-6.8-5.5-6.8-14.4,0-19.9l0,0l0,0
			C1895.9,289.4,1895.9,298.3,1889.1,303.8z"/>
		<path class="st5" d="M1863.2,304.8L1863.2,304.8L1863.2,304.8c6.8-5.5,17.9-5.5,24.7,0v0l0,0
			C1881.1,310.3,1870,310.3,1863.2,304.8z"/>
		<path class="st5" d="M1923.5,309.7L1923.5,309.7L1923.5,309.7c-9.4-1.6-15.4-9.1-13.4-16.7v0l0,0
			C1919.5,294.6,1925.5,302.1,1923.5,309.7z"/>
		<path class="st5" d="M1902.4,321.8L1902.4,321.8L1902.4,321.8c2-7.6,11.3-12.4,20.7-10.8l0,0v0
			C1921.1,318.6,1911.8,323.5,1902.4,321.8z"/>
		<path class="st5" d="M1841.3,232.9l2.7-2.3l2.9,2.2c7.4,5.5,7.9,14.8,1.1,20.8l-2.7,2.3l-2.9-2.2
			C1835,248.2,1834.5,238.9,1841.3,232.9z"/>
	</g>
	<g>
		<path class="st7" d="M1997.1,248c0,34.2-34.2,61.9-76.5,61.9"/>
		<path class="st5" d="M1989.3,273.3L1989.3,273.3L1989.3,273.3c3.7-7.2-0.5-15.4-9.4-18.3l0,0v0
			C1976.1,262.1,1980.3,270.3,1989.3,273.3z"/>
		<path class="st5" d="M2013.7,266.3L2013.7,266.3L2013.7,266.3c-8.9-3-19.1,0.4-22.8,7.6l0,0l0,0
			C1999.8,276.8,2010,273.4,2013.7,266.3z"/>
		<path class="st5" d="M1976.9,290.7L1976.9,290.7L1976.9,290.7c3.7-7.2-0.5-15.4-9.4-18.3l0,0l0,0
			C1963.8,279.5,1968,287.8,1976.9,290.7z"/>
		<path class="st5" d="M2001.4,283.7L2001.4,283.7L2001.4,283.7c-8.9-3-19.1,0.4-22.8,7.6h0h0
			C1987.5,294.2,1997.7,290.8,2001.4,283.7z"/>
		<path class="st5" d="M1952.6,303.8L1952.6,303.8L1952.6,303.8c6.8-5.5,6.8-14.4,0-19.9l0,0h0
			C1945.8,289.4,1945.8,298.3,1952.6,303.8z"/>
		<path class="st5" d="M1978.6,304.8L1978.6,304.8L1978.6,304.8c-6.8-5.5-17.9-5.5-24.7,0v0l0,0
			C1960.7,310.3,1971.7,310.3,1978.6,304.8z"/>
		<path class="st5" d="M1918.3,309.7L1918.3,309.7L1918.3,309.7c9.4-1.6,15.4-9.1,13.4-16.7v0l0,0
			C1922.2,294.6,1916.2,302.1,1918.3,309.7z"/>
		<path class="st5" d="M1939.4,321.8L1939.4,321.8L1939.4,321.8c-2-7.6-11.3-12.4-20.7-10.8l0,0v0
			C1920.6,318.6,1929.9,323.5,1939.4,321.8z"/>
		<path class="st5" d="M2000.4,232.9l-2.7-2.3l-2.9,2.2c-7.4,5.5-7.9,14.8-1.1,20.8l2.7,2.3l2.9-2.2
			C2006.8,248.2,2007.2,238.9,2000.4,232.9z"/>
	</g>
	<g>
		<g>
			<polygon class="st8" points="1977.3,725.7 1954.5,723.5 1945,744.3 1913,688.8 1945.2,670.2 			"/>
			<polygon class="st8" points="1869,725.7 1891.7,723.5 1901.2,744.3 1933.3,688.8 1901.1,670.2 			"/>
			<path class="st6" d="M1930.7,610.6L1930.7,610.6c2.4,4.3,7.8,6.1,12.3,4v0c6.8-3.1,14.3,2.4,13.5,9.8l0,0
				c-0.6,4.9,2.7,9.5,7.6,10.5v0c7.3,1.5,10.2,10.4,5.2,15.9l0,0c-3.4,3.7-3.4,9.3,0,13l0,0c5,5.5,2.2,14.4-5.2,15.9l0,0
				c-4.9,1-8.2,5.5-7.6,10.5v0c0.9,7.4-6.7,12.9-13.5,9.8l0,0c-4.5-2.1-9.9-0.3-12.3,4v0c-3.7,6.5-13,6.5-16.7,0v0
				c-2.4-4.3-7.8-6.1-12.3-4l0,0c-6.8,3.1-14.3-2.4-13.5-9.8v0c0.6-4.9-2.7-9.5-7.6-10.5h0c-7.3-1.5-10.2-10.4-5.2-15.9l0,0
				c3.4-3.7,3.4-9.3,0-13l0,0c-5-5.5-2.2-14.4,5.2-15.9l0,0c4.9-1,8.2-5.5,7.6-10.5l0,0c-0.9-7.4,6.7-12.9,13.5-9.8v0
				c4.5,2.1,9.9,0.3,12.3-4l0,0C1917.6,604.1,1927,604.1,1930.7,610.6z"/>
			<circle class="st5" cx="1922.3" cy="657.2" r="35.5"/>
		</g>
		<g>
			<path class="st0" d="M1925.9,675h-6.8v-27h-6.1l4.7-6.6h8.2V675z"/>
		</g>
	</g>
</g>
<g>
	<path class="st9" d="M1696.5,623.2c0,7.1-3.3,13.6-8.6,18.3c-5.3,4.7-12.7,7.6-20.8,7.6h-156v-8.8h10v-34.1h-10v-8.8h156
		C1683.3,597.3,1696.5,608.9,1696.5,623.2z"/>
	<g>
		<path class="st0" d="M1522.6,638.8v-31.1h145.2c8.6,0,15.6,7,15.6,15.6c0,8.6-7,15.6-15.6,15.6H1522.6z"/>
		<path class="st10" d="M1667.8,609.2c7.8,0,14.1,6.3,14.1,14.1s-6.3,14.1-14.1,14.1h-143.7v-28.1H1667.8 M1667.8,606.2h-146.7v34.1
			h146.7c9.4,0,17.1-7.6,17.1-17.1v0C1684.9,613.8,1677.2,606.2,1667.8,606.2L1667.8,606.2z"/>
	</g>
	<path class="st9" d="M1696.5,726.8c0,7.1-3.3,13.6-8.6,18.3c-5.3,4.7-12.7,7.6-20.8,7.6h-156v-8.8h10v-34.1h-10v-8.8h156
		C1683.3,700.9,1696.5,712.5,1696.5,726.8z"/>
	<g>
		<path class="st0" d="M1522.6,742.3v-31.1h145.2c8.6,0,15.6,7,15.6,15.6c0,8.6-7,15.6-15.6,15.6H1522.6z"/>
		<path class="st10" d="M1667.8,712.7c7.8,0,14.1,6.3,14.1,14.1c0,7.8-6.3,14.1-14.1,14.1h-143.7v-28.1H1667.8 M1667.8,709.7h-146.7
			v34.1h146.7c9.4,0,17.1-7.6,17.1-17.1v0C1684.9,717.3,1677.2,709.7,1667.8,709.7L1667.8,709.7z"/>
	</g>
	<path class="st11" d="M1537.2,675c0-7.1,3.3-13.6,8.6-18.3c5.3-4.7,12.7-7.6,20.8-7.6h156v8.8h-10v34.1h10v8.8h-156
		C1550.3,700.9,1537.2,689.3,1537.2,675z"/>
	<g>
		<path class="st0" d="M1565.9,690.6c-8.6,0-15.6-7-15.6-15.6c0-8.6,7-15.6,15.6-15.6h145.2v31.1H1565.9z"/>
		<path class="st10" d="M1709.6,660.9v28.1h-143.7c-7.8,0-14.1-6.3-14.1-14.1s6.3-14.1,14.1-14.1H1709.6 M1712.6,657.9h-146.7
			c-9.4,0-17.1,7.6-17.1,17.1c0,9.4,7.6,17.1,17.1,17.1h146.7V657.9L1712.6,657.9z"/>
	</g>
</g>
<g>
	<g>
		<path class="st12" d="M2181.9,130.7l21.3,1.7l-2.5,39.9l32.9-9.5l10.5,38L2193,200c0,0-17.7-0.6-18.8-19.1L2181.9,130.7z"/>
		<g>
			<path class="st13" d="M2255.9,152l-34.2,11.9c-3.4,1.2-5.9,5.1-5.6,8.6l2.3,26.9c0.3,3.6,3.5,6.3,7.1,6.1l19.5-1.1"/>
		</g>
		<g>
			<polygon class="st14" points="2244.8,550.7 2223.1,548 2222.3,515 2248.8,518.2 			"/>
			<path class="st15" d="M2222.9,540.8l-17.8,9.8c-1.2,0.4-2.2,1.7-2.4,2.9l-0.1,0.7c-0.1,1.2,0.7,2.3,1.9,2.5l10,1.2l22.3,2.7
				c3.6,0.4,6.8-1.8,7.2-4.9c0.4-3.2,1.5-12.1,1.5-12.1S2224.1,540.5,2222.9,540.8z"/>
		</g>
		<path class="st6" d="M2214.1,526.9h39.4l36.9-259.6h-54.4C2224,312.8,2211.1,411.5,2214.1,526.9z"/>
		<g>
			<polygon class="st14" points="2455.1,456.1 2445,474.9 2414.5,463.8 2426.9,440.9 			"/>
			<path class="st15" d="M2438.4,472.5l2.7,19.7c-0.1,1.2,0.7,2.6,1.8,3.2l0.6,0.3c1,0.6,2.4,0.2,2.9-0.9l4.7-8.7l10.4-19.4
				c1.7-3.1,0.8-6.9-1.9-8.3c-2.7-1.5-10.6-5.7-10.6-5.7S2438.5,471.3,2438.4,472.5z"/>
		</g>
		<path class="st6" d="M2302.5,424.4c32.8,15.9,74.9,32.4,115.2,47.8l14.7-35.7l-98.5-58.1"/>
		<path class="st6" d="M2339.8,393.6l-17.1-141.4l-53.5,14.3c0,28.5,6.1,78.7,18,136.6"/>
		
			<ellipse transform="matrix(0.7071 -0.7071 0.7071 0.7071 396.2723 1754.1353)" class="st6" cx="2315.6" cy="398.7" rx="28.8" ry="28.8"/>
		<g>
			<polyline class="st16" points="2336.3,164.9 2377.9,221.8 2356.9,239.1 2307.1,185.6 			"/>
		</g>
		<path class="st16" d="M2377.3,221.1l43.1,58.7l-19.4,10.5c0,0-33.9-31.2-47.7-55.1L2377.3,221.1z"/>
		<g>
			<polygon class="st16" points="2304.9,151.6 2287.5,147.4 2293.2,130.9 2308.7,134.5 			"/>
			<path class="st16" d="M2284.2,105.9c-3.3-3.2-8.3-1-8.9,3.6c-0.6,4.6,2.7,8.8,7.2,9.3"/>
			<path class="st14" d="M2317.8,120.6c-1.5,7.8-8.8,16.3-16.3,18.9s-16.7,0.5-20.5-4.7c-3.8-5.2-5.2-15.7-3.2-23.4l3.4-12.8
				c2.1-7.7,10.1-12.5,17.8-10.7l9.9,2.3c7.7,1.8,12.8,9.6,11.3,17.4L2317.8,120.6z"/>
			<path class="st17" d="M2309.9,96c-3.3-2-8.2-3.3-12-2.1c-3.4,1.1-6.4,3-9.4,5c-3,2-4.6,4.1-8.5,2.5c-2.9-1.2-4.4-4.1-4.5-7.1
				c-0.1-3.6,2.2-7,4.9-9c5.1-3.7,8.8-4.2,15-3.8c-0.9-0.1-2.4-1.1-1.7-2.7c1.1-2.4,5.8-1.8,7.1-1.4c7.9,2.3,14.4,7.3,18.2,14.6"/>
			<path class="st17" d="M2307.3,92.4c-0.2,2.5,0.1,5.1,1.2,7.4s4.3,5,6.9,5.6c-0.9,4.2-1.8,6.1,0.3,9.4c0.4,0.1-4,11.5-4,11.5
				l0.7,5.2c0,0,6.9-2.9,10.6-10.4c8.1-14.9,1.6-25.9-4.1-29.2"/>
			<g>
				<path class="st18" d="M2293.2,114l-1.8,2.4c-0.9,1.2-0.9,2.1,0.1,2c0.9-0.1,1.6-0.1,1.6-0.1"/>
			</g>
			<g>
				<path class="st19" d="M2288,112.8c-0.4,1.7-1.6,2.9-2.7,2.7s-1.6-1.9-1.2-3.6c0.4-1.7,1.6-2.9,2.7-2.7S2288.5,111,2288,112.8z"
					/>
				<path class="st19" d="M2304.4,116.7c-0.4,1.7-1.6,2.9-2.7,2.7c-1.1-0.3-1.6-1.9-1.2-3.6c0.4-1.7,1.6-2.9,2.7-2.7
					S2304.9,114.9,2304.4,116.7z"/>
				<path class="st20" d="M2284.8,105.3c0,0,3.4-2,5.8,1.6"/>
				<path class="st20" d="M2301.1,109.2c0,0,3.4-2,5.8,1.6"/>
			</g>
			<path class="st21" d="M2286.2,123.2c0,0,5.9,4.4,11.8,0.5"/>
			<path class="st14" d="M2314.6,113.6c4.4-1.4,7.9,2.8,6.3,7.2c-1.5,4.3-6.3,6.6-10.7,5.1"/>
			<path class="st22" d="M2313.1,123c1.3,0.6,3.8-0.9,4.6-2.8c0.9-2.3-0.8-4.5-3.2-3.9"/>
		</g>
		<path class="st23" d="M2313.3,149.2c-1,8.4-8.5,12.9-17,11.9c-8.4-1-14.7-7.1-13.6-15.6l15.5,0.3L2313.3,149.2z"/>
		<path class="st13" d="M2333.5,159c-5.3-4.1-16.8-8.8-20.4-10.2c-0.7-0.3-1.2,0.3-1.3,0.7c-1.5,7.1-8.2,10.8-15.7,9.9
			c-7.5-0.9-13.1-6.1-12.9-13.3c0-0.4-0.5-1.1-1.2-1c-3.8,0.5-16,2.4-22.1,5.1c-3.4,1.5-6.7,3.5-9.5,5.5l-22.4,127.5
			c0,0,47.6,13.2,104.2,12.6c2.1-12.1,9.4-129.1,9.4-129.1C2339.1,163.9,2336.4,161.2,2333.5,159z"/>
		<path class="st24" d="M2299,234.6"/>
		<line class="st25" x1="2244.2" y1="191.3" x2="2241.8" y2="205.3"/>
		<path class="st25" d="M2277.6,147.2c0,0-0.8,15.9,16.9,18.1c0,0,17.2,3,22.4-12.4"/>
		<g>
			<path class="st13" d="M2341.4,166.6l24.1,29.5c2.3,2.8,1.9,6.9-0.9,9.2l-20.9,17.1c-2.8,2.3-7,1.9-9.3-0.8l-12.8-14.7"/>
		</g>
		<path class="st25" d="M2341.4,224c-1.5,1.3-3.9,1.1-5.2-0.4l-14.7-16.9"/>
		<g>
			<g>
				<g>
					<path class="st16" d="M2431.6,290.3c0,0-7.3-8.4-15.1-14.4l-15.5,14.4c3,3.9,2.6,10.8,2.8,13.1c0.2,2.3,0.7,4.4,0.7,6.7
						c0,1-0.4,3.1,0.3,3.9c0.8,0.9,2.4,0.8,3.3,0.1c1.8-1.4,2.1-4.6,2.3-6.7c0.5-4.7,2.7-4.6,4.1-4.2c0.8,0.2,2.3,1.1,4.6,4.2
						C2429.5,300.5,2431.6,290.3,2431.6,290.3z"/>
				</g>
				<g>
					<path class="st16" d="M2430.9,316.6c-0.8-1.2-2.4-1.6-3.6-0.9s-1.6,2.4-0.9,3.6c0.8,1.2,2.4,1.6,3.6,0.9
						C2431.3,319.4,2431.7,317.8,2430.9,316.6z"/>
					
						<rect x="2420.8" y="299.6" transform="matrix(0.8529 -0.5221 0.5221 0.8529 194.9775 1310.8818)" class="st16" width="5.3" height="19.9"/>
				</g>
				<g>
					
						<ellipse transform="matrix(3.699815e-02 -0.9993 0.9993 3.699815e-02 2039.5811 2736.2307)" class="st16" cx="2439.5" cy="309.9" rx="2.6" ry="2.6"/>
					
						<rect x="2430.1" y="292.7" transform="matrix(0.7327 -0.6806 0.6806 0.7327 444.3473 1736.5026)" class="st16" width="5.3" height="19.9"/>
				</g>
				<g>
					<path class="st16" d="M2443.7,300.9c-1.1-1-2.8-0.9-3.7,0.2c-1,1.1-0.9,2.8,0.2,3.7s2.8,0.9,3.7-0.2
						C2444.9,303.5,2444.8,301.9,2443.7,300.9z"/>
					
						<rect x="2431.8" y="286.4" transform="matrix(0.662 -0.7495 0.7495 0.662 600.6882 1924.7004)" class="st16" width="5.3" height="19.9"/>
				</g>
				<g>
					<path class="st16" d="M2437.5,314.5c-0.9-1.2-2.5-1.4-3.7-0.5c-1.2,0.9-1.4,2.5-0.5,3.7s2.5,1.4,3.7,0.5
						C2438.2,317.3,2438.4,315.6,2437.5,314.5z"/>
					
						<rect x="2426.8" y="298.2" transform="matrix(0.8013 -0.5983 0.5983 0.8013 298.4093 1514.6786)" class="st16" width="5.3" height="19.9"/>
				</g>
			</g>
		</g>
		<path class="st26" d="M2272.7,314.8c1.3,11.5,3.1,24.1,5.2,37.5"/>
	</g>
	<g id="E_00000170970465251667464290000004664740811422406568_">
		<path class="st12" d="M2181.9,130.7c-2.1-3.3-3.7-19.8-2.5-24.3s24.1,1,24.1,1l3.7,8.2l-4.1,16.8
			C2203.2,132.4,2184.1,134,2181.9,130.7z"/>
		<path id="Spare_Finger_00000103948994010124728010000016769665494889353637_" class="st12" d="M2180,116.1L2180,116.1
			c0.6,1.9,2.6,3,4.5,2.4c1.9-0.6,3-2.6,2.4-4.5l-0.7-8.3c-0.6-1.9-2.6-3-4.5-2.5c-1.9,0.5-2.6,2.5-2.6,4.5L2180,116.1z"/>
		<path id="Spare_Finger_00000027570884654119507100000000242803160411493301_" class="st12" d="M2193.4,110.1
			c0.5,1.9-0.8,3.9-2.7,4.3c-1.9,0.5-3.9-0.8-4.3-2.7l0,0l-0.7-8.2l0,0c-0.3-1.9,0.9-3.7,2.7-4.2c2-0.5,3.9,0.8,4.4,2.7
			L2193.4,110.1z"/>
		<path id="Spare_Finger_00000019641768789922325030000016637139754331340416_" class="st12" d="M2200.6,109.8c0.3,2-1.1,3.8-3,4.1
			c-2,0.3-3.8-1.1-4.1-3l0,0l-0.1-8.2l0,0c-0.2-1.9,1.1-3.6,3.1-3.9c2-0.3,3.8,1.1,4.1,3L2200.6,109.8z"/>
		<path id="Spare_Finger_00000153678223729830140870000007264300440392098948_" class="st12" d="M2207.4,113.3
			c-1.1,5.5-1.7,3.6-3.7,3.5c-2-0.1-3.6-1.7-3.5-3.7l0,0l1.4-8.1l0,0c0.2-1.9,1.8-3.4,3.7-3.3c2,0.1,3.6,1.7,3.5,3.7L2207.4,113.3z"
			/>
		<path id="Spare_Finger_00000101805320846793275730000005053393076733738656_" class="st21" d="M2186.2,109.9l0.4,5
			c0.2,1.8-1,3.5-2.9,3.7c-1.8,0.2-3.5-1-3.7-2.8"/>
		<path id="Spare_Finger_00000046322751543547062180000012330780994577425844_" class="st21" d="M2193.4,110.9
			c-0.1,1.6-1.1,3.1-2.7,3.5c-1.9,0.5-3.9-0.8-4.3-2.7l0,0l-0.5-6.2"/>
		<path id="Spare_Finger_00000152240318454850849670000006791237066423161271_" class="st21" d="M2193.1,103.3l0.3,7.7l0,0
			c0.3,2,2.1,3.3,4.1,3c2-0.3,2.8-2.1,3-4.1"/>
		<path id="Spare_Finger_00000080171437160969306590000003427088792198754746_" class="st21" d="M2203.7,116.8
			c-2-0.1-3.6-1.7-3.5-3.7l0,0l0.7-6"/>
		<path id="Spare_Finger_00000096747372890245488200000000790774249450677935_" class="st12" d="M2206.3,114.1c2,0,3.6,1.7,3.6,3.7
			c0,2-0.9,3-2,4.7l-6.5,9.9l-9.3-6.4l6.7-4.1l-4.9,0.4v0c-1.9-0.1-3.4-1.7-3.4-3.7c0-2,1.7-3.6,3.7-3.6L2206.3,114.1z"/>
		<path id="Spare_Finger_00000130606342260964043270000006679678318743678882_" class="st21" d="M2206.9,114.2l-14.5,0.8
			c-2,0-3.7,1.5-3.7,3.5c-0.1,1.9,1.4,3.8,3.3,3.7l4.9-0.3c0,0-3.8,2.2-5.1,7.8"/>
	</g>
</g>
<g>
	<g>
		<g>
			<polyline class="st27" points="1806.2,412.7 1763.4,437.7 1763.9,453.9 1816,432.8 			"/>
		</g>
		<circle class="st27" cx="1810.7" cy="423" r="11.2"/>
		<path class="st15" d="M1761.1,383.4c-2.4,5.7-7.2,8.9-12.7,11.5c-2.5,1.2-5.1,2.1-7.4,3.5c-7.2,4.5-10.1,14.5-7.3,22.5
			c2.8,8,10.6,13.8,19,15.3c5.3,0.9,14.9,1.7,20-0.1c1-0.3,9.6-5.6,9.7-6.5c0,0,0.6-45.1,0.6-45.1S1761.1,383.4,1761.1,383.4z"/>
		<path class="st15" d="M1803.8,370.1c1.5,4.5,3.7,7.4,8.3,9.2c3,1.2,6.3,2,8.6,4.2c3.8,3.6,3.9,9.7,6.2,14.4
			c3.3,6.9,11.4,8.5,15.5,14.6c9.2,14,2.8,29.2,1.4,32.1c-3,6.5-8.7,11.6-15.5,13.9c-17.6,5.8-41.2-13.4-56.3-21.5l12.4-32.1
			l2.2-35.3C1786.7,369.6,1803.8,370.1,1803.8,370.1z"/>
		<polygon class="st28" points="1790.3,417.6 1772.1,415.7 1775.8,400.6 1791.8,402.2 		"/>
		<path class="st29" d="M1761.2,376.3c-2.7-2.5-6.6-0.6-6.9,3c-0.4,3.6,2.3,6.8,5.9,7.2"/>
		
			<ellipse transform="matrix(0.2938 -0.9559 0.9559 0.2938 867.8848 1956.9236)" class="st30" cx="1758.3" cy="391.1" rx="6.2" ry="3.7"/>
		<g>
			
				<ellipse transform="matrix(0.1565 -0.9877 0.9877 0.1565 1128.7069 2078.3467)" class="st31" cx="1781.2" cy="378.3" rx="30" ry="22.3"/>
		</g>
		
			<ellipse transform="matrix(9.896368e-02 -0.9951 0.9951 9.896368e-02 1214.002 2101.166)" class="st19" cx="1767.2" cy="380.2" rx="3.3" ry="2"/>
		
			<ellipse transform="matrix(9.896368e-02 -0.9951 0.9951 9.896368e-02 1227.9714 2120.0581)" class="st19" cx="1784.7" cy="382" rx="3.3" ry="2"/>
		<g>
			<path class="st32" d="M1774.6,380l-2.1,3.8c-0.5,0.9-0.2,1.8,0.5,2s1.4,0.4,1.4,0.4"/>
		</g>
		<path class="st33" d="M1765.2,373.4c1.6-0.1,3.7,0.1,5.3,1.7"/>
		<path class="st33" d="M1783.3,376.3c1.5-0.7,3.5-1.3,5.5-0.5"/>
		<path class="st0" d="M1780.3,390.7c-0.3,2.8-2.8,4.9-5.6,4.6s-4.9-2.8-4.6-5.6L1780.3,390.7z"/>
		<g>
			<path class="st15" d="M1775,361c7.9,18.9,29.3,18.9,29.3,18.9c6.2-25.1-11.5-34.1-22.1-34.7c0,0-26.8-0.5-24.5,32.5
				C1758,377.7,1766.5,377.8,1775,361"/>
			<circle class="st15" cx="1806" cy="347.5" r="11"/>
			<path class="st15" d="M1794.6,374.8c0,0,8.5,6.5-3.3,22.6c-1.5,2-5.5,8-3.8,13.3c2.6,8.1,8.9,9.2,13.5,10.1
				c4.6,0.8,8.5-25.5,8.5-25.5l-5.3-15.3L1794.6,374.8z"/>
		</g>
		<path class="st31" d="M1797.1,378.9c3.1-1.9,6.6,0.7,6.2,4.3c-0.4,3.6-3.6,6.3-7.2,5.9"/>
		<path class="st27" d="M1797,386.5c1.9,0.2,3.8-1.2,4-3.1c0.2-1.9-1.8-3.3-3.5-2.3l-0.8,0.4"/>
		
			<ellipse transform="matrix(0.9711 -0.2387 0.2387 0.9711 -41.9209 440.7097)" class="st30" cx="1798.6" cy="393.4" rx="3.7" ry="6.2"/>
		<g>
			<g>
				<polygon class="st27" points="1702.7,339.2 1699.2,353 1722.2,360.5 1723.3,344 				"/>
				<g>
					<g>
						<path class="st27" d="M1706.3,318.6c0,0-2.9,10.7-3.6,20.6l20.6,4.8c1.6-4.6,7.5-8.2,9.3-9.7c1.8-1.4,3.3-3.1,5.2-4.3
							c0.8-0.6,2.8-1.4,3.1-2.5c0.3-1.2-0.7-2.5-1.7-2.8c-2.2-0.7-5,0.8-6.9,1.8c-4.2,2.2-5.4,0.4-5.8-1c-0.2-0.8-0.4-2.5,0.9-6.2
							C1715.9,314.6,1706.3,318.6,1706.3,318.6z"/>
					</g>
					<g>
						<circle class="st27" cx="1730.9" cy="305.6" r="2.6"/>
						
							<rect x="1724.1" y="304.6" transform="matrix(-0.9089 -0.417 0.417 -0.9089 3165.0056 1320.6449)" class="st27" width="5.3" height="19.9"/>
					</g>
					<g>
						<circle class="st27" cx="1718.1" cy="301" r="2.6"/>
						
							<rect x="1713.2" y="300.8" transform="matrix(-0.9734 -0.2289 0.2289 -0.9734 3314.9993 1006.0355)" class="st27" width="5.3" height="19.9"/>
					</g>
					<g>
						<circle class="st27" cx="1710.9" cy="302.9" r="2.6"/>
						
							<rect x="1707" y="302.9" transform="matrix(-0.9913 -0.1319 0.1319 -0.9913 3363.0894 848.3289)" class="st27" width="5.3" height="19.9"/>
					</g>
					<g>
						<circle class="st27" cx="1725.6" cy="301" r="2.6"/>
						
							<rect x="1719.6" y="300.4" transform="matrix(-0.9434 -0.3318 0.3318 -0.9434 3243.9932 1174.5693)" class="st27" width="5.3" height="19.9"/>
					</g>
				</g>
			</g>
			<path class="st34" d="M1724.8,321.4c0,0-7.6-5-16-2.3"/>
			<path class="st34" d="M1725.1,327.7c0,0-5.6-0.9-8.9,5.4"/>
		</g>
		<g>
			<polyline class="st6" points="1684.3,409.7 1693.7,344.1 1730.1,352.1 1715,411.4 			"/>
			<circle class="st6" cx="1699.7" cy="411" r="15.4"/>
		</g>
		<g>
			<polygon class="st6" points="1695.4,425.9 1712.4,401.7 1768.6,427.3 1757.3,456.7 			"/>
			<circle class="st6" cx="1761.5" cy="441.4" r="15.9"/>
		</g>
		<polygon class="st27" points="1798.6,522.2 1750.6,522.2 1753.7,486.1 1800.1,486.1 		"/>
		<path class="st35" d="M1771.6,570.5c11.8-7.3,22.9-17.7,38.3-28.8l-51.2-36.5c0,0-6.6,3.5-31,18.3"/>
		<path class="st36" d="M1799,511.5c0,0,19,32,13,54l-60.2-17.3l11.8-40.9L1799,511.5z"/>
		<g>
			<g>
				<polygon class="st37" points="1630.9,675.7 1613.3,668.9 1620.3,639.2 1641.8,647.5 				"/>
				<path class="st15" d="M1613.3,668.9l-20.9,4c-1.1,0.1-2.4,1-2.8,2.1l-0.2,0.6c-0.4,1.1,0.1,2.3,1.2,2.7l8.8,3.4l19.7,7.6
					c3.2,1.2,6.6-0.1,7.7-2.8c1.1-2.8,4.1-10.7,4.1-10.7L1613.3,668.9z"/>
			</g>
			<path class="st36" d="M1654.8,519.9c-15.7,38.5-27.2,71.4-39.7,122.2l30.1,11.6l53.3-115.6"/>
		</g>
		<g>
			<g>
				<polygon class="st37" points="1683.8,726.9 1664.9,726.9 1660.8,696.6 1683.8,696.6 				"/>
				<path class="st15" d="M1664.9,726.9l-18.1,11.2c-1,0.5-1.9,1.8-1.9,2.9v0.7c0,1.1,0.9,2.1,2.1,2.1h9.4h21.1
					c3.4,0,6.2-2.4,6.2-5.4c0-3,0-11.5,0-11.5H1664.9z"/>
			</g>
			<path class="st35" d="M1673.8,571.5c-8.2,40.7-13.9,78.8-16.7,131l31.8,5.8l31.3-127"/>
		</g>
		<path class="st35" d="M1727.7,523.5c-17,10.3-34.7,22.8-46.1,35.7l36.3,40.4c16.7-8.3,33.2-16.4,53.7-29"/>
		<circle class="st35" cx="1700.3" cy="578.7" r="27.2"/>
		<circle class="st36" cx="1781.9" cy="556.8" r="31.3"/>
		<path class="st36" d="M1673.3,558.7c27.6,10,54.7,19.9,105.6,29.3c2.7-35.7,6.9-58,6.9-58s-66.6-27-108.3-25.5"/>
		<circle class="st36" cx="1679.4" cy="531.8" r="27.2"/>
		<polygon class="st36" points="1753.8,507.8 1759.7,520.7 1763.6,507.3 1755.3,502.6 		"/>
		<g>
			<path class="st6" d="M1766.4,421.4c-0.1,1.5,1,2.7,2.5,2.8l20.6,1.2c1.5,0.1,2.7-1,2.8-2.5l0.3-5.7c0.1-1.5-1-2.7-2.5-2.8
				l-20.6-1.2c-1.5-0.1-2.7,1-2.8,2.5L1766.4,421.4z"/>
		</g>
		<path class="st6" d="M1744.2,448c2.5-8.8,5.9-17.2,7.9-22c1.5-4,4.8-4.2,4.8-4.2l9.6-0.6l25.9-0.1l10.4,2.1
			c8.4,1.1,13.6,9.6,11.5,19c-2.1,9.3-12.8,58.1-12.8,58.1l-50.7,0.1l1.1-27.8C1748.3,468.4,1741.3,458.2,1744.2,448z"/>
		<path class="st38" d="M1751.9,472.7c-3.6-4.4-10.6-14.6-7.7-24.7c1.9-6.6,4.2-12.9,6.2-17.7"/>
		<g>
			<g>
				<g>
					<path class="st27" d="M1734.9,512c-18.7-7.4-31.7-22.3-33-23.4l12-14.6l-0.1-0.1c0.1,0.1,27.6,13,27.6,13L1734.9,512z"/>
				</g>
			</g>
		</g>
		<g>
			<g>
				<path class="st6" d="M1773.2,480.1c9.6-5.6,13.2-26.4,11.2-35.1l31.4-2.9c3.3,27.9-6.4,52.5-27.7,66.9
					c-22.8,15.4-53.3,13.2-79.1-3.1l16.9-30.8C1744.8,484.7,1758,488.9,1773.2,480.1z"/>
				<circle class="st6" cx="1799.9" cy="441.9" r="15.9"/>
			</g>
		</g>
		<path class="st39" d="M1767.2,482.9c0,0,20.5-6.8,17.1-37.9"/>
	</g>
	<g>
		<g>
			<g>
				<g>
					<path class="st27" d="M1711.5,467.8c0,0-0.5-5.7-7.3-6.8c-4.8-0.7-10.2-4.7-13.5-5.3l-9.8,21.9c6.8,7.3,15.2,9.7,20.5,10.9
						C1701.4,488.6,1712.8,468.5,1711.5,467.8z"/>
					<g>
						<path class="st27" d="M1714.5,476.9c0.2-6.6-5.1-12.7-5.4-14.4c-0.4-2.3-1.1-4.5-1.3-6.9c-0.1-1.1,0.1-3.2-0.7-4
							c-0.9-0.9-2.6-0.6-3.4,0.2c-1.8,1.6-1.7,5-1.8,7.2c0,1.9-0.4,3-0.9,3.8c0,0-7.9,5.5-4,14.4l-2.2,9.4l9.6,3.2"/>
					</g>
					<circle class="st27" cx="1689.5" cy="459.3" r="3.7"/>
					<circle class="st27" cx="1685.6" cy="463.7" r="3.7"/>
					<circle class="st27" cx="1684.3" cy="469.3" r="3.7"/>
					<circle class="st27" cx="1683.9" cy="475.7" r="3.6"/>
					<path class="st40" d="M1700.3,475.5"/>
					<path class="st40" d="M1696.9,462.4"/>
				</g>
			</g>
		</g>
		<path class="st41" d="M1683.5,466.4c0,0,8.9,5.9,10.9,5.7"/>
		<path class="st41" d="M1682.6,472.8c0,0,8.9,5.9,10.9,5.7"/>
		<path class="st41" d="M1686.7,460.2c0,0,8.9,5.9,10.9,5.7"/>
	</g>
</g>
<path class="st42" d="M2072.5,485.5"/>
<g>
	<path class="st43" d="M2069.7,383.1c0,8.5,6.9,22.7,15.5,22.7c8.5,0,15.5-14.2,15.5-22.7l-15.5-1.6L2069.7,383.1z"/>
	<g>
		<g>
			<g>
				<g>
					<polygon class="st43" points="2216.7,726.5 2236.4,721.1 2232.6,690.3 2208.6,696.9 					"/>
					<path class="st15" d="M2235.6,714.4l17.8,6.7c1.1,0.2,2.3,1.2,2.6,2.3l0.2,0.6c0.3,1.1-0.3,2.2-1.4,2.5l-9.1,2.5l-20.3,5.6
						c-3.3,0.9-6.6-0.7-7.4-3.6c-0.8-2.9-3-11.1-3-11.1S2234.5,714.2,2235.6,714.4z"/>
				</g>
				<path class="st44" d="M2222.4,569.8c0,0,14.1,86.1,19.9,127l-38.3,9.3l-35.9-115.4"/>
				<path class="st44" d="M2187.7,602.2l-115.4-39.4l23.2-47.6c26.7,5.2,59.2,13.9,111.4,35.7"/>
				
					<ellipse transform="matrix(0.9106 -0.4133 0.4133 0.9106 -41.7777 958.8564)" class="st44" cx="2195.6" cy="576" rx="27.6" ry="27.6"/>
			</g>
			<g>
				<g>
					<polygon class="st43" points="2054.4,704.9 2069.7,718.5 2093.5,698.6 2074.8,682 					"/>
					<path class="st15" d="M2074.9,714.2l4.1,18.6c0.5,1,0.2,2.6-0.5,3.4l-0.4,0.5c-0.8,0.9-2.1,0.9-2.9,0.2l-7-6.3l-15.7-14
						c-2.5-2.3-3-5.9-1-8.1c2-2.2,7.6-8.6,7.6-8.6S2074.4,713.1,2074.9,714.2z"/>
				</g>
				<path class="st44" d="M2197.7,612.5c-24.3,25-73.2,70.6-104.4,97.7l-28.6-27.1l77.4-92.9"/>
				<path class="st44" d="M2164.1,615.1l-103.1-32.8l24.7-54.2c26.6,9.8,50.3,19.3,102.4,41.1"/>
				<path class="st44" d="M2198.8,577.6c9.3,12.1,7,29.4-5.1,38.6c-12.1,9.3-29.4,7-38.6-5.1c-9.3-12.1-7-29.4,5.1-38.6
					C2172.3,563.2,2189.6,565.5,2198.8,577.6z"/>
			</g>
			<g>
				<circle class="st44" cx="2074.9" cy="555.8" r="29.8"/>
				<rect x="2045.1" y="514.8" class="st44" width="59.2" height="42.3"/>
			</g>
		</g>
	</g>
	<g>
		<g>
			<path class="st43" d="M2193.9,439.8c-17.7,1.4-26.8-10.2-33.7-17.3l-24.8,24.8c19.1,21.4,40,27.1,61.5,24.3
				c31.6-7.7,47.4-34.2,51.1-59.9l-16.4-8.5C2223.1,424.3,2209.2,437.2,2193.9,439.8z"/>
		</g>
		<path class="st43" d="M2146.5,451.2c9.7,0,17.6-7.8,17.6-17.6c0-9.7-7.8-17.6-17.6-17.6c-9.7,0-17.6,7.8-17.6,17.6
			C2128.9,443.3,2136.7,451.2,2146.5,451.2z"/>
	</g>
	<g>
		<g>
			<g>
				<g>
					<path class="st43" d="M2257.4,397.2c0,0-4.4,9-9.9,16.1l-16.6-8.7c1.2-4.5-0.5-10.4-0.8-12.5c-0.4-2-0.4-4-0.9-6
						c-0.2-0.9-1-2.6-0.6-3.5c0.5-1,1.9-1.3,2.8-0.9c1.9,0.8,2.9,3.5,3.6,5.3c1.5,4,3.4,3.5,4.5,2.7c0.6-0.4,1.7-1.5,3.1-4.8
						C2253.2,388.8,2257.4,397.2,2257.4,397.2z"/>
				</g>
				<g>
					<path class="st43" d="M2250.8,374.3c-0.4,1.3-1.7,2-3,1.6c-1.3-0.4-2-1.7-1.6-3c0.4-1.3,1.7-2,3-1.6
						C2250.4,371.7,2251.1,373.1,2250.8,374.3z"/>
					
						<rect x="2243.5" y="373.3" transform="matrix(0.9578 0.2874 -0.2874 0.9578 204.5943 -629.2924)" class="st43" width="4.8" height="18"/>
				</g>
				<g>
					<path class="st43" d="M2261.9,379.4c-0.6,1.2-2.1,1.6-3.2,1c-1.2-0.6-1.6-2.1-1-3.2c0.6-1.2,2.1-1.6,3.2-1
						C2262.1,376.7,2262.6,378.2,2261.9,379.4z"/>
					
						<rect x="2253.2" y="377.2" transform="matrix(0.882 0.4712 -0.4712 0.882 448.0466 -1017.2576)" class="st43" width="4.8" height="18"/>
				</g>
				<g>
					<path class="st43" d="M2265.5,385.1c-0.7,1.1-2.2,1.4-3.3,0.7c-1.1-0.7-1.4-2.2-0.7-3.3c0.7-1.1,2.2-1.4,3.3-0.7
						C2266,382.5,2266.3,384,2265.5,385.1z"/>
					
						<rect x="2256.2" y="382.3" transform="matrix(0.8313 0.5558 -0.5558 0.8313 598.5503 -1189.4043)" class="st43" width="4.8" height="18"/>
				</g>
				<g>
					<path class="st43" d="M2257,374.6c-0.5,1.2-1.9,1.8-3.1,1.3c-1.2-0.5-1.8-1.9-1.3-3.1c0.5-1.2,1.9-1.8,3.1-1.3
						C2256.9,372,2257.5,373.4,2257,374.6z"/>
					
						<rect x="2249.1" y="373.1" transform="matrix(0.9274 0.3742 -0.3742 0.9274 306.5112 -814.6671)" class="st43" width="4.8" height="18"/>
				</g>
			</g>
		</g>
		<path class="st45" d="M2243.2,388c0,0,8.1,1.2,12.2,8"/>
		<path class="st45" d="M2239.2,392.2c0,0,4.4,2.7,2.8,9"/>
	</g>
	<path class="st36" d="M2126.2,391.4c-6.2-3.1-18.7-5.7-22.6-6.4c-0.8-0.1-1.2,0.6-1.2,1c-0.2,7.5-10,12.9-17.8,13.4
		c-7.8,0.5-19.3-6.9-20.5-14.3c-0.1-0.4-0.7-1.1-1.4-0.8c-3.7,1.3-15.7,5.5-21.4,9.5c-3.2,2.1-6.1,4.8-8.6,7.4l6.6,119.7l94.2-0.5
		l2.2-122.8C2132.9,395.3,2129.6,393.1,2126.2,391.4z"/>
	<g>
		<path class="st36" d="M2135.7,397.6l34.6,29c0.3,0.3,0.4,0.8,0.1,1.1l-25.5,30.5c-0.3,0.3-0.8,0.4-1.1,0.1l-20.5-16.1"/>
	</g>
	<line class="st46" x1="2132.6" y1="431.2" x2="2134.9" y2="451.2"/>
	<polygon class="st43" points="2020.8,420.9 2052.8,440.3 2013.4,501.2 1987,488.5 	"/>
	<path class="st43" d="M1996.3,478.3c-7.6,2.7-11.6,11.1-8.8,18.8c2.7,7.6,11.1,11.6,18.8,8.8c7.6-2.7,11.6-11.1,8.8-18.8
		C2012.4,479.5,2004,475.5,1996.3,478.3z"/>
	<g>
		<path class="st36" d="M2032.8,401l-25.1,37.5c-0.2,0.4-0.1,0.8,0.2,1.1l33,22.1c0.4,0.2,0.8,0.1,1.1-0.2l15.1-21.2"/>
	</g>
	<path class="st46" d="M2032.8,455.2l5.9,4c1.1,0.7,2.6,0.5,3.4-0.6l14.2-19.9"/>
	<polyline class="st43" points="2070.9,484.4 2001.6,478.1 1998.8,506.1 2072,505.9 	"/>
	<polygon class="st43" points="2075.6,384.2 2094.7,384.2 2092.4,366.7 2077.9,366.7 	"/>
	<g>
		<g>
			<circle class="st47" cx="2084.5" cy="312.9" r="8.8"/>
			<path class="st47" d="M2063.2,351.5c0,0-4.8-15.8,1-24.9s13.7-9.3,13.7-9.3l-6.8,36.2L2063.2,351.5z"/>
			<path class="st47" d="M2106,351.5c0,0,4.8-15.8-1-24.9c-5.8-9.1-13.7-9.3-13.7-9.3l6.8,36.2L2106,351.5z"/>
			<path class="st43" d="M2068.5,345c-3.9-2.3-8.1,0.9-7.6,5.4c0.5,4.5,4.5,7.7,9,7.2"/>
			<path class="st43" d="M2100.1,345c3.9-2.3,8.1,0.9,7.6,5.4c-0.5,4.5-4.5,7.7-9,7.2"/>
			<g>
				<g>
					<path class="st48" d="M2068.3,359.3c0.3,9.2,7.6,16.7,16.2,16.7c8.6,0,15.9-7.5,16.2-16.7l0.1-3.3c0.3-9.2-7-16.7-16.2-16.7
						h-0.3c-9.2,0-16.5,7.5-16.2,16.7L2068.3,359.3z"/>
				</g>
				<ellipse class="st48" cx="2084.5" cy="340.7" rx="18.4" ry="21.3"/>
				<path class="st48" d="M2076.6,346l2.1,11.4c0,0-10.3,3.8-10.5-0.4c-0.1-4.2-1.4-10.3-1.4-10.3L2076.6,346z"/>
				<path class="st48" d="M2092.4,346l-2.1,11.4c0,0,10.3,3.8,10.5-0.4c0.1-4.2,1.4-10.2,1.4-10.2L2092.4,346z"/>
			</g>
			<path class="st47" d="M2099.2,327.8c0,0-11.3,3.6-29.4,0c-2.1-8.4,5.2-16.2,14.7-13.2C2084.4,314.6,2102.6,310.3,2099.2,327.8z"
				/>
			<path class="st47" d="M2068.2,355.6c0,0,0.8,6.1,2.9,9.5s4.9,4.7,7.5,4.7c2.6,0,4.4-2.1,3.9-6.7c0,0,0.5,0.6,1.9,0.6
				s1.9-0.6,1.9-0.6c-0.5,4.6,1.3,6.7,3.9,6.7s5.4-1.3,7.5-4.7c2.1-3.4,2.9-9.5,2.9-9.5l0,0.1l-0.3,8.7c-0.2,6.4-5.6,11.7-12.1,11.7
				h-7.9c-6.4,0-11.9-5.3-12.1-11.7L2068.2,355.6L2068.2,355.6z"/>
			<path class="st49" d="M2075.9,314.8c2.4-1,5.3-1.2,8.5-0.3c0,0,4.5-1.1,8.6,0.1"/>
		</g>
		<path class="st49" d="M2087.5,328.3c0.9-1.6,1.5-3.5,0.9-5.2c-0.2-0.4-0.4-0.8-0.5-1.3c-0.2-0.9,0.2-1.8,0.4-2.8
			c0.2-0.9-0.4-2.5-1.4-3.2"/>
		<path class="st49" d="M2076.3,328c-0.7-0.4-1.3-1.1-1.3-2c0-1,0.7-1.9,0.4-2.8c-0.1-0.5-0.6-0.9-0.9-1.4c-0.7-0.9-1-2.1-0.9-3.2"
			/>
		<path class="st49" d="M2097.9,327.4c0.6-0.8,0.9-1.7,0.9-2.7c0-0.7-0.2-1.4-0.2-2.1c0-0.8,0.3-1.6,0.1-2.4"/>
		<g>
			<path class="st45" d="M2085.1,350.8l0.6,2.7c0.3,1.2-0.2,2.1-1.1,2.1c-0.9-0.1-1.6-0.1-1.6-0.1"/>
		</g>
		<ellipse cx="2093.3" cy="348.6" rx="1.7" ry="2.9"/>
		<path class="st50" d="M2077.6,343.6c0,0-2.6-2.8-5.3,0"/>
		<path class="st50" d="M2096.2,343.6c0,0-2.6-2.8-5.3,0"/>
		<ellipse cx="2075.7" cy="348.6" rx="1.7" ry="2.9"/>
		<g>
			<path class="st0" d="M2079.8,359.7c3.4,0.1,6.1,0,9.5-0.1c0,0,0.5,4.4-3.7,5.6C2079.7,366.3,2079.8,359.7,2079.8,359.7z"/>
		</g>
	</g>
	<g>
		<g>
			<path class="st51" d="M2098.4,400.2c2.9,17.9-2.5,36.6,1.3,54.3"/>
			<circle class="st4" cx="2099.6" cy="452.8" r="3.1"/>
		</g>
		<g>
			<path class="st51" d="M2071.1,400.2c-2.9,17.9,2.5,36.6-1.3,54.3"/>
			<circle class="st4" cx="2070" cy="452.8" r="3.1"/>
		</g>
		<path class="st9" d="M2085.2,405.5l-15.6-22.6c0,0-2.2-1.6-6.9-1.2c-5.9,0.5-7.2,5.2-10.7,6.3c-3.5,1.1-3,0.7-7.5,3.9
			C2065.8,403.6,2085.2,405.5,2085.2,405.5z"/>
		<path class="st9" d="M2085.2,405.5l15.6-22.6c0,0,2.2-1.6,6.9-1.2c5.9,0.5,7.2,5.2,10.7,6.3c3.5,1.1,3.5,0.3,8,3.5
			C2105.1,403.2,2085.2,405.5,2085.2,405.5z"/>
	</g>
	<polygon class="st0" points="2093,394 2077.4,394 2085.2,405.5 	"/>
	<g>
		<g>
			<g>
				<g>
					<path class="st43" d="M2075.4,482.5c0,0,3.8-4.3,9.9-1c4.3,2.3,11,2.4,14,3.9l-5.4,23.4c-9.8,1.7-18-1.4-23-3.6
						C2070.9,505.2,2073.9,482.3,2075.4,482.5z"/>
					<g>
						<path class="st43" d="M2067.5,488c3.8-5.4,11.7-7.1,13-8.3c1.7-1.6,3.6-2.9,5.2-4.7c0.7-0.8,1.9-2.6,3-2.8
							c1.2-0.2,2.4,1.1,2.6,2.2c0.4,2.4-1.6,5-2.9,6.8c-1.1,1.5-1.5,2.6-1.6,3.5c0,0,3,9.2-5.5,13.9l-3.9,8.9l-9.6-3.2"/>
					</g>
					<circle class="st43" cx="2098" cy="488.9" r="3.7"/>
					<circle class="st43" cx="2098.4" cy="494.8" r="3.7"/>
					<circle class="st43" cx="2096.1" cy="500" r="3.7"/>
					<circle class="st43" cx="2092.7" cy="505.4" r="3.6"/>
					<path class="st40" d="M2079.6,495.4"/>
					<path class="st40" d="M2090.3,487"/>
				</g>
			</g>
		</g>
		<path class="st45" d="M2098.5,498.3c0,0-10.6-0.6-12.1-2"/>
		<path class="st45" d="M2095.4,503.9c0,0-10.6-0.6-12.1-2"/>
		<path class="st45" d="M2099.8,491.4c0,0-10.6-0.6-12.1-2"/>
	</g>
</g>
<polyline class="st52" points="2113.3,560.1 2174.1,581.4 2180.3,629.9 "/>
<g>
	<g>
		<g>
			<polygon class="st53" points="1663.5,164.1 1646.2,160.8 1638,183.6 1658,190.1 			"/>
		</g>
		<g id="A_00000086689019737391130050000012891207942423488929_">
			<path class="st53" d="M1663.5,164.1c7.2-8.6,9.6-19.4,9.6-19.4l-6-3.8l-14.2-1.9l-8.8,11.7l2,10.4L1663.5,164.1z"/>
			<path class="st53" d="M1666.3,152.3L1666.3,152.3c1.4,0.6,3,0.2,3.6-1l3-6.1c0.8-1.6,0.1-4.2-1.7-5v0c-1.8-0.8-3.9,0.7-4.5,2.4
				l-2.2,6.4C1664,150.3,1664.9,151.7,1666.3,152.3z"/>
			<path class="st53" d="M1661.6,150.3L1661.6,150.3c1.5,0.4,3-0.2,3.4-1.4l2.7-8.4c0.6-1.8-0.4-4.1-2.5-4.6l0,0
				c-2-0.5-4.1,1-4.5,2.9l-1.5,8.7C1659,148.7,1660.1,149.9,1661.6,150.3z"/>
			<path class="st53" d="M1656.7,148.4L1656.7,148.4c1.5,0.1,2.9-0.8,3.1-2.1l1.1-8.8c0.2-1.8-1.1-3.8-3.1-4l0,0
				c-2-0.1-3.7,1.6-3.7,3.5l-0.1,8.8C1653.9,147.2,1655.2,148.2,1656.7,148.4z"/>
			<path class="st53" d="M1652.1,149L1652.1,149c1.5-0.2,2.7-1.5,2.5-2.8l-0.8-9c-0.2-1.8-1.9-3.1-3.7-2.8l0,0
				c-1.9,0.3-3.1,2.3-2.8,4l1.6,8.7C1649.1,148.4,1650.5,149.2,1652.1,149z"/>
			<path class="st54" d="M1666.6,143.1l-2.1,6.2c-0.3,1.1,0.3,2.6,1.4,3.1l0,0c1.1,0.5,2.8,0,3.4-0.9l1.6-3"/>
			<path class="st55" d="M1660.5,140.3l-1.2,7.5c-0.1,1.4,0.8,2.5,2.1,2.8l0,0c1.3,0.3,2.8-0.5,3.2-1.6l2.1-6.1"/>
			<path class="st56" d="M1665.2,135.9"/>
			<path class="st55" d="M1654,139.4l0.3,6.7c0,1.2,1.1,2.1,2.4,2.2l0,0c1.4,0.1,2.6-0.7,2.8-1.9l1.2-7.7"/>
			<path class="st54" d="M1647.7,139.6l1.6,7.7c0.3,1.1,1.5,1.8,2.7,1.7v0c1.3-0.2,2.2-1.2,2.2-2.4l-0.4-8.5"/>
			<path class="st53" d="M1646.1,161.1c0,0-6.4-6.2-4.9-14.2c1.5-5,6.2-8.9,6.2-8.9c1.4-1,2.9-0.6,3.9,0.6c1,1.2,0.7,2.9-0.3,4
				c-0.1,0.1-1.9,2.3-3.7,4.5c0,0,6.4,1.7,6,9.2"/>
			<path class="st54" d="M1647.4,138c1.4-1,2.9-0.6,3.9,0.6c1,1.2,0.7,2.9-0.3,4c-0.1,0.1-1.9,2.3-3.7,4.5c0,0,6.4,1.7,6,9.2"/>
		</g>
	</g>
	<g>
		<path class="st44" d="M1605,207.7c-14,4.7-29.6-5.8-35.8-10.8l-14.3,20.9c20.1,19.4,45.4,26.6,69.5,18.4
			c25.9-8.8,42.4-34.2,45-64.4l-34.5-5.1C1632.3,186.2,1621.5,202.1,1605,207.7z"/>
		<circle class="st44" cx="1562.2" cy="207.5" r="12.6"/>
	</g>
	<g>
		<g>
			<path class="st53" d="M1590.9,547.6l-3.4,42.5l-19.9-0.4c0,0-3.8-18.4-6-42H1590.9z"/>
			<path class="st57" d="M1565.8,580l-0.7,14.5c-0.1,1.3,0.9,2.4,2.2,2.4l6.8,0.3c1.3,0.1,2.3-0.9,2.4-2.2l0.1-3.5l17.1,3.6
				l13.4,2.8c1.7,0.4,3.4-0.7,3.9-2.3l0,0c0.4-1.2-0.1-2.9-1.1-3.7l-18.2-18.6c-1-0.8-2.3-0.6-2.9,0.5l-0.7,11.9L1565.8,580z"/>
		</g>
		<g>
			<path class="st53" d="M1414.5,482l-41.1,11.2l-6.4-18.8c0,0,16-9.8,37.5-20L1414.5,482z"/>
			<path class="st57" d="M1375.5,469.4l-13.9,4.3c-1.2,0.4-1.9,1.7-1.5,2.9l2.1,6.5c0.4,1.2,1.7,1.9,2.9,1.5l3.3-1.1l2.4,17.3
				l1.9,13.5c0.2,1.7,1.8,3,3.5,2.9l0,0c1.3-0.1,2.7-1.1,3.1-2.3l11.3-23.5c0.5-1.2-0.2-2.3-1.4-2.6l-11.4,3.3L1375.5,469.4z"/>
		</g>
		<path class="st11" d="M1563.1,445.1c0,0-19.6,69.2-15.4,114.1h61.9V444.7"/>
		<path class="st11" d="M1609.7,441.2l-3.8-95c0.3-7.8-2.2-20-5.7-27.1l-13.5-27.6l-28.2,0.5l-2.7,65c0,0-3.3,40.5,7.3,88"/>
		<path class="st11" d="M1503.1,346.7c0.6-8.9,1-17.2,7.1-26.7c6.1-9.5,17.1-27.5,17.1-27.5l31.2-0.3l-2.7,65
			c-11.2,52.9-47.4,121.6-148.7,140.7l-22.4-58.7C1384.6,439.1,1501.1,409.2,1503.1,346.7z"/>
		<circle class="st11" cx="1586.3" cy="441.9" r="23.4"/>
		<line class="st65" x1="1558.6" y1="324.9" x2="1555.3" y2="359.3"/>
	</g>
	<polygon class="st37" points="1527,297.4 1573.6,290.5 1570.9,257.7 1520.8,265.2 	"/>
	<g>
		<g>
			<path class="st44" d="M1513.2,303.8l-7-47.6c-0.6-4.4-1.7-11.5-2.3-15.9l-3.4-23.3c-0.6-4.4,2.2-9.4,6.2-11.1
				c0,0,20.6-8.7,33.4-10.6c12.8-1.9,23.9,0,23.9,0c4.4,0.7,9.1,4.8,10.4,9l8.1,24.5c1.4,4.2,3,11.2,3.7,15.6l7,47.6"/>
		</g>
	</g>
	<g>
		<path class="st36" d="M1564.1,282.9c-7.1-9.7-8-21.4-8.1-29.4c0-2.9,0-5.7,0.1-8.5c0.2-5.4,0.3-10.5-0.4-15.2
			c-1.4-9.7-6.6-18.8-14.2-25l12.1-14.9c11.3,9.2,19,22.7,21.1,37.1c0.9,6.4,0.8,12.6,0.6,18.5c-0.1,2.7-0.1,5.2-0.1,7.7
			c0.1,8.3,1.5,14.3,4.4,18.2L1564.1,282.9z"/>
	</g>
	<g>
		
			<ellipse transform="matrix(0.9892 -0.1464 0.1464 0.9892 -11.8434 227.3565)" class="st36" cx="1538.4" cy="194.1" rx="20.8" ry="21.1"/>
		<path class="st60" d="M1513.9,179.8c2.1,14.4,13.7,24.7,25.8,22.9s20.2-15,18-29.4l-0.4-2.9c-2.1-14.4-13.7-24.7-25.8-22.9
			s-20.2,15-18,29.4L1513.9,179.8z"/>
		<path class="st36" d="M1507.9,171.3c2.6,17.4,16.6,29.9,31.2,27.7c14.6-2.2,24.4-18.2,21.8-35.6l-0.5-3.5
			c-2.6-17.4-16.6-29.9-31.2-27.7c-14.6,2.2-24.4,18.2-21.8,35.6L1507.9,171.3z"/>
		<g>
			<g>
				
					<ellipse transform="matrix(0.9892 -0.1464 0.1464 0.9892 -7.6277 226.8351)" class="st53" cx="1536.9" cy="165.2" rx="19.9" ry="26.7"/>
			</g>
			
				<ellipse transform="matrix(0.9892 -0.1464 0.1464 0.9892 -7.6262 228.3431)" class="st61" cx="1547.2" cy="166" rx="1.6" ry="2.5"/>
			
				<ellipse transform="matrix(0.9892 -0.1464 0.1464 0.9892 -8.1873 225.839)" class="st61" cx="1529.9" cy="168.5" rx="1.6" ry="2.5"/>
			<g>
				<path class="st55" d="M1538.3,167.2l2,3.3c0.5,0.8,0.3,1.6-0.4,1.8s-1.2,0.4-1.2,0.4"/>
			</g>
			<path class="st62" d="M1548.4,158.8c-1.5,0-3.3,0.3-4.6,1.7"/>
			<path class="st62" d="M1531.7,162.3c-1.3-0.6-3.1-1-4.9-0.2"/>
			<path class="st0" d="M1535,176.7c0.4,2.5,2.7,4.2,5.2,3.8c2.5-0.4,4.2-2.7,3.8-5.2L1535,176.7z"/>
			<path class="st36" d="M1558.1,161.3l-23.5-16.7l-19,23c0,0-6.1-30.9,16.7-34.2C1532.2,133.4,1553.4,129.3,1558.1,161.3z"/>
		</g>
	</g>
	<polygon class="st44" points="1490.2,277.2 1466.5,262.4 1499.3,212.6 1523.9,227.1 	"/>
	<g>
		<path class="st53" d="M1510.8,326c2,3.2,4.2,5.4,4,9.1c-0.4,3.6,3.7,6.4,3.4,8c-0.2,0.8-0.9,1.4-1.7,1.5c-0.8,0.1-1.6-0.1-2.2-0.6
			c-0.7-0.4-1.2-1-1.7-1.7c-0.5-0.6-0.9-1.2-1.3-1.8c-0.2-0.3-0.4-0.6-0.6-0.9c-0.1-0.1-0.2-0.3-0.2-0.4c-0.1-0.1-0.1-0.2-0.3-0.1
			c-0.3,0.1-0.2,0.5-0.2,0.5l-6.9,3.2l-1.9-14.8L1510.8,326z"/>
		<g>
			<path class="st53" d="M1502.7,327.5l4.3,32.8c-0.4,0.4-1,0.6-1.6,0.6c-2-0.1-4.2-2.6-5.3-3.8l-0.2-0.2c-0.9-1.2-1.9-2.5-2.6-3.7
				c-0.2-0.3-0.4-0.6-0.6-0.9c-3.7-6.8-4.5-18.1-4.2-21L1502.7,327.5z"/>
			<path class="st53" d="M1502.5,342.7c0,0,1.9,6.7,2.7,7.9c0.8,1.2,5.5,6.8,5.5,6.8c0.3,0.4,0.4,1.1,0.4,1.6c0,0.5-0.2,0.9-0.6,1.2
				c-2,1.8-5.3-2.1-6.5-3.4c-3-3.3-4.7-5.5-5.5-8.6c-1-3.7-0.8-3-0.8-3"/>
			<path class="st53" d="M1505,341c0,0,3.4,8.4,4.4,9.5c0.9,1.1,6.1,6.2,6.2,6.2c0.3,0.3,0.5,1.1,0.5,1.5c0,0.5-0.1,0.9-0.5,1.3
				c-1.8,2-5.5-1.6-6.8-2.8c-3.3-3-5.2-5-6.4-8c-1.4-3.5-1.2-5.4-1.2-5.4"/>
			<path class="st53" d="M1509.6,337.6c0,0,0.2,0.7,0.5,1.8c0.6,2.5,1.8,6.9,2.3,7.7c0.8,1.2,5.2,7,5.2,7c0.3,0.4,0.4,1.1,0.3,1.6
				c-0.1,0.5-0.3,0.9-0.6,1.2c-2,1.8-5.2-2.3-6.3-3.7c-2.8-3.4-4.5-5.7-5.2-8.8c-0.9-3.7-0.7-3.1-0.7-3.1"/>
			<path class="st63" d="M1505.7,341"/>
			<path class="st54" d="M1515.4,357.2c-1.7-0.6-3.6-3-4.3-3.9c-2.8-3.4-4.5-5.7-5.2-8.8c-0.1-0.4-0.2-0.8-0.3-1.1"/>
			<path class="st54" d="M1507.2,359.8c-1.3-0.9-2.5-2.4-3.1-3c-3-3.3-4.7-5.5-5.5-8.6c-0.1-0.5-0.3-0.9-0.3-1.3"/>
			<path class="st54" d="M1511.2,358.9c-0.3-0.2-0.5-0.4-0.8-0.6c0,0-4.2-4-5.7-6.1c-1.6-2.1-2.1-4.8-2.8-7.4"/>
		</g>
	</g>
	<polyline class="st44" points="1491.6,264.4 1517.3,324.7 1485.4,336.2 1464.9,275.9 	"/>
	<circle class="st44" cx="1478.6" cy="270.5" r="14.5"/>
	<circle class="st44" cx="1512.1" cy="219.1" r="14.3"/>
	<line class="st52" x1="1505.8" y1="254" x2="1503.7" y2="239.6"/>
	<line class="st52" x1="1585" y1="236.4" x2="1582.5" y2="223.2"/>
</g>
</svg>
