<svg xmlns="http://www.w3.org/2000/svg" viewBox="0 0 144.66 144.66"><defs><style>.cls-1{fill:#ee4d2d;}</style></defs><g id="Layer_2" data-name="Layer 2"><g id="Flatten"><g id="time__calendar"><path class="cls-1" d="M106.61,18.62a6.51,6.51,0,0,0,5.29,2.74h.5a6.24,6.24,0,0,0,1.3-.14,5.76,5.76,0,0,0,1.22-.38q.28-.12.57-.27a6.68,6.68,0,0,0,1.45-1.08l0,0A6.54,6.54,0,0,0,118.79,16a6.62,6.62,0,0,0,.1-1.1V6.49A6.51,6.51,0,0,0,112.4,0h-.51a6.72,6.72,0,0,0-1.1.1,6.52,6.52,0,0,0-3.9,2.27,4.62,4.62,0,0,0-.37.5,6.36,6.36,0,0,0-1.12,3.62v8.37a6.58,6.58,0,0,0,1.21,3.76Z"/><path class="cls-1" d="M27.92,19.67A6.38,6.38,0,0,0,30.09,21a5,5,0,0,0,.55.17,4.36,4.36,0,0,0,.52.11,5.7,5.7,0,0,0,1.1.11h.5a6,6,0,0,0,1-.08,5.84,5.84,0,0,0,.83-.18l.14,0a6.54,6.54,0,0,0,2.62-1.57s0,0,0,0a6.5,6.5,0,0,0,.92-1.17,5.81,5.81,0,0,0,.47-.89,6.4,6.4,0,0,0,.38-1.22,1.52,1.52,0,0,0,0-.21,6.61,6.61,0,0,0,.11-1.1V6.49a6.73,6.73,0,0,0-.11-1.11c0-.17-.07-.35-.11-.52s-.11-.37-.17-.55A6.52,6.52,0,0,0,32.76,0h-.5A5.9,5.9,0,0,0,30.8.18a6.43,6.43,0,0,0-2.16.93,6.7,6.7,0,0,0-1.76,1.76,6.43,6.43,0,0,0-1.11,3.62v8.37a6.62,6.62,0,0,0,.1,1.1A6.45,6.45,0,0,0,27.92,19.67Z"/><path class="cls-1" d="M136.16,16H125.83a13.52,13.52,0,0,1-13.43,12.4h-.51A13.53,13.53,0,0,1,98.46,16H46.2a13.53,13.53,0,0,1-13.44,12.4h-.51A13.52,13.52,0,0,1,18.83,16H8.5A8.51,8.51,0,0,0,0,24.46v20H144.66v-20A8.51,8.51,0,0,0,136.16,16Z"/><path class="cls-1" d="M70.69,108.87A6.84,6.84,0,0,0,75.75,107a6.62,6.62,0,0,0,1.89-4.89,6.21,6.21,0,0,0-2.15-5.15,7.63,7.63,0,0,0-4.89-1.71,6.75,6.75,0,0,0-5,2,7,7,0,0,0-1.75,4.85,6.45,6.45,0,0,0,2,4.89A6.78,6.78,0,0,0,70.69,108.87Z"/><path class="cls-1" d="M0,136.16a8.51,8.51,0,0,0,8.5,8.5H136.16a8.51,8.51,0,0,0,8.5-8.5V51.44H0ZM52.76,96.64a29.78,29.78,0,0,1,3.43-8.36c1-1.72,2.1-3.6,3.39-5.66s2.67-4.23,4.16-6.52,3-4.66,4.59-7.12L73,61.69,80.29,72c-1.31,2-2.71,4.11-4.2,6.31s-2.91,4.39-4.29,6.56a11.88,11.88,0,0,1,3.65,0,14.28,14.28,0,0,1,5.7,2.19A19.6,19.6,0,0,1,87.07,93a16.25,16.25,0,0,1,2.32,9.31,20.59,20.59,0,0,1-1.46,7.38,16.93,16.93,0,0,1-9.78,9.56,20.65,20.65,0,0,1-7.55,1.33,18.12,18.12,0,0,1-7.42-1.5A18.44,18.44,0,0,1,57.31,115a18.69,18.69,0,0,1-3.86-5.88,17.71,17.71,0,0,1-1.38-6.9A30.06,30.06,0,0,1,52.76,96.64Z"/></g></g></g></svg>