<svg xmlns="http://www.w3.org/2000/svg" viewBox="0 0 144.48 144.7"><defs><style>.cls-1{fill:#ee4d2d;}</style></defs><g id="Layer_2" data-name="Layer 2"><g id="Flatten"><g id="statistic__percent"><polygon class="cls-1" points="137.9 87.33 137.9 87.33 124.01 87.33 114.33 101.21 84.06 144.66 97.95 144.66 114.33 121.15 117.13 117.13 137.9 87.33"/><path class="cls-1" d="M106.5,144.63a8.4,8.4,0,0,0,5.22-2.29,22.49,22.49,0,0,1-1.67-2.8Z"/><path class="cls-1" d="M84.06,122.36a22.56,22.56,0,0,1-7-4.63,22.17,22.17,0,0,1-4.77-6.92,21.57,21.57,0,0,1,0-17.32c.28-.61.59-1.22.91-1.8H25.7a3.5,3.5,0,0,1,0-7H79.31a21.92,21.92,0,0,1,4.5-2.63,21.21,21.21,0,0,1,8.51-1.74,21.47,21.47,0,0,1,8.61,1.74,21.94,21.94,0,0,1,11,10.37L114.33,89V8.4A8.39,8.39,0,0,0,105.94,0h-64V28A14.23,14.23,0,0,1,27.86,42H0v94.28a8.4,8.4,0,0,0,8.4,8.4H75.53l2.77-4L90,123.91A21.91,21.91,0,0,1,84.06,122.36Zm-58.3-61H92.39a3.5,3.5,0,1,1,0,7H25.76a3.5,3.5,0,0,1,0-7Zm34.76,52.25H25.7a3.5,3.5,0,1,1,0-7H60.52a3.5,3.5,0,0,1,0,7Z"/><path class="cls-1" d="M1.74,34.31a2.17,2.17,0,0,0,.44.19,3,3,0,0,0,1,.17H27.8a6.88,6.88,0,0,0,4.82-2A7,7,0,0,0,33.8,31.1a6.82,6.82,0,0,0,.84-3.21V3.23a3,3,0,0,0-.58-1.83A3.19,3.19,0,0,0,31.53.14a3.05,3.05,0,0,0-.6.06,2.78,2.78,0,0,0-.56.17,3.48,3.48,0,0,0-1,.68L15.2,15.23,1,29.41a2.94,2.94,0,0,0-.61.84,3.12,3.12,0,0,0,1.33,4.06Z"/><path class="cls-1" d="M143.87,125.46a15.14,15.14,0,0,0-.56-1.55c-.09-.22-.21-.43-.31-.65a15,15,0,0,0-1.91-3,12,12,0,0,0-1-1.05A14.45,14.45,0,0,0,138,117.4a16.14,16.14,0,0,0-2.52-1.38l-.32-.11a14.57,14.57,0,0,0-5.51-1h-.21a14.8,14.8,0,0,0-10.32,4.34,15.5,15.5,0,0,0-3.18,4.7,14.53,14.53,0,0,0-.83,2.62c0,.13,0,.26-.08.4a15.23,15.23,0,0,0-.25,2.73v.07a14.57,14.57,0,0,0,1.16,5.79,14.25,14.25,0,0,0,.79,1.56,14.4,14.4,0,0,0,2.39,3.18,15.6,15.6,0,0,0,4.75,3.23,14.18,14.18,0,0,0,2.81.91,14.67,14.67,0,0,0,3,.3,14.31,14.31,0,0,0,4.8-.81c.34-.12.69-.25,1-.4a16.29,16.29,0,0,0,2.52-1.41,15.14,15.14,0,0,0,2.18-1.82,12,12,0,0,0,1-1,15.14,15.14,0,0,0,2.06-3.35c0-.12.11-.23.16-.34.13-.29.22-.59.33-.88a14.64,14.64,0,0,0,.84-4.91A14.94,14.94,0,0,0,143.87,125.46Zm-17.27,7.28a4.34,4.34,0,0,1,0-6,4.5,4.5,0,0,1,.64-.53,4.19,4.19,0,0,1,2.36-.68,4.74,4.74,0,0,1,.86.08,3.43,3.43,0,0,1,.79.23,4.09,4.09,0,0,1,2.49,3,4.72,4.72,0,0,1,.07.85,4.94,4.94,0,0,1-.07.87,4.15,4.15,0,0,1-2.49,3,3.43,3.43,0,0,1-.79.23,4.74,4.74,0,0,1-.86.08,4.19,4.19,0,0,1-2.36-.68A4.5,4.5,0,0,1,126.6,132.74Z"/><path class="cls-1" d="M104.66,93.85a14.63,14.63,0,0,0-1.81-2.19,15,15,0,0,0-2.18-1.8,16.14,16.14,0,0,0-2.52-1.38c-.2-.09-.41-.15-.62-.23a15,15,0,0,0-5.21-.93q-.69,0-1.35.06l-.53.07a13.75,13.75,0,0,0-3,.7c-.29.11-.58.21-.87.33a15.28,15.28,0,0,0-2.52,1.38c-.39.26-.77.55-1.14.85s-.71.62-1.05,1l0,0a15.49,15.49,0,0,0-2.88,4c-.11.21-.22.42-.32.65a12.92,12.92,0,0,0-.91,2.8,14.94,14.94,0,0,0-.3,3A14.06,14.06,0,0,0,78.66,108c.2.46.42.9.65,1.32a15.21,15.21,0,0,0,2.62,3.43,15,15,0,0,0,3.49,2.55c.44.23.88.44,1.35.63a15.06,15.06,0,0,0,5.91,1.17,13.93,13.93,0,0,0,4.6-.78c.33-.12.67-.24,1-.39a14.55,14.55,0,0,0,4.62-3.18c.29-.3.56-.61.83-.93A15.41,15.41,0,0,0,106,108a14.57,14.57,0,0,0,.84-2.65,15.31,15.31,0,0,0,.33-3.13,15.7,15.7,0,0,0-.29-3,14,14,0,0,0-.88-2.8A14.54,14.54,0,0,0,104.66,93.85Zm-8.43,10a4.14,4.14,0,0,1-3,2.49,4.76,4.76,0,0,1-.86.07,4.07,4.07,0,0,1-2.22-.63,4.32,4.32,0,0,1-.73-.58,3.91,3.91,0,0,1-1.18-2.14,4.74,4.74,0,0,1-.08-.86,4.82,4.82,0,0,1,.08-.86,4,4,0,0,1,1.18-2.14,4.23,4.23,0,0,1,1.75-1,4.3,4.3,0,0,1,1.2-.19,4.74,4.74,0,0,1,.86.08,4,4,0,0,1,.79.22,3.88,3.88,0,0,1,1,.65,3.75,3.75,0,0,1,.33.26,4,4,0,0,1,.9,1.36,4.66,4.66,0,0,1,0,3.29Z"/></g></g></g></svg>