<svg xmlns="http://www.w3.org/2000/svg" viewBox="0 0 109.12 159.9"><defs><style>.cls-1{fill:#ee4d2d;}</style></defs><g id="Layer_2" data-name="Layer 2"><g id="Flatten"><g id="writing_pads__notes"><path class="cls-1" d="M104.51,15H86.67V8.9a1.5,1.5,0,0,0-1.5-1.5H64.84a10.84,10.84,0,0,0-20.56,0H24a1.5,1.5,0,0,0-1.5,1.5V15H4.61A4.61,4.61,0,0,0,0,19.64V155.29a4.61,4.61,0,0,0,4.61,4.61h99.9a4.62,4.62,0,0,0,4.61-4.61V19.64A4.62,4.62,0,0,0,104.51,15ZM58.06,10.9a3.5,3.5,0,1,1-3.5-3.5A3.5,3.5,0,0,1,58.06,10.9ZM102,149a3.94,3.94,0,0,1-3.93,3.94H11A4,4,0,0,1,7.08,149V26A3.94,3.94,0,0,1,11,22.06H22.45v5.5a1.5,1.5,0,0,0,1.5,1.5H85.17a1.5,1.5,0,0,0,1.5-1.5v-5.5H98.1A3.93,3.93,0,0,1,102,26Z"/><rect class="cls-1" x="18.14" y="51.79" width="72.84" height="7.03" rx="3.5"/><rect class="cls-1" x="18.14" y="72.87" width="72.84" height="7.03" rx="3.5"/><rect class="cls-1" x="18.14" y="93.95" width="72.84" height="7.03" rx="3.5"/><rect class="cls-1" x="18.14" y="115.03" width="72.84" height="7.03" rx="3.5"/></g></g></g></svg>